<mxfile host="Electron" modified="2023-09-27T09:41:43.112Z" agent="Mozilla/5.0 (Windows NT 10.0; Win64; x64) AppleWebKit/537.36 (KHTML, like Gecko) draw.io/21.6.8 Chrome/114.0.5735.289 Electron/25.5.0 Safari/537.36" etag="Ow_td-YMBjX7hcQ35Ixz" version="21.6.8" type="device">
  <diagram id="WCELQJPakhl9SlNDq_Me" name="Seite-1">
    <mxGraphModel dx="1001" dy="1931" grid="1" gridSize="10" guides="1" tooltips="1" connect="1" arrows="1" fold="1" page="1" pageScale="1" pageWidth="827" pageHeight="1169" math="0" shadow="0">
      <root>
        <mxCell id="0" />
        <mxCell id="1" parent="0" />
        <mxCell id="biuPvJfJ3vbkD2ER6AKR-1" value="" style="rounded=0;whiteSpace=wrap;html=1;labelBackgroundColor=#ffffff;fillColor=#f5f5f5;strokeColor=none;fontColor=#333333;" parent="1" vertex="1">
          <mxGeometry x="3.5" y="-260" width="850" height="830" as="geometry" />
        </mxCell>
        <mxCell id="biuPvJfJ3vbkD2ER6AKR-2" style="edgeStyle=orthogonalEdgeStyle;rounded=0;orthogonalLoop=1;jettySize=auto;html=1;entryX=0.05;entryY=0.467;entryDx=0;entryDy=0;entryPerimeter=0;strokeColor=#808080;exitX=1.05;exitY=0.475;exitDx=0;exitDy=0;exitPerimeter=0;" parent="1" source="biuPvJfJ3vbkD2ER6AKR-3" target="biuPvJfJ3vbkD2ER6AKR-17" edge="1">
          <mxGeometry relative="1" as="geometry" />
        </mxCell>
        <mxCell id="biuPvJfJ3vbkD2ER6AKR-3" value="Client" style="aspect=fixed;html=1;perimeter=none;align=center;shadow=0;dashed=0;image;fontSize=12;image=img/lib/mscae/PersonWithFriend.svg;labelBackgroundColor=#ffffff;fillColor=#4D9900;" parent="1" vertex="1">
          <mxGeometry x="48" y="187.5" width="50" height="49.5" as="geometry" />
        </mxCell>
        <mxCell id="biuPvJfJ3vbkD2ER6AKR-14" value="Read" style="edgeStyle=orthogonalEdgeStyle;rounded=0;orthogonalLoop=1;jettySize=auto;html=1;strokeColor=#808080;exitX=0.99;exitY=0.533;exitDx=0;exitDy=0;exitPerimeter=0;" parent="1" source="biuPvJfJ3vbkD2ER6AKR-17" edge="1">
          <mxGeometry relative="1" as="geometry">
            <Array as="points">
              <mxPoint x="221" y="214" />
              <mxPoint x="221" y="515" />
            </Array>
            <mxPoint x="380" y="515" as="targetPoint" />
          </mxGeometry>
        </mxCell>
        <mxCell id="AwfPjfsMhh4GiaTj0pVG-8" style="edgeStyle=orthogonalEdgeStyle;rounded=0;orthogonalLoop=1;jettySize=auto;html=1;entryX=0.5;entryY=0;entryDx=0;entryDy=0;strokeColor=#808080;" parent="1" source="biuPvJfJ3vbkD2ER6AKR-17" target="AwfPjfsMhh4GiaTj0pVG-1" edge="1">
          <mxGeometry relative="1" as="geometry">
            <Array as="points">
              <mxPoint x="221" y="280" />
              <mxPoint x="323" y="280" />
            </Array>
          </mxGeometry>
        </mxCell>
        <mxCell id="AwfPjfsMhh4GiaTj0pVG-9" value="Read" style="edgeLabel;html=1;align=center;verticalAlign=middle;resizable=0;points=[];" parent="AwfPjfsMhh4GiaTj0pVG-8" vertex="1" connectable="0">
          <mxGeometry x="-0.0142" y="1" relative="1" as="geometry">
            <mxPoint as="offset" />
          </mxGeometry>
        </mxCell>
        <mxCell id="biuPvJfJ3vbkD2ER6AKR-17" value="Rest API" style="aspect=fixed;html=1;points=[];align=center;image;fontSize=12;image=img/lib/mscae/Virtual_Machine.svg;" parent="1" vertex="1">
          <mxGeometry x="195.5" y="189" width="50" height="46" as="geometry" />
        </mxCell>
        <mxCell id="biuPvJfJ3vbkD2ER6AKR-18" value="" style="group" parent="1" vertex="1" connectable="0">
          <mxGeometry x="396" y="192" width="57" height="48" as="geometry" />
        </mxCell>
        <mxCell id="biuPvJfJ3vbkD2ER6AKR-19" value="RabbitMQ" style="verticalLabelPosition=bottom;html=1;verticalAlign=top;align=center;strokeColor=none;fillColor=#00BEF2;shape=mxgraph.azure.storage_queue;" parent="biuPvJfJ3vbkD2ER6AKR-18" vertex="1">
          <mxGeometry width="44.41558441558442" height="38.82352941176471" as="geometry" />
        </mxCell>
        <mxCell id="biuPvJfJ3vbkD2ER6AKR-20" value="" style="shape=image;verticalLabelPosition=bottom;labelBackgroundColor=#ffffff;verticalAlign=top;aspect=fixed;imageAspect=0;image=data:image/webp,UklGRrIDAABXRUJQVlA4TKYDAAAv/8A/EAaKbSRJkqRUdXevWKe/EP1ETpUj+57OmP+QRduWIUkRpbZt2+7+tG3b1p/t7rFt27Zt256yIuNNwH78rG6em3yhWHivMt972HqNBjTpUdUM1/lUkVR4q3I/e8w2zQd04WeONX4Sasp3RM0ZzmyLfSvUVOx89S+rPSLU9ZGu9Y5a7pQKZX1jwEWp722hst/1qKamF4XK/jP0kuR4WKjtS/Vq/YndJtT2q+ZXZJVQ3eW1zJYWa3dfkGp+LKdM50pHrk+F6jIGX49ZXd/xSkZLy7Wrr8cNE/hQViEXCPX9IudyfDKBCrULeWUCiXaXI3+C1rGQHyZowy5HxQx61Tmy/DqDkVHImsKoO6Tnx58ey0/35afb8tN1+ekSn84ffzotPx2Xnw7LT/vlp1182n78abP8tI5Pq48/LZefFvFpHt/ZPD7N4juaxafp8jubxKdJfBovP43iOxvFdzSMT8P4NFh+6sd31I9PveWn7vJTZ/mp/fGn1vI7asan5uqTLj+Z9adGepLlp/Ljby8/5fHtQrL9lklrWEct+TOYeIcMr6OfdAZb7pAL6zjeM3r0DsnXsorm/p1Chb43qD0qt8aZ5zFhTm+ocYPaLWeNCkcd9wqzelz9G9Q+MunIe5c6lvlWmNf3lqlzf7r94HanHXOy21nntvNduF3k0r1dubdrXNeud1O3W7Y7vOR/YW7/e80D7v9x3e58CzX+WW65YldqEV63v0xIr5WZkV7L1z299pSs9KSGpdcuiM+78fkvPuXx7a//vv77XxXyve1eN7j2xW72sE9VxKPMzcaoOaB3ijW22PPSZKTu0WFA7z9iI3yUi1Krf8UDKqm6q1NRbMKAqspyNBMZCwdUV5ZrI3HVgCqr6fNA/KNRqW2yNA9HB1RblrfjkNGp2LYpDh8fWdV0kKTh+gFV/zvL72nYX257LQ3b6nkyDZvrefTrv3+ds7WeJ9Kwp55X0nB1ObFf0vDeGVfTWpKGSm2qWSWk0XYXE3spD7+qXctwmTza2VKqekcIRKUJhcTOCom0/w0pc8S2STNp+aYWkeuojBBKS1ymcQV9vSBMeZO6/euMfmfWe1Qzxp3KhWi6ZfzkYZc67eSLnXWN5/0nTHujfuyv/77++x8i8vPy/zM+ysuHz7giL5c/Y2ReRjwj22tpbdnPbIOVZqXUoAE9b7UkKcke0CstVZiTQkv2a3VzvyQjiQd0G9Crz1gnu9zuBa+F226zUxfxgB4G;" parent="biuPvJfJ3vbkD2ER6AKR-18" vertex="1">
          <mxGeometry x="36.27272727272727" y="28.23529411764706" width="14.631016042780749" height="14.631016042780749" as="geometry" />
        </mxCell>
        <mxCell id="biuPvJfJ3vbkD2ER6AKR-21" style="edgeStyle=orthogonalEdgeStyle;rounded=0;orthogonalLoop=1;jettySize=auto;html=1;entryX=0;entryY=0.5;entryDx=0;entryDy=0;entryPerimeter=0;strokeColor=#808080;jumpStyle=arc;" parent="1" target="biuPvJfJ3vbkD2ER6AKR-43" edge="1">
          <mxGeometry relative="1" as="geometry">
            <Array as="points">
              <mxPoint x="660" y="122" />
            </Array>
            <mxPoint x="660" y="186" as="sourcePoint" />
          </mxGeometry>
        </mxCell>
        <mxCell id="biuPvJfJ3vbkD2ER6AKR-22" style="edgeStyle=orthogonalEdgeStyle;rounded=0;orthogonalLoop=1;jettySize=auto;html=1;entryX=0.995;entryY=0.457;entryDx=0;entryDy=0;entryPerimeter=0;strokeColor=#808080;jumpStyle=arc;" parent="1" edge="1">
          <mxGeometry relative="1" as="geometry">
            <Array as="points">
              <mxPoint x="640" y="122" />
            </Array>
            <mxPoint x="640" y="186" as="sourcePoint" />
            <mxPoint x="588.8675324675326" y="121.87714285714264" as="targetPoint" />
          </mxGeometry>
        </mxCell>
        <mxCell id="biuPvJfJ3vbkD2ER6AKR-77" style="edgeStyle=orthogonalEdgeStyle;rounded=0;orthogonalLoop=1;jettySize=auto;html=1;strokeColor=#808080;fontColor=#000000;jumpStyle=arc;" parent="1" edge="1">
          <mxGeometry relative="1" as="geometry">
            <Array as="points">
              <mxPoint x="650" y="50" />
            </Array>
            <mxPoint x="650" y="186" as="sourcePoint" />
            <mxPoint x="348" y="50" as="targetPoint" />
          </mxGeometry>
        </mxCell>
        <mxCell id="biuPvJfJ3vbkD2ER6AKR-24" style="edgeStyle=orthogonalEdgeStyle;rounded=0;orthogonalLoop=1;jettySize=auto;html=1;strokeColor=#808080;exitX=0.479;exitY=0.957;exitDx=0;exitDy=0;exitPerimeter=0;" parent="1" source="tv60x9gzvXhbaiR4rFQU-4" target="tv60x9gzvXhbaiR4rFQU-9" edge="1">
          <mxGeometry relative="1" as="geometry">
            <mxPoint x="655" y="420" as="sourcePoint" />
            <mxPoint x="650" y="460" as="targetPoint" />
          </mxGeometry>
        </mxCell>
        <mxCell id="biuPvJfJ3vbkD2ER6AKR-70" style="edgeStyle=orthogonalEdgeStyle;rounded=0;orthogonalLoop=1;jettySize=auto;html=1;entryX=0.988;entryY=0.47;entryDx=0;entryDy=0;entryPerimeter=0;strokeColor=#808080;fontColor=#000000;jumpStyle=arc;exitX=0.042;exitY=0.667;exitDx=0;exitDy=0;exitPerimeter=0;" parent="1" source="tv60x9gzvXhbaiR4rFQU-2" target="biuPvJfJ3vbkD2ER6AKR-57" edge="1">
          <mxGeometry relative="1" as="geometry">
            <Array as="points">
              <mxPoint x="633" y="357" />
              <mxPoint x="510" y="357" />
              <mxPoint x="510" y="-44" />
            </Array>
            <mxPoint x="600" y="357" as="sourcePoint" />
          </mxGeometry>
        </mxCell>
        <mxCell id="biuPvJfJ3vbkD2ER6AKR-26" value="Write" style="edgeStyle=orthogonalEdgeStyle;rounded=0;orthogonalLoop=1;jettySize=auto;html=1;strokeColor=#808080;entryX=1;entryY=0.5;entryDx=0;entryDy=0;" parent="1" target="tv60x9gzvXhbaiR4rFQU-27" edge="1">
          <mxGeometry relative="1" as="geometry">
            <mxPoint x="628" y="511.8000000000002" as="sourcePoint" />
            <mxPoint x="660" y="630" as="targetPoint" />
          </mxGeometry>
        </mxCell>
        <mxCell id="biuPvJfJ3vbkD2ER6AKR-42" value="" style="group" parent="1" vertex="1" connectable="0">
          <mxGeometry x="720" y="102.5" width="57" height="48" as="geometry" />
        </mxCell>
        <mxCell id="biuPvJfJ3vbkD2ER6AKR-43" value="" style="verticalLabelPosition=bottom;html=1;verticalAlign=top;align=center;strokeColor=none;fillColor=#00BEF2;shape=mxgraph.azure.storage_queue;" parent="biuPvJfJ3vbkD2ER6AKR-42" vertex="1">
          <mxGeometry width="44.41558441558442" height="38.82352941176471" as="geometry" />
        </mxCell>
        <mxCell id="biuPvJfJ3vbkD2ER6AKR-44" value="" style="shape=image;verticalLabelPosition=bottom;labelBackgroundColor=#ffffff;verticalAlign=top;aspect=fixed;imageAspect=0;image=data:image/webp,UklGRrIDAABXRUJQVlA4TKYDAAAv/8A/EAaKbSRJkqRUdXevWKe/EP1ETpUj+57OmP+QRduWIUkRpbZt2+7+tG3b1p/t7rFt27Zt256yIuNNwH78rG6em3yhWHivMt972HqNBjTpUdUM1/lUkVR4q3I/e8w2zQd04WeONX4Sasp3RM0ZzmyLfSvUVOx89S+rPSLU9ZGu9Y5a7pQKZX1jwEWp722hst/1qKamF4XK/jP0kuR4WKjtS/Vq/YndJtT2q+ZXZJVQ3eW1zJYWa3dfkGp+LKdM50pHrk+F6jIGX49ZXd/xSkZLy7Wrr8cNE/hQViEXCPX9IudyfDKBCrULeWUCiXaXI3+C1rGQHyZowy5HxQx61Tmy/DqDkVHImsKoO6Tnx58ey0/35afb8tN1+ekSn84ffzotPx2Xnw7LT/vlp1182n78abP8tI5Pq48/LZefFvFpHt/ZPD7N4juaxafp8jubxKdJfBovP43iOxvFdzSMT8P4NFh+6sd31I9PveWn7vJTZ/mp/fGn1vI7asan5uqTLj+Z9adGepLlp/Ljby8/5fHtQrL9lklrWEct+TOYeIcMr6OfdAZb7pAL6zjeM3r0DsnXsorm/p1Chb43qD0qt8aZ5zFhTm+ocYPaLWeNCkcd9wqzelz9G9Q+MunIe5c6lvlWmNf3lqlzf7r94HanHXOy21nntvNduF3k0r1dubdrXNeud1O3W7Y7vOR/YW7/e80D7v9x3e58CzX+WW65YldqEV63v0xIr5WZkV7L1z299pSs9KSGpdcuiM+78fkvPuXx7a//vv77XxXyve1eN7j2xW72sE9VxKPMzcaoOaB3ijW22PPSZKTu0WFA7z9iI3yUi1Krf8UDKqm6q1NRbMKAqspyNBMZCwdUV5ZrI3HVgCqr6fNA/KNRqW2yNA9HB1RblrfjkNGp2LYpDh8fWdV0kKTh+gFV/zvL72nYX257LQ3b6nkyDZvrefTrv3+ds7WeJ9Kwp55X0nB1ObFf0vDeGVfTWpKGSm2qWSWk0XYXE3spD7+qXctwmTza2VKqekcIRKUJhcTOCom0/w0pc8S2STNp+aYWkeuojBBKS1ymcQV9vSBMeZO6/euMfmfWe1Qzxp3KhWi6ZfzkYZc67eSLnXWN5/0nTHujfuyv/77++x8i8vPy/zM+ysuHz7giL5c/Y2ReRjwj22tpbdnPbIOVZqXUoAE9b7UkKcke0CstVZiTQkv2a3VzvyQjiQd0G9Crz1gnu9zuBa+F226zUxfxgB4G;" parent="biuPvJfJ3vbkD2ER6AKR-42" vertex="1">
          <mxGeometry x="36.27272727272727" y="28.23529411764706" width="19.764705882352942" height="19.764705882352942" as="geometry" />
        </mxCell>
        <mxCell id="biuPvJfJ3vbkD2ER6AKR-45" style="edgeStyle=orthogonalEdgeStyle;rounded=0;orthogonalLoop=1;jettySize=auto;html=1;entryX=0.978;entryY=0.617;entryDx=0;entryDy=0;entryPerimeter=0;strokeColor=#808080;" parent="1" edge="1">
          <mxGeometry relative="1" as="geometry">
            <Array as="points">
              <mxPoint x="742" y="217" />
            </Array>
            <mxPoint x="742" y="170" as="sourcePoint" />
            <mxPoint x="678.9000000000001" y="216.8499999999999" as="targetPoint" />
          </mxGeometry>
        </mxCell>
        <mxCell id="biuPvJfJ3vbkD2ER6AKR-46" style="edgeStyle=orthogonalEdgeStyle;rounded=0;orthogonalLoop=1;jettySize=auto;html=1;entryX=0.975;entryY=0.617;entryDx=0;entryDy=0;entryPerimeter=0;strokeColor=#808080;" parent="1" source="biuPvJfJ3vbkD2ER6AKR-39" edge="1">
          <mxGeometry relative="1" as="geometry">
            <Array as="points">
              <mxPoint x="742" y="217" />
            </Array>
            <mxPoint x="678.75" y="216.8499999999999" as="targetPoint" />
          </mxGeometry>
        </mxCell>
        <mxCell id="biuPvJfJ3vbkD2ER6AKR-47" value="Receive / Publish" style="endArrow=classic;startArrow=classic;html=1;strokeColor=#808080;exitX=0.933;exitY=0.436;exitDx=0;exitDy=0;exitPerimeter=0;entryX=0;entryY=0.5;entryDx=0;entryDy=0;entryPerimeter=0;" parent="1" source="biuPvJfJ3vbkD2ER6AKR-17" target="biuPvJfJ3vbkD2ER6AKR-19" edge="1">
          <mxGeometry width="50" height="50" relative="1" as="geometry">
            <mxPoint x="370" y="210" as="sourcePoint" />
            <mxPoint x="420" y="160" as="targetPoint" />
          </mxGeometry>
        </mxCell>
        <mxCell id="biuPvJfJ3vbkD2ER6AKR-48" value="Receive / Publish" style="endArrow=classic;startArrow=classic;html=1;strokeColor=#808080;jumpStyle=arc;" parent="1" edge="1">
          <mxGeometry x="0.2632" y="-9" width="50" height="50" relative="1" as="geometry">
            <mxPoint x="440" y="211" as="sourcePoint" />
            <mxPoint x="630" y="211" as="targetPoint" />
            <mxPoint as="offset" />
          </mxGeometry>
        </mxCell>
        <mxCell id="biuPvJfJ3vbkD2ER6AKR-49" value="" style="endArrow=classic;startArrow=classic;html=1;strokeColor=#808080;" parent="1" edge="1">
          <mxGeometry width="50" height="50" relative="1" as="geometry">
            <mxPoint x="655" y="260" as="sourcePoint" />
            <mxPoint x="655" y="320" as="targetPoint" />
          </mxGeometry>
        </mxCell>
        <mxCell id="biuPvJfJ3vbkD2ER6AKR-60" value="" style="edgeStyle=orthogonalEdgeStyle;rounded=0;orthogonalLoop=1;jettySize=auto;html=1;strokeColor=#808080;entryX=0.5;entryY=1;entryDx=0;entryDy=0;" parent="1" source="biuPvJfJ3vbkD2ER6AKR-57" target="biuPvJfJ3vbkD2ER6AKR-66" edge="1">
          <mxGeometry relative="1" as="geometry">
            <mxPoint x="355" y="-153" as="targetPoint" />
            <Array as="points">
              <mxPoint x="421" y="-100" />
              <mxPoint x="355" y="-100" />
              <mxPoint x="355" y="-160" />
            </Array>
          </mxGeometry>
        </mxCell>
        <mxCell id="biuPvJfJ3vbkD2ER6AKR-64" style="edgeStyle=orthogonalEdgeStyle;rounded=0;orthogonalLoop=1;jettySize=auto;html=1;entryX=0.5;entryY=1;entryDx=0;entryDy=0;strokeColor=#808080;fontColor=#000000;" parent="1" source="biuPvJfJ3vbkD2ER6AKR-57" target="biuPvJfJ3vbkD2ER6AKR-68" edge="1">
          <mxGeometry relative="1" as="geometry">
            <mxPoint x="485" y="-153" as="targetPoint" />
            <Array as="points">
              <mxPoint x="421" y="-100" />
              <mxPoint x="485" y="-100" />
            </Array>
          </mxGeometry>
        </mxCell>
        <mxCell id="biuPvJfJ3vbkD2ER6AKR-59" value="Receive / Publish" style="endArrow=classic;startArrow=classic;html=1;entryX=0.463;entryY=0.968;entryDx=0;entryDy=0;entryPerimeter=0;exitX=0.5;exitY=0;exitDx=0;exitDy=0;exitPerimeter=0;strokeColor=#808080;jumpStyle=arc;" parent="1" source="biuPvJfJ3vbkD2ER6AKR-19" target="biuPvJfJ3vbkD2ER6AKR-57" edge="1">
          <mxGeometry width="50" height="50" relative="1" as="geometry">
            <mxPoint x="510" y="80" as="sourcePoint" />
            <mxPoint x="560" y="30" as="targetPoint" />
          </mxGeometry>
        </mxCell>
        <mxCell id="biuPvJfJ3vbkD2ER6AKR-66" value="" style="aspect=fixed;perimeter=ellipsePerimeter;html=1;align=center;shadow=0;dashed=0;spacingTop=3;image;image=img/lib/active_directory/database_server.svg;fontColor=#000000;" parent="1" vertex="1">
          <mxGeometry x="335" y="-210" width="41" height="50" as="geometry" />
        </mxCell>
        <mxCell id="biuPvJfJ3vbkD2ER6AKR-67" value="" style="aspect=fixed;perimeter=ellipsePerimeter;html=1;align=center;shadow=0;dashed=0;spacingTop=3;image;image=img/lib/active_directory/database_server.svg;fontColor=#000000;" parent="1" vertex="1">
          <mxGeometry x="400" y="-210" width="41" height="50" as="geometry" />
        </mxCell>
        <mxCell id="biuPvJfJ3vbkD2ER6AKR-68" value="" style="aspect=fixed;perimeter=ellipsePerimeter;html=1;align=center;shadow=0;dashed=0;spacingTop=3;image;image=img/lib/active_directory/database_server.svg;fontColor=#000000;" parent="1" vertex="1">
          <mxGeometry x="464.1" y="-210" width="41" height="50" as="geometry" />
        </mxCell>
        <mxCell id="biuPvJfJ3vbkD2ER6AKR-63" value="Read" style="edgeStyle=orthogonalEdgeStyle;rounded=0;orthogonalLoop=1;jettySize=auto;html=1;strokeColor=#808080;fontColor=#000000;entryX=0.518;entryY=0.977;entryDx=0;entryDy=0;entryPerimeter=0;" parent="1" source="biuPvJfJ3vbkD2ER6AKR-57" target="biuPvJfJ3vbkD2ER6AKR-67" edge="1">
          <mxGeometry relative="1" as="geometry">
            <mxPoint x="421" y="-153" as="targetPoint" />
          </mxGeometry>
        </mxCell>
        <mxCell id="biuPvJfJ3vbkD2ER6AKR-72" style="edgeStyle=orthogonalEdgeStyle;rounded=0;orthogonalLoop=1;jettySize=auto;html=1;entryX=1.01;entryY=0.489;entryDx=0;entryDy=0;entryPerimeter=0;strokeColor=#808080;fontColor=#000000;" parent="1" source="biuPvJfJ3vbkD2ER6AKR-57" edge="1">
          <mxGeometry relative="1" as="geometry">
            <mxPoint x="238.31460000000015" y="-42.927999999999884" as="targetPoint" />
          </mxGeometry>
        </mxCell>
        <mxCell id="biuPvJfJ3vbkD2ER6AKR-76" style="edgeStyle=orthogonalEdgeStyle;rounded=0;orthogonalLoop=1;jettySize=auto;html=1;strokeColor=#808080;fontColor=#000000;" parent="1" source="biuPvJfJ3vbkD2ER6AKR-57" edge="1">
          <mxGeometry relative="1" as="geometry">
            <mxPoint x="322.5999999999999" y="28.460000000000036" as="targetPoint" />
          </mxGeometry>
        </mxCell>
        <mxCell id="biuPvJfJ3vbkD2ER6AKR-57" value="Sync" style="aspect=fixed;html=1;perimeter=none;align=center;shadow=0;dashed=0;image;fontSize=12;image=img/lib/mscae/Virtual_Machine.svg;labelBackgroundColor=#ffffff;fillColor=#4D9900;part=1;" parent="1" vertex="1">
          <mxGeometry x="400" y="-61.50999999999999" width="41.45" height="38" as="geometry" />
        </mxCell>
        <mxCell id="tv60x9gzvXhbaiR4rFQU-1" value="" style="group" parent="1" vertex="1" connectable="0">
          <mxGeometry x="631" y="326.1374157303372" width="59.620000000000005" height="71.73033707865169" as="geometry" />
        </mxCell>
        <mxCell id="tv60x9gzvXhbaiR4rFQU-2" value="" style="aspect=fixed;html=1;points=[];align=center;image;fontSize=12;image=img/lib/mscae/Event_Hubs.svg;" parent="tv60x9gzvXhbaiR4rFQU-1" vertex="1">
          <mxGeometry width="48" height="50" as="geometry" />
        </mxCell>
        <mxCell id="tv60x9gzvXhbaiR4rFQU-3" value="" style="shape=image;verticalLabelPosition=bottom;labelBackgroundColor=default;verticalAlign=top;aspect=fixed;imageAspect=0;image=https://martendb.io/logo.png;" parent="tv60x9gzvXhbaiR4rFQU-1" vertex="1">
          <mxGeometry x="35.5" y="39.61258426966279" width="24.12" height="24.12" as="geometry" />
        </mxCell>
        <mxCell id="0sKgTk6SnIghlBHtb4Ml-1" value="" style="shape=image;verticalLabelPosition=bottom;labelBackgroundColor=default;verticalAlign=top;aspect=fixed;imageAspect=0;image=data:image/png,iVBORw0KGgoAAAANSUhEUgAAAgAAAAIACAYAAAD0eNT6AAAAAXNSR0IArs4c6QAAAARnQU1BAACxjwv8YQUAAAAJcEhZcwAADsMAAA7DAcdvqGQAAK8WSURBVHhe7Z0FmFRHs4YruCy2+OLu7u4SJCEQ4u7u/sfdE+LuQkJwd3d3WNxtsQUWWOz219ObS5IF5lSfmTlnpt771DPdE/LfsDtzurrkq4tIEARBCDV5lRVTVlRZPmN4L885LJeyNOKUZQ4s/yaTMvyZE8oOK0tVdkTZMWVHjWGd9t4eY0nKdpy13qVsvzIhBhEHQBAEwQ4c0BWUlVeGQ764siLKSijDgY/3cijzKnAi4BBsUrbuLFtvXncqE6IQcQAEQRAuTFZllZSlHfR4TTMc8tEMoghpTsEyZQuNbVQm+BhxAARBEP4JwvPVlNUzVlVZdWVwAoT/J1nZUmXzlS1XtkLZXGXHlQk+QBwAQRBiGYTqGytrpKyhslrK8isTeKQom6FsirJJyuYoE4fAo4gDIAixCQrNCirDYZdm2ZUBFKf9+9mQTRn++b+LztJe8ZDHwz+tCO2gsr3KvFRghkK6+spw2OPQh5VSJoQOfBZmK5usDA4B1nhP8ADiAEQnqA5GuDK33p2bA8rwQD+kd0K0EK+snDLkqtNeyyo7+7BHFXk4OK1snzE4BGlr2G5lW4xtM69wINwCf0eE8Nsoa62subKcyoTIAUdxqrIhxlB4KEQIcQC8DR5gqCSGFTZWQFkhZQhd4gaHfCVuZri14dDnPuDS2oaQ14NTAOcAD2y0Cv37FRXDaB/CA1uch8iB33kDZQhdI2edduDDAfAr+GxtNbbZ2Gplq5ShKh2fzfOBv38XZZ2VtVB2djud4D0WKRuqDM4AagnOKBPChDgAkSeDMtzOappXGB5ieEV48t/9v14DjgIe1vDkz35wo0I4UZm0ELkDnLvaynDYpx36FZXF0ncYhz+cADgDcArSHAO02OHQh6FSX/AniALBGRigbIKyU8qEECIOQHjB7RxFRjjs8TDHaw1l6COOVhBRWKMMzkCaYY+HN/6ZkD5wDBG+xk0Whtx1FmWCEAvAGfhV2U/K0GEghABxAEILcvC4qbVXhvwjHuLSSvT/QJEsrX0orZUI5mYe2E8gN99WGT4v3ZQlKBOEWAfPBzgCPyhD6lFwCXEA3AWhSDy8L1bWUlkVZfIzdgaqyuEEzDOGvmKIj1wo9+tXkLe/Sll3ZXAQcfMXBOG/4BkwUtl3yoYpkxSBJXI42VNaWVdluLGh0hjtUoK7ICKwWBkcglnK0GOMOgO/AmnYq5Xh4EeYXxAEZ6AW5BNlcAbQciowEAeABw79a5VdqQw5fCH8oOgQjgBaimAoBvMyKOaEk3irMuT0MyoTBE3evHkpPj6eMmfOTHFxcZQjRw7KmjUr5cmThzJk+GdQ6KKLLtJ/PjU1lY4cOfL36/HjxyklJeXv12PHjtGBAwf0OopBFxJSAx8pW4s3hOARByB40FrVW9l1ypopk5+dt0BucJoyOANwDJYo80KIELf9u5XdpgxtnEIMgIO8RIkSlJCQQEWLFv3bsC9UqBDly5dPH/gwrP99yLsJHICkpCTauXMn7dmzR6/T9rt376b169dr2759u/k3fAn0JoYr66NsPN4QLowcYucHP592yvAAx+1NqrD9AzoM4BBAgWy0MqQQwklTZQ8o66nM662cAoPs2bNTuXLlqHz58vr1bCtVqhRlyhQurSV3OHr06N/OwLp16/Tr2rVraenSpbR1K7p7fQMKil9UhjoB4TyIA5A+EA9BjvZ+ZRgCIvgfqM7BGcBDAb3GoZKoRbfHk8rgMApRQK5cuahmzZpUu3ZtqlWrFlWqVEkf+rjNxwqIGCxatOgftnr1ajp58qT5E54ETv9ryv5SJgJD6SAOwD9BRTZubTcqu5CMruBfkBpAMSEqikcpw2hThBC54HvUQ9lzyurgDcGfFCtW7O+DHq916tShsmXLhjRE71dQY7BkyRKaNm0aTZ48Wb/u2weFZ88xU9kLysbqnfA34gAEgKLas8quUSbFWbEHogNIEyA6MEIZht0ECwr6XlGGFj7BR2TJkoXq169PTZs2pebNm1OTJk10fl7gcfr0aVq+fLl2BqZMmUJTp07VdQYeAinB55VN1Dsh5h0AyIbi4Ee4Xw5+AaDlcIyygcqgT36uKw3keN9TBr15z3N2IVrBggX1a+HChalAgQKUM2dOXXmOinNUnyO3nQaqzVF1Ds6cOaOrysHBgwf1A//w4cPa8P7ZhmIzFJht27ZNv8Lw5yMJiu2aNWv2tzVo0ICyZZOu3VACh2DYsGE0ZMgQmjVrVsQ/A4bByh5Vtk7vYphYdQCgsY/cEPqwfXPw48aCh3bx4sX1TQWvyE/iIY2HN9Zpljv3/2cwMmbM+I89Qnco+AH4QuJhfurUKUpOTtbrtIc6LK1qOO0VHv2hQzEz/wcJTowwhTMwSBnKpFHV/7qy65V56vuDQxy56ho1avynMA2HfCTB5wufnQ0bNmjbuHGjNhSbrVixQn++3Aafe4Tx27dvr61169a+K8yLJvbu3UsTJkzQDsGgQYP08yaCYCohHHh8lzHOOiaJNQcAT8GnlMH7+/9rjodADhIP7woVKvzjNe3m5gXQZ4yWIdzuNm3apF9RJbx582b9cMdDHX3JUQauLhAiwtS9iI+UxYHeuHFjatSokT7kYDjo/ZqrRu541apVtHLlSl11vnDhQlq8eLF2SJ2A78gll1xCnTp10oc+bv2C98AlBM7AH3/8QQMGDNCXjQiBmQMo2v1NWcwVCsaKA4C/5+XK3lGG23/EwU2kSpUqVLdu3b8ND3Hc4qIB3PbQQgRbs2aNDgUuW7ZMOwgeCQP6CkR5WrVqRS1bttT5anxeov02i5QDWtEWLFhAs2fP1iHk+fPn68PjbPLnz09du3al3r1764MfPfiCf8Dvc+jQofTzzz/TyJEjI9VZAMlxFICjODhmiAUHAFP3vlDWSO8iBMLyeHAjDImHOA77WMw/IjKAkC+qh+EQwHDj27VLZnz8m+rVq1OXLl20IWct4WvSqndwCGbMmEH79+/XP5cOHTrocL/gfxBZ/PXXX7UzgOdCmMHNBIqC/1MW1fKJaUSzA4BrwCPKXlYWdgEf5Otx2Ldt21a/1qtXTx7g5wH1BXAKYHPmzKGZM2fqHHGsgar0a665hnr27KnFZAQhVsFz4KOPPqJ+/fppxy+MbFAGye6o7xaIVgcAc/a/V1ZX78IEKqjbtWunQ5Hdu3fXYVuBD6rJ582bR9OnT9ehX/QZ49YXbVSsWFEf+ldffbVeC4Lw/+zYsYO++OIL+vLLL8MZKUQ9wNfKUC8WsQKFUBNtDgBu+hB8eEJZWK7bKMbq1auXPvRRdCRtRaEDleRIHyAXjAjBpEmTdE2BH0GE6NJLL6U77rhDO41prXaCIKQPio/79u2rowJIA4UJtAreogzzRaKOaHrqIF76h7Kw5PoR0r/hhhvouuuu0wM9hMiA2wEiA+PGjaPRo0frrgQvU7p0abrzzjvplltuEdEZwRHJKehcUzebjBkoR9bYLnScOHEivfTSS1p0KAygNuBTZegWCPRPRwnR4gBgYA/aOEL6REW18U033aQf3lWrVjXvCl4iMTFRtxfhAYEIAQRovAAK+p544gkd5pdakNgj9cQp2rEvmfYdOkr7D6VQ0sEUOnAY66PqYD9GR46l0pGjytTrYZg57I+dOKn/3QuRI1sWypo5o3IMslDObJkpS+ZM6r3Mep87R1YqkCcnxefKQfG5s+t1vlzqNXdOyqX+mZ/B9/yFF17QqoNhYKUyTIRdrndRgN8dAJT+Qn8dFrIGaBRj3X333XTXXXdpwR3BPyBlgBYjRAjgEIS7xQha8g8//DBde+21oicfxeCQ3rb3IO3Ye0hZMm1Xlrbese+QOvC9qYuRVTkKJQrloRIF8+rX4vo1r3rNQ4XzxVEGn6Smxo8fTy+++KKOBoYY1APcqQwXTt/jZwcAqji/KuugdyEAimqPP/44XXXVVdJbHAWkKZHBGYA0aSh1yqHI98Ybb+gWPiF6wEG/fsdeZfto7ba9tHZ7Eq3fvo92qkM+2siSOSOVL1aAKpcoSJVLFtKv2ON9r4Lv9jPPPENz56KtP6T8rOwuZb5uF/SrA4CJaxjcEpJ5nDj40x7eUpwVnaCgEIWEgwcP1kpkEJxxgxIlStCzzz5Lt956q/Sm+5xDKcdp6fqdtHzTLlqzNUkf9lv3YAZC7E6WzZghA5UtGk+VShakOuUTqG7FYjp64CUgNPbTTz9pRwA1QiFkkbIrlK3ROx/ix9OtvbL+ylwf14v53sgnycM79kCqAP3GSBeg5dAp6AZ57rnn6MEHH5ROkCjhWOpJGj5rJf02fhFt2hV97adukT93DqpToRjVLpdAtcoXpcolCqmLk/mHEQSiY++++y69+eab/1GPdBEMNLhNWT+98xl+cwB6KftFmatPWKj0IdT/yCOPRHxoihB5UEjYv39/3XIEYaILAe15tCb5RbgHN9j9pgBtb/IROnA4UISWogyH3tHUE3T4aKqW4j0bRMPisgc0tXLnCHwFsUchWVz2rPo1l3rNG5dNmSdHbbA4rX4OM5Ztol/GLaB5q7ead4VzUThfLmpRszS1qlWW6lUsTlkyRfYyBTnyRx99VKf9QgS+KG8re9qsfYOfHIAHlb2vzNVKKlRlf/DBB3rKnh/BA1tXEys7dOQ4nTx1mlKOp1LqyVOBh/nxE/q9f5M9a2bdToQHOAp98EDPkAGv6iGeM5t+zZkt7AKKngMzDOAI/P7773rI0dmULFlSH/zo5/cayFWv27GXNuzYp8PW2pIO0vakZH3o/+tsd53M6qGPSvNCeeN09XlCgVyUkD8PFSuQW61zU/ECefRn0G8sWLONPh88kxauxWBI4UKgO6FptVLaGWhWvbR+rkSKMWPG6GJut9J96YAowI3KfNMq6AcHAP+NbyqDuI9rINz/+eef69ubV8GNbKt6YP9/VXGgsnjXgcO0LznQRoRDPlTAIQjc6LLrMF/BvDn1a4E8ccrUQz2/epAXzKPbimIBDKRBbhHOAKR64TgiehRp4Oyt3LSbFq/bQas276a125Jo064DdMrDQ5fgdMIRqFCsAJUrlp/KJ+SnCsUL6HwyPndeZ/bKzfT5kFm0bEPoCkmjDdQPNKpSgro2rkKta5fVHQjhBmmBp59+mj799NNQDSXDMCHcCLzRf3wBvP5Nw38fBBju1jsXQBjz5ptvpvfee88zUr0IMW7cuV8/uHVlMV6379UHfqhvam6QLUsm7QighUi/qttdYJ+HiubPpb/40QQeHJFs6UNEZ5G6geIQwiuK1ILpFfcDqDAvV1Q5BMopqFa6CNWtkEBl1N4LOeX0mLp0A32hHIHVW/aYd4RgQOSxfb0K1E05A7XKJYT99wvdAOi5ID0QAhBi6KYMugGexusOAPIqjweW9qBC+9tvv9XTwyIJbu0rNu6iReu2a1uibm7IuUYjOPwRKcDtDlYRr+rWh9ufEDx7k1No6pINNGP5Rpq1couODsUKiECh4hyFZnAIKhYv6KkoAZz0iYvW0ieDZtDmXQfMu0Kw4KIAR6Bni+oUnzuHeTf0pKSk6I6dPn36hCIagL7QK5WN1DuP4mUH4FVlGMvoCh07dqRffvmFChaEfED4Qd/wNHVbmLZsoz7w08vLxxK4AeBBjr5iOAUwhIIjERb0KpB+nbhwLY2em0jzErfq4j0h8NmprRwCFJght1yykDcieSdOnqLfJyymb0bMiSkHzS1QLNixQUW6pm1tqlgifM9pjJa+8cYbQxENOKEMcwRQuO5JvOoAYIzve4GlHQjVoj3r+eefD2vYFmH9+YnbaNKiderg30jbkg6afyKcC0QLECWoWbaosiJUs1xRHT2IJfC5QWh/4NRlNFV9bnCoCOcHfelwBGBVSxeOuHodVP8QDUALoR9SeF4EDt5VbWpRmzrlwpJCPHTokB7MhYJfl8En4AFln+idx/CiA3C/so8CSzug3Y9bf+fOnc07oWfDzn00dt4aGqa+/Ki4FuxA0WE19VCHEllan3E0RgmgET9k+nIaOG25OIsWoCC1Zc0y1LpWOapfObItaEs37KR3/pis030Cj2IF8tAtF9enbk2qhMUR+Oyzz3Q7OCYPugicgMeUoYvNU3jNAUDO5Hdl1v9d0GAfNGiQbtUKNQj3DZ25UhuqsIXQgQd69TJFqH6l4tSwcgm9RjujX4GT+PPYBTRkxgo6fiK8cwqiHbScdWpQibo3rUpVS0Vm8iIiOsPUc+GjAdN1147Ao2h8Lrr54gZ0abOqIXcEFi5cSFdccUUoUgJIab8eWHoDLzkAkPfFJAfrKpC2bdvSwIEDKXfu0IaPd+8/TH0nLla3tmVaNlQIPxiLWrtCAjWsVIIaKIcAKQQ/DDBZv30vfTdqno4WebldL1ool5CfLlGOwMWNKlN8rvCLFCHC83bfSTRuvm9VYz0Biodv6lSfejSrFtJC0BCmBN5S9lRgGXm88qQsomyOshJ6ZwE8N/RqZ80aOsGJxK1J9Iu6tY2ZlxjzxXxeAxXjDSoV16IjTZVF4mF/PjA05suhs2j47FVS1BcBEC3CZwPOQIsaZcLeTTBh4Vp68/dJWsdD4FNWOXSPXN6CGlcNbYQX7eJPPvmknh3iIn2UPaws4g8ALzgAOKknKGuqdxbce++9WpktVMV+eHh/N3IuDZq+XB7ePgCRgEolClLDKiWoZc2yVKNskYhFBxAhQnV4v8lLoqZn3++gwPSqtrXVbbKqVqwLFwePHKP3/pxCI5QTKNiBeo9Hr2ipawVCxahRo+jKK6+k5GRXa7o+VobiwIjiBQfgO2U3B5Z8XnnlFd3TGQqQu/t2xFz6a8pSqcr2MSgQw+0P1eKNq5QMy1hTVIGPnLOKPuw/TW59HgVthehBv7JNLa1jHy4gIvT6LxNoz8Ej5h2BA2SnL29Zg+6+pHHIHDnMBOnevTtt3rzZvOMKLyt7IbCMDJF2AKDv/2FgyQcT/F588UWzcw/c8n8bv5C+Hj5HD0sRogc8KJorZ6BTg4rUQt0iQhEZgPbDm79PpAWJ28w7gpdBeqBDvQp0bfs6uuskHCAa8PJP42jy4pDp08cMhfLF0cOXt9C/w1Cwfft2Pfdj3rx55h1XeEgZUgIRIZJjmmor+1OZ1X/Dww8/rGf3uw0keR/+fKiu7Jdbf/SB32myevheox72GFbjJnAcfxw9n/737Sg9hEfwB6jYx/d+wNRltHzjLipTJF/I51xARrtj/YqUL1c2mrt6K52S1CIbXNLGL1hLKzbt0iJRbg8zw9yPG264QQ8FW7ZsmXnXmk7KNipbrHdhJlIOAGaJjlJWVO+YQL0JfZvQ93cLFPWhLetZ9fBGzl+ITlAs+MXDl1HZovnNO+6Az8yjnw+jwTNWyMPcx2zZfUB396CtF7MIoEcRKvD4wtyDNnXK08K123THgMBns/rdDZ+1iorE59LdH26SKVMmPQhs3759NGcO6tatweGFuQFLlYW9KCRSDsA7yqzG8KEo48cff3S14A+tWff0GUSj5q6Wh3cUg5vBpw9e5rrcKLpC7lWfny1y648aMFURjsDWPclUqXhByhXCcbYYn4xJeZj7IMOF7MC8FUQDMCUTmiFu1gbgwtmlSxc6c+YMTZ482bxrBQ6xHspmKtuAN8JFJByA9sow4Y99bW/Tpg0NGDBAe2NuMWrOanpE3dx2Hzhs3hGiEYRc+9x3iZYbdgtEjV7/bQJ9OmimtIVGISjkXLM1SXdwJCUf0bf17Fkzm3/qLihoQ5FqiUJ5aebyTfJ5skRHA2avotJF4qlU4XzmXXfAOZQxY0aaOHGieccKHGY9lY1WtgNvhINwOwDxyvAXZCv0lCpVisaMGePaHHbkgtGS8/HAGfJli3JQ5PXuXd10W6BbbNlzgO79cCBNX7bJvCNEK6gRWKFulIOnL9cOAAoFQ9VWiomZKFKdoZyAaJ0UGi4QDUB0Dq24UA91U/uhVatWesDcyJGuDP1DeKmrMqgPheUmGm4HAC1/7H7/7Nmz0+jRo6l8+fLmHTswtOP+jwfTxEXrzDtCNPPk1a111b9bLF63g+75cBBtk5kPMcXxE6e0wwdVP9wqMc42FOTPk1OnBFCHIJ8xe5Zt2EkzV2yixlVLUa7s7qVyGjZsSAkJCTR8+HCdFrAEl+PmyjBBMOTa4OF0ADCEHzKIbL766iude3EDaLDf9cFAWrstybwjRDPXd6irtcTdAjeKx78cLu2hMcyBw8e0mA8O6FrlEijOxUMlDaSsOjespCOVcDgFO/YcOEKj56zW9T9uOm716tWjMmXK0JAhQ9xwAoorK6NsoN6FkHA5AEiYDVbGrrrChCZIMroBWn3u+mAA7ZAq/5gAKoDP3dDOtW6Rr4bN1lPeTp2SQlEhUCg4aBrSAln0OGI3u5IA0gyNqpTUVe2oC5ACZTuOpp7UNV/4PdWpUEy9mn9gSa1atXQ6YMSIEeYdK2oqw4AZzMcJGeFyADDf/5rA0jkIsfz++++uVPzPW71VV2ofOHLMvCNEM/D0P7zvElfGwsKxf+ePSfTTmAXmHUEIcOLUaZ2vx/OlToUEypMTnc7uAllr9LdPWrxeJkdaAhdqXuJWPb4dQmBuTRRt0KCBLk53qTCwjTLoA6zWuxAQDgcgQVk/Zaz4GPL+0GIuVMhemWv2ys300CdDdFGIEP1gHOznD1/mSg83xH1e/WW8FokRhHMBHQhEA3CgoNPE7WgAogBt65ajGcs2UXKKXGJsgVonnDZECd3q7GjZsiWlpKTQjBkzzDts8OGBRsBwZbvwhtuEwwH4XFn9wNI5mMbUtSsKI+2AsteDOPzFc44J8Nx94/YuVKMMBk3agXG9z38/Roa3CEGBz8ucVVtCFg3A/177euXVDXabLmQW7Ni1/7AuBEdxIATC3KB9+/a0bds2WrDAOloIAQOoBf6ozPWZ86F2AFooe18Zyw3GXP9PPvnE2ovWAj8fDpR2mhjixk716IrWSKPZgdavl34cp3OGguAERAPQMohDpUopd2cLQNimc4OKtGrzHpGbdoHklOM0em4i1SxXlIrG27eY48zCxRWSwStXrjTvsoGAQWll/fXORULtAKCfkdV0nTt3bh36z5fPTrxh1/5Dutof6lpCbFC3QjF66aYOrvRoo9gP458FgQO0RTD1b8OOfdSkWilXalHSgGgQ5gjgGZe4VbqZbEFdxei5q7W+Q8lCec27fFCz1qNHD5o0aZIbUwSrK4PYyCK9c4lQOgAdlT0dWDqnT58+1K5dO7PjkXIsle54bwBtTRIPOVbInTMbff5QT1dasj4bPJN+GbfQ7ASBD3LN0A2oWS6BCuZ1b8AQRG1a1SpHB48c1WlOwQ50WEBCuGzReCqjzBYUBGKCYP/+/Wn//v3mXTatlP2gzLW8TygdgJ+VsW7/tWvXpi+++MKq6h8V28//MIYWrJFRrLHECze2d0Xm97fxi7QDIAhugTDzsFkrKUfWLFS9TBHX2s/wv9Osemk6lnpCtAJcAAW/4xeupaLxuV2ZF5IjRw5dE/Drr7/S8eNWaXwUKBRT5loqIFQOgNXtv2/fvlpUwQZM9Pt9gqvREsHjQOXvjm6NzI4PQraY0W6v5yEI/wSHC9ToErfuoeY1SruaEoBWAJifKJceW/Ddn7JkAxXKF6dTArZAHwA6ATjbLIWCaijDBCKMELYmVA4A+/aPKX+PPfaY2fGYn7iVXvxhrO0PWvARBfPkpA/vvYSyZrEbEIVQLVpFIfcqCKFi0679NEHdMnFou1V5DqATkC1LZt3yLNiB0wOXgfhcObTAky0VKlSgLFmy0Pjx4807bKoq+zawtCMUDgD79o+e/0GDBlHevPwCjP2HjtJdHw7U+X8hNkAI9M07ulD5YgXMOzwwh/2u9wdIwagQFg4eOUaj5iaqG6a7srS1yhWluOxZaOYKcQLcYPryjVp/AUJMtjRv3pzWrVtHS5YsMe+wQBoAlckr9M6CUDgA6FcMxKIc8vTTT9Nll11mdjxe+Xm8HvogxA5dGlWmGzrWMzse6N1++NOhUk0thJVA5Xki5cyWhWqUtdesSKNG2aK6S2Duqi3mHcGG6cs2UiXlqLkxUhjzbDA4aOdOq3OqsrIvAks+bjsAdZS9Flg6Iz4+nvr160dZs/KrtycvXk+fD5HCrVgCoigf3NPdWsULBX8jpddfiABIVaIuALoBKOZza1xtnfIJug1x4drt5h2BC/RAJi1ar4WdiuZnT7PXoDMAY4S///57OnHihHnXMchJzFOWqHdM3HYAcPjDCXAMBv107IjsAQ+E0zDa9+hx9g9U8CFPXdNGhzxtgKzqW79P0jk/QYgUq7fsocXrtlObOuVcKw5sULmEdAe4BKKEUAxsWq2UHtVsA4oC4+LitNaNBYi0fx9Y8nDTAUDTJP5jHF/FIPqDYT+oAeDyys/jJPQfY0Dw59HeLa3aqXbvP0z3wXFUD0lBiDTb9ybTtKUbqGWtsjot4AYNK5ek/YdTaMWm3eYdgUvqyVM0cfF6al27rLXEMwYHoeZt1y62fgMcAIwMZv8PuDMCKcBNylgn+H333Wel+LcgcZvOowmxQ8YMGejpa9tYHf4I6z37/Wg6cPioeUcQIg/Gld/+bn/avPuAeccOfEeeuKo1dahXwbwj2LAvOUXXC9lKy2fMmJE+/vhjs2Nzp3ll4VYEAI4Eiv8cSydBJAG3/5w5eSEVPMSf+noE7ZGhGDFF71Y1qVvjKmbH4/cJi2W6n+BJDqUcpzHzEnVbX6G8ceZdPtCmR1Rh0dodtGNvsnlX4HLg8DFatWW31h6xkRwvVaoUzZo1S3cGMKmo7CNlrBCmWxEAJO/LB5bOuPPOO61G/WJIi4S2YguM+b2jW0Oz44E+7E8HWY/rFISQoVuaPxhAc1dvNe/YgbqC9+/pRhWL27XLCgFmrdhMHw2YbnZ8XnjhBbNigf5R9rhctyIA7ypDW4IjIPULeURu+B8tNI9/MVym/MUY913WjBpUYulMaXTL32fD5CYkeB5U8Y9fsIaqly5CxVzQCoATgNn3ExasleemCyxdv5MKW6oFlihRgiZMmGAzMAjn+J+BpTPciAAg7H9xYOkMVP3bSP5Crx2tM0LsULJwXh3+t6HvhMVSMCr4hmOpJ5XDOlS3CroBhhH1ue8SypXDfmCWQPTGbxO1+qwNd999t1mx6KKMNcPYDQegpzJWuSrC/1zwpfhVJrXFHHdf0oQyZeR/bDE69cuhs8xOEPwBop2PfDaMJi1i54r/QdmE/PTm7RfrYlrBDkRp/vftaEo+csy845yePXvq1kAmaEfoEFg6w43f/lXm1RFFihShrl3ZqQsaOG2ZVG/HGMhdtqvLKjX5m3f/mEIpohUh+JATJ0/R09+M0vr0boA5BA9d3tzsBBuSDh6h9/+aanbOgQDe1VdfbXYsWFF4WwcAiY/WgaUzbrvtNsqcmafeBo/rN7n9xxx3qdu/TcXtjOWbtJCHIPgVOAFPfDnCtXTA1W1rU88W1c1OsGHYzJU0ZyVfevnyyy83KxZwABw/HG0dgN7KHBcSovjv1ltvNTvnjJ67mnZI7j+mwPz0ljX59SIQ8IDanyD4HTgBTyonYMl6d9T9Hr+ylRbVEuz5evhss3JOs2bNKCEhwewcg19gpcAyeGwdgCvMqyPatm1LpUuXNjtnYMLvT2MWmJ0QK9zVvbFZ8fhz4mLalnTQ7ATB3yCNhbHViVv2mHf4YGjQW3d0oQRLjXuB9NwFruwyLsYXX8yK5KfRyrwGjY0DAFeFlUDq3RuBAx6otly3fa/ZCbFAlZKFqHFV1oBJDeZEfDdyrtkJQnSQnHKc7vtoEG3eZa8YmC9Xdj1S260ZBLHMr+P4F1SbeTiKFuY1aGwcgEuVOf73IX/Yo0cPs3POkBnWI5AFn3FT5/pmxeOb4XP0w1IQoo19h47SfR8P0vK0tlQtVYgevaKl2Qlcpi3dyNZYaNeunY4EMHEcJrVxAFiuSuvWrdnKf/ihTli41uyEWKBkobzUpnY5s3MOwv5/TVlqdoIQfWxPSqaHPhvqyiTUXi1rUJdGjjXdhLNAvdGUJevNzhn58+enihWh7suirDJHegBcByCTsjaBpTNsKh1R/If+fyF2uKFjPav56N+OmKuLpgQhmlmxcRc99fVIrXJpy/+ua0sVS7B70gXFuPn8i2rdunXNyjF4UFYLLIOD6wA0UuZYlxKhjUsvReaAh4T/Y4v43DmoS2P+bWTLngM0fNYqsxOE6Gb6so30dt/JZscna+ZM9MZtnSmHS+OIY5G5q7fodnUOderUMSsWjmRSuQ4AS3WoRYsWVLRoUbNzxvod+2i58nKF2OHyljWsipK+GT7XlRuRIPiF/lOW0p+TFpsdn1KF8+n2QIEH0jHcDg2LCACoYV6DgusAsPL/XbpAspjH+AWS+48l0JpkI1CCWeoj58jtX4g93u83lRas2WZ2fLo3qUId67Pz0THPonXbzcoZcAAwvplJyCMAeZU1CCydgQpHLm5pYAv+oEO9ClQgT06zc87PYxbQ6dNnzE4QYgeEnp/6aoSee2HL09e0oaLxrDkzMc+itTwHIG/evDZD8kIeAWirDEWAjsBfqnbt2mbnDKj+JW61F7wQ/MMVrfkT/9ASNXz2SrMThNgD7YGPfzmCUk/YFcBiYuBLN3e0KsSNVRK3JpmVc6pWrWpWjsFs/aDn63McAJb4D9T/oAHAAbd/KAAKsUGlEgW19C+XvhMXWz/4BMHvoDPgjd8mmB0fyATf1MlOiyMW2b43mf0cKlGihFmxCFrXmeMAoAPAMXbhf15PpeBPejR31MnyD1B8g0IoQRCIhs5cSX9OWmJ2fO7s3kgrcgrBgxQkOpE4FCtmNZuhuHm9IE4dAIT+WT0KiABwOJRynJ1LEfwHWpA6NXA80+Jv8MCD9K8gCAHe7zeFFiTaFQVmzJCBnruhPWXKyLkzxi6bdu03K2d4NQKAAoPsgWXwwJupXJnXz43hCtLKFTtg3n/uHFnNzjmi+icI/wRFgU9/M1LXBdhQsXgButlSljvW2Lon2aycUbx40Jf49AhZBIAV/m/atKlZOQfDf4TYoUczfvgfn5X1MihKEP7D3uQUevmnsda1VLdc3EA7AkJw7DvEm9Hg1QgAq/2vXr16ZuUc29CV4B8K5Yuj2hXY87BdyXUKQrSCITX9JtuJBEGf44UbO0gqIEj2HjxiVs7wagSgoXl1RP36vLARhv+slva/mKF93fKUgSmAkaS+aFIsKgjn58P+06zHqaNL55p2VnK1MQMiLxyyZ89OWbOyU6EhaQOMU1YlsAweKBpxIwAL124TMZcYwkZ1DJr/UisiCOcHbWlPfzOKjp+wG6p2R7dGlFAgt9kJ54LrAIC4OBy5LIL+F504ACgAdNzIX65cOS0CxGHhGqn+jxWKxOeiaqX5vf/DZorwjyAEA+pkPh443ex4ZMuSiZ66ijUQNqY4cizVrJyTMydbCTVo6UYnDgCrN6tBA1bZgGblJhn+Eyvg9s+Vv16yfgdt2LnP7ARBuBB/TFxMU5duMDseTauXorZ1ypmdkB424+u9FgFg9fHZFACutpBSFPxF+3oVzMo5cvsXBGegG+CVn8fTgcN2rYGPXdlKxgafh2OpJ8zKORYRgKD/xZBHAGrW5Gm679x3iJJF0CUmKFYgD1tlDD3O42RSpCA4BjMzPvhrmtnxKJQ3jm69mB/ljXZQa8FtvbSIAGRTljmwPD8hjwBUrMgr7Fq1ebdZCdFOpwb88P/c1VvEURQEJsNnraSZKzaZHY9r2tWmkoV5dV7RDg5/bhTAIgIAgvqXg3UAIAFcNrAMHrQxcAUNVm+R9r9YwSb8P15u/4Jgxeu/TKCU4/xQNbQBHurVwuyEf3OGGQLIkMHJ/fw/IApwQYL9/4DD33Gip0KFCuy/xOotkv+PBdBKxFUWQ9vf5MXS+y8INmDc+hdDZpodj5Y1y1CTqqXMTvgHzPDmqVOhn2ga7OnMCv/DAeCyYYdUdccCNg+N+YnbaL+lvrkgCIER2ss32nVdPXJFCz00SPgnzOwmnbbTNQnqXw72t8VK5HPz/xD/2bGPN0RB8BdNq/EdAAn/C4I74Jn7ys/jdFEtlzJF4unSZlXNTkgDYngcLCMAQeUdgnUAWIl8bgQAh7/NB1HwB9ATb1CJp3mNB9bERevMThAEW9Zu20u/jF1gdjygEJg9a1AF6DEDt8DZMgLgqgMQ9HShs+E6ANuYIxQFf1GrXAK7hxgy0WhjEgTBPb4bOZf2HOANsAEF8uTUXQHC/8ONAHgpBVDUvDqiVCleeHdr0kGzEqKZJlVLmpVzJiyU278guA26AT4ZNMPseNzQsR7ly5Xd7GIb1ERkyeRYQV9j6QAERcgiAPB6ChcubHbO2LrngFkJ0UwTi/y/be+yIAjpM2L2Slq2YafZOSdntix0c2feBNhoI0c2fjokJcUqwulaBADxC8cRAAwAypYtqFbE/7B1j0QAop38uXNQxeIFzc4ZaFvavEucREEIBWhbf+v3SXSaK2GnuLxlTa0SGOvY1EMkJ1ulwoPyHoJxANCk7ThRm5CQYFbO2bX/sFkJ0UrjqqXYxTGz5PYvCCFl5ebdNGrOarNzTpbMGen6jnXNLnbJERkHACMIgxpDGIwDwCoALFqUVTagsZmhLPiDRlV4CpFgzsotZiUIQqj4eMB0K4XAXi1qUME8VnK2vsfGATh06JBZOSbofzFkDkCRIvzZ7vsOiQMQ7dQux4sQISw5Z5U4AIIQavYcPEK/jltods5BFOCmGK8F4HY5oQDwyBF2N4arDgCrko8bATh8NJVST4ReAlGIHLgVQAKYw6pNu+mgDP8RhLDw67gFVsO2ejSvRnnjYrcjID5XDrNyxuHDh226AFx1APKZV0dwIwBy+49+apXn14fMWrnZrARBCDW4kP1kIQ6UNXMm6t2qhtnFHlznx7IA0FUHIJd5dUT+/PnNyhmS/49+apblp4dmS/5fEMLKHxMXWz2Xe7eupR2BWCRvHK8Tbv/+/WbFIugq+mAcAFasNi6O1wIi6m7RT42yvPRQ6slTtHT9DrMTBCEcHD1+gr4fNdfsnBOfKztd3KiS2cUW3BTAjh1Wz7mg++hD5gDkysUKHEh+N8rBTaByCV7/P/L/cAIEQQgv/acso+17+WHp6zvUpQzcvl8fw1VE3LmTL8SkCHqso+ccgGOp/LYTwftUKVWIMjOlMZdttPpSCILA5IRyvH8YNc/snFOqcD4r5U+/ko9ZA7B7926zYuGqA8A6ybkOwNHjJ81KiEZqWxQALlkvDoAgRIphM1dS0kH+oKDrOsSeMFDheF4q3DICELT34LkIwFGJAEQ11Uvz5kOApeIACELEQPqt78TFZuccjP6uxEz/+RFkPAoy5ZBjNgWQckwcgGimIvMBsPvAYdq1n62MJQiCC/w1eQkdORaUymy6XNU2dkYFowCQOwnQ9xEAbheA1ABEL7lyZKWi8ayPk9z+BcEDQBcABYFc2tctz1bH8xuF8/GHIXnJAchqXoMmU6ZMlCUL75eMlhMhOqlQvIAOi3FYajGeVBAE94A6IFetFdPx4ATEAkXieVFwsGmT1cCzoB+WwTgAwfyZf5AxIy/sAY6lShFgtFKhGAZL8rCZTy4IgntAFGjs/ESzc063JlXMKropnI/nACQlJWkpYCbQAAi6UjOYw93xaZ4hg2Of4W9OnWHrHwseh1sAhLHka7YmmZ0gCJGm3+SlZuWcOuWLUYmCec0ueilWII9ZOWPDhg1mxWKjeQ2KkEQAbBwAOf+jF6QAOOzYm2xVeCQIgrsgIrdiE69XHWnAro0rm130UqIQzwHYuNHRGf5vHOUOPBcBOKP+T4g+MmS4iMoWjTc7Z6zZJrd/QfAa/afwowCXNK2qnwnRTIlCvCiHZf7f5xEAOf+jktKF87EHgqzdttesBEHwCqPnrqbklONm54xC+eKofqXiZhd9ZFRnYEJ+XseTpQPgegTA8VPbzgEQDyAaKcO8/YO1EgEQBM+Bgu1Rc1aZnXPa1C5nVtFH0fy5KFNG3jloWQPg8xSAOABRSUlmOAwkSgGgIHiS4bP4DkCLGmXMKvqwed6tXr3arFi4ngJwnKixcQBOy/kflXDzYcdPnKQtew6YnSAIXmL5xl20cSdvdj365MsXy2920QX3eZeamuq5IkDHp/mpU/yRrVFeFxKzcL8QeLicFq9QEEIC1Dlz58ymW9bSM+Tqc6s/cz5GzOZHAZpHaRSAW/C8bt06OnmSrYUDT8xRuDSY4/aosmyBZXDkyJGDjhzhTY168JMhNH2ZlQckeJDRb99G+XPnMLvgGTt/DT399UizEwQhGFCEVqpIPiquDvHiBXPrw7xo/tyUNy4b5c2ZXc+px+HvBOT8odR68Mgx2n/4KO0/dJT2Jh+hzBkzUo/m1cyfcsbidTvo1nf6mV308M1jl7Mmnw4aNIguu+wys3PMLGVNAsvgCMYBgFfh6PqGFAA3CvDElyNowsK1ZidEA9D+nvLhXWbnjO9GzqXPBs80O0EQ0gM553oVi1O10oX1wC2E1rmDaMIJonsdHv9aOxXRxIT37tCRFae89dZb9NRTT5mdY35UdlNgGRzBOAA7lBUJLIPn+PHjrHkAz303mkbOsSqCEDwGFAB//d/VZueMl38aR0NmrDC7yIGHKW5REPfAK77ceXJmpdw5sul1pn/VvUDRMvnIcfVgO6rsOO05cJg27tpPG3bs0zcnQbAhW5ZM1LRaKWpZsyw1qFycLTvrBR79fBhNXrze7PwP0iYj3rjF7Jxxyy230Pfff292jnlG2RuBZXAE4wAgHl8qsAyegwcPUu7czvsgX/1lPA2attzshGigQ70K9MbtF5udM25/9y9auHa72YUeqJSVKpyPqpYqrG9T5RLy60O/UN5c7EFG/yZZ3XagorZgzTaan7hVF1KdPCUSmML5gXBO8+pltIoeDn8M1okGoi3K16RqKfr4gUvNzhlNmzalmTPZP4teygYElsERzCMNFR6VAsvgwTjDwoULm13wvN13Mv05abHZCdHADR3r0QM9m5mdMy5+8lvac5BXTxIM6NWtWbaoukWVoFrliuqDPy57eMeVphw/oW9Ao+asptkrN4szIPwD5Osva16deraobjVhzqvMXLGJ7v9osNn5n+s61KWHejU3u+BBC3zevHkpOTnZvOMYFGI4CpcG4wAsUlYrsAwetDKUKuU4cEAfDZhGP41ZYHZCNPDEVa3oitaOP0K64KjlQ5+7rg5ZsnBedZMqTQ0rl6S6FYtRDg/dpA4cPqpTHr+NX0RJIXR8BO+TJ2c2urJNLbq2fR3KGcUz9LfvTaZL/veD2fmf529or6WOnQIBoLJly5qdY1B0F6fMUTFFMC1+rOqMY8d4RR1ZmHKxgncplBefS+dsTTro2uFfsXgBurN7Y/rz+WtpwEs30CO9W1LzGqU9dfiDvHHZdcRkyGs30TPXtqWEAjw5UcG/ZM6UkW7uXJ+Gvn4z3dGtUVQf/qBovHvpNS9QuWQhs3LG0qX82QoKyAc6PnQ95wDkyBrdH/ZYpBCzQGnnvkNmxQMjR+9Sh/6gV26k3569hm7v2pDKJvhDeARFhwj5/vXC9foQyJLZ+xXdgj11KxTTBbP39mjqOec0VFykTv9oEYDF95arAbBkyRKzYsHyHkLmABw4wFNvi8+V3ayEaKFIPl4EYNe+w2YVPMjf4+D89vHeNODlG+g2degXL8gby+kFcPDDAej3wnXUsHIJ864QbaBvH7/nLx7pyT5A/Eo0qb+XL16APQPAMgLAKpwL5r80xbw6YteuXWbljPx5nIvFCN4F4cy8TKduz8HgHYAyReLpsSta0Yg3b9WhcxT0RVNYEa2Hnz54Gd1/WTNdDS5ED2gb+/rRXtoByBBNH9ogOXGSrxzrNaoww//A0gFghQ+CcQD2mFdHsB2A3DnNSogGCubNyX6o7d5/fgcA/7vt6pan79Rtv9+L19FVbWtFddgUP8YbO9WjT+7vwRIZEbwHbvv4/NZUDmuscuR4qln5H2iecEhJSaE1a9aYHQsU6zsmGAeAdZLzHQCJAEQTBfLwHbrdB9KvgkdUoWvjKvTHC9fSW3d0ibmHZ8MqJbTUKLe4UvAGiFJ9ow7/aGztc0LKsehxAKqU4kUAFixYYDMDAMVSLP18zzkA+eKyS4gzioDuOBeo550NhE+ublubBr1yA710Uwcd9o9VcHOEE+Dn+oZYBpXiH91/6QUH7cQCqVGSAsDFBMJhHObMmWNWLBD+Z1VShMwBgBAQBxz+aIUSogMMH+Gy2zgAkD295eIGNPz1m+nRK1r6WvbUTdAi+OmDPbRQjOAfShfJRx+rwz/a2/uCJVqKACsUL8CevzB37lyzYsFWzgvmqt1C2ZTAMngaNGjA9mpueKOvlkoV/A9XBRCFQc0f+Iza1Cmv//2E/NIPfy5WbNxFd7zfX09rE7wNDv2fn75Ki1GFCyhL7tiXTNv2JGvRHUTW9ES/Q0fpYMox/bk5ceKUvomjzgTT/TJmzEA5sgXqaeLUfzMGvGVXjnj+PDkpPlcO7XQivYeuLURt86n3uPWL67bvpStf/tXs/AtqkFCIzKF8+fJ6FDCTO5V9FVg6I5hfWUVljqfzlCxZkjZt2mR2znjmm1E0Zl6i2Ql+5oGezZUTUNfsggd6+ZAA5obUYg18X/C9EbzNm7dfTO3rVTC70LB51wGau3oLrdy8m1aqixQO2FDLS6P17YmrWusWXKckbk2ia179zez8y2u3dqZODXBcOmPfvn1UoEABghQwkzrKWEWAwTgASDI6burPqLxIVDZyJgJiMAQGRAj+hyuL6WVQtASRoh3KcJPCDUrfokwuE3PWcdPDDQoFXqUL59P5wVAjg7S8DQ5HtKi6Dc6NReu261kS0NXfnsTWkreC6+yvUo7Kda/3NTv/AvVOTqRy9OjR1LlzZ7NzDHR68P/0hN45JNigDbQAHCcaV69eTRUrOveIhs5cSS/9ONbsBD/z/j3d9MhSP4IhPWvU7SRx6x79unrLHtqy+wAlpxw3fyI4IPKCYj3MaIeYT4saZXTvt9vgvxc3qa17Dpp3BK+AcDnEnOAcusUh9Tn8a8pSGjJ9BW3ZwxNec5Nnr2tHPZpjHo0z5q7eSnd/4GiIneeIz52Dxrx9m9k549VXX6XnnnvO7BwzS1mTwNI5wRQBAugMO4ab0yghlc1RQ3YfSTvjAJ2xbBN9PHA63fzWn9Tm4S/p1nf60Vu/T6IBU5fpsb1OD39w6vRp2rRrP41fsJbe+G0idXn6O7r2td+p3+QldPyEe3l7aCC8dFPHqBJAihYeu6Kla4f/4aOp9NWw2XTJsz/Qp4NmeOLwB9y/3+Gjzr9TXqNWWX4rsmUBoNW/HKwDsNa8OmLtWta/RiUKha9ARggtqOD3MgjjY/z0fR8NovaPfkUPfDKYfhw9n5Zu2KkP7lCBaAIci+7PfE/fj5pHqSfcaYVCb3mnBo6ndwshpHb5BNfy/lOXbqDeL/6sHQBEALxEruw8B8Brfw8ONSLnAMwzryyCdQBYV3luBABiQDmkRSYqyJ7Fe8p8UBj8eewCfQvHAfx238k0a8XmiPQj7zt0VN/irnv9d13N7wYYJCPDg7wDhlDZgs/myz+No4c/HaqLY7mgWA/aA6GQHI6L4QhAjbJFzMoZ27Ztox07dpgdCyvvIdhPwT3KPg0sg6dr1640bNgws3PGNerhnKhuSYK/wSQ+L4jVHD1+gsbOX0PDZq2kRWu202kPNh+jVuDeHk1066QtSGMgkiFEFqhUQurXBtyQH/1iGC1I3GbeOT/4HFUrXVhHg1B3AsGsgnnj9MXqbJE1/O9uSzpIa7btpZnLN9G0pRt0GowL97uOaAbMr6D3f9IHd7Gc7gEDBlCvXr3MzjFQAES4nB2qDGkEgJsCAFIHEB1AvS+SINT+5u8TqfOT3+obFB6iXjz8AVIOHw2YTp8MmmHe4XNt+7oSBfAAUK604cixVLrjvf4XPPxxsDerXlq3ok14/w767one9GCv5loyu6pyBvRMjn8prCJnD0XC7k2q0Ou3daZhb9yie9m5wQFM4uTg9whAdXX7537XZs+2cnxQAGiVpwxpDcCGDRvo1CleWFXqAKIDiIeEm9Onz9CEhWt1AR/C/H9NXqofpH7hh1Hz6MP+08yOBwRaujSqbHZCJMiTMxu1qsXvgIGj+tx3o9UNPcm8819wWOOQ/+vF66nPfZfoPnSuwiBSAxCyubNbY/NO8OAAzMOU/fZ7DUC9CsXMyjlTpjjW2Dsbu4eEIlgHAIo+jmNDqamptHnzZrNzBnqnBf+TLYw1ACik6zthMfV4/kd64ssRtHidVW4taPDgrF+puC70uqx5dd0LfUXrmtSxfkXd9ocwrNMbwi9jF9DIOY71t/7BNer2KR0BkQMOGFcaFiAsPmXJuRuwCubJqUdEYy5GSRcvTEhBOa3oh94F97NmU9PgBepWLG5WzoBODoYAWWDlPQAnvzLMKiwfWAbPmDFjqEOHDmYXPFCxuj4KxCFiGRx6Mz6+1+xCBwqkBk1bpm7O8/+eHxBqyibkp57qsG9QuTiVKRp/waIqhPc37z5AS5RTMnvlFpq1crNWOzwfaOv74akr9eAfLne+P4DmJ241OyGcfPt4b52H57B+xz6t6XAuBT/0nX/z6OUhkxS+4qVf9H9DsDSqUlLPpeBw+Ys/08ad+83OX0Dga+L7d7K6ncaNG8c6Gw0IaeKWDI0eNsFGAACrDiAxkSfpi4eeTAX0N6G+/UN5r/+UpXTZcz/pSv5wHP74wkPytO9z1+h8KaSKg6moRmEWirEubVZN51tHvXUrvXtXV2pStZT5E/8FBVmoW7ApWeBIkwr2ICpUvUxhs3PO230nnVe+995Lm4Ts8Eckbed+Z98lm5HGuxz+//ISVUsVYrc6T5061axYoMLX6vAHIXcAVqxYYVbOyJo5ExXLL4WAfgYtR6EAudHB05dTz+d/0sI6u/ajGDY8oMgK4X3bNiqEhlvXLkcfP3Ap/fT0VbpXPD2WbdhJY+fz52K0q1s+ZL8H4dw0VDdiOH0clqzfQfNWnz9qY1NbcCEmLV7neEZ/UaYDcODwUd2h41fqMcP/wDL/b+U9pOHkE4oUgGOWLVtmVs4pV0wGwfiaEFTbQ43vpjf/oFd+Hq9FfMJJy5plqG2dcmbnHrhFfPVoL7r/smbpOhboCuBqFKAQrWGVEmYnhIsGlfgHwy9jF5rVuTl1OjSdLIiqfT3M+RRXbgQg3N9ht6lXkVcAiPo4yw4A6wJA4MQBYF3lly5dalbOKZfAz30KHsDylnw2uClg2A0keiM1KhptVqECB/+NnerR09e2Me/8PxjuMmYuPwrQyqezGPxMlVK88D8q4qH2dyHGzmPdxy7ID6Pn04adwef+0yjGbNvGUC2/ghqnc0XuLgTU/44ePWp2joH3Nz2wtMOJA8C6yu/fv5+tdCSjYP0NitjcQIf7X/hZT7qLZA9/OGSN0UXQpvZ/owyD1M+ACzoUhPCBOhF0fnCYvHj931Mlz8dXw2fT3mTrFPA/gOPxNVOQh9uF4GcHoE75YjpVzcEy/I+HgXMvLR2cOADblbH+n3LTAGWLigPgZ44cteu9Rx7yf9+O0uH+C1XMhwPMLQ8H6U1UW7R2u6Oq7LMpVThfSKYPCulTpkg+dvtfMLd/gO/Dw58NdS1/js/Xs9+OZjnYEACCyiAHP0+uROcDF8sCQFfy/8BplQorDcB1AEqrL1I45qgLoQGz8rlABhpy0KMtQt9uM2HB2rBEIM4VPh45e5VZOae+RbGS4IxiBfjFy0vX7zSrC4PZEXd/OJD2WUYCIJqFYVhcsaySFpotm3d5Y5Ihh8bM2poTJ07Q9OlWEfyIOQCsk3z5cl74EtXLIgnsX3BYnjpPK9P5+G7UPM/dDlCwNMpSnCcYzhXtmLmCJ6oFuLlKwTlF8/MK4jCkymkrK7pErnujL01butG8EzzHUk/qdkOIZmHNpZSFCNGm3f7s/4fSZoXiBc3OGTNmzKDk5GSzY+FKASBw6gCwTnKrTgCpA/A13FsFV8401Hw6aKaexx5KkAdOD0RF9h/iFQ5VLsF7WAnOKRKf26ycwSm+A3AcHvp0CD3y2VAtNHUh0Of/+4RFdOmzP9Cfk5aYd/lwZdvR2eLXGgCE/7k1zmPHjjUrFvD0tgSW9oQtAnCGGTqF4prgXw4zHQDuYJFQA82B13+dEIoORw1u/xhVnB6IqMxdzfvuly9eQPQAwkQ+dTvksC3J6laoZYNveaefVvH74K+pNG7+Gp3bX7ttr5bFRjHtiz+Opc5PfUvv/TnFtSJCbgEgInyY2+FHbPL/lg6Aa+F/EJYIwOHDh2nTJowTcE5F9eAS/Au3SMmrEQAwZl4ifTPCea/0hcABj4JHtDyei4VrUIvrHBSliTMdHrjO6469dg5AGigW/XXcQnrq65F027t/0VWv/KoHY+GzNWzmStcLarkOwOZd/gz/4+bPdQD27dtH8+dbjemebF5dwakDgAH9rCZsbhqgckkJXfoZrgPg1QhAGl8OnUXfjZxrdvbg8H/3j8k0cdH5BTdXbeZrIEgaIDxwnddQp5ZCRXGuA7Dbnx0AFYsX1OOVOYwfP549Idcw3ry6AicmyIoCcAsBC+fLxQ6pCZEHevYcvBwBSOOzwTPpaXXLciqb+m9QgPXUVyODyseiFRGDhThg9rsQerj6F34aWZ1G3rjseu4Bhy27/dkB0LwGXxDMMvyPlijn1Z7ngeMAsK7yS5bwi00qyc3Ft3AjANldEhEKNWPnr6Hr3/hDSxRzmL1ysw7RohUrGI6fOEkbdvBCp1VKiQMQDrhZbZtK/Ehh06W1ZY9fHYAyZuUcTAC0wMp7SI+wRQBs5h7LzcW/cG81cdl4t4pIsGnXfrrprT/omW9G6d7sC4ECwlkrNuve63v7DHLc7ohR2RxQT8MdUCMED7dANKMPp59yOwAAxmP7jdw5s1E1pswzJuNu2BCc0NM58IQDwIoA4C9/6BCv5UMiAP6F6wDkyOaPCEAaeOijOPCGN//Q881RhY39gjXbtFOAPu2B05bRSz+OpS5PfasPfzgBHLh1AJAthbiWEFq4HU9+HH9enBkBQCQr6cARs/MPzauXZv+eRo0aZVYsEB6aFFi6B8cBQCzfcRLy9OnTtHjxYrNzhhQC+peUY7wUQA4f1ACci4079+sqbEQE7nivv3YK0Kf92i8TaOjMlbTnoN2DjxsBAJIGCD3HmaF8rq58JLFqAeSGSiKITf5/2LBhZsUCbUeuV01yHABc44NLWP4LbhqgeIG8lItZaCJEFr4QkL8iAOFkzdYkdv905RLiAISaw8eOm5UzMLrZb3BTAH4M/+Pmz23/Qyu85QCgMebVVbgJQdZJznUA0HdZQfQAfEnKcWYKIKt/IwChBoWVG5mqcWVlxHbI4bbz+dIBYKYAtviwBbBW2aLs39GYMWPo+HGeY2jwlAOw0Lw6wqoQUG4uvoSbAvBDG2Ak4aYBpAYg9GCmP4f8eXi95ZEC7X8oiuOw1YcdAG3q/HdMd7BYhv/h7buvPKYIawRgxYoVlJLCk5+UOgB/wk0BZMmcUSZBngfIu3IolDfO8yJLfieJWePht8FnXAEg4EcNgFa1ypqVM1D/NnLkSLNjMUKZlXrQueA6ANAydJyEhALS0qVLzc4ZomLmT2zETfyiBRAJuINjQCmL8a3Chdm139lEvzRsxupGgiL54szKOX5TAayozh/umOe5c+fSzp3Bj3lOBzgAIYHrAECJhNXDxE0DlC4SLweCD+GmAEBO+X2fE+i9cylTVOoAQonTkb5pYMSsn4qd8+fmpSxOnjpNe5g/o0jRmnn7B8OHDzcrFrj5hyT/D7gOAAhrISAqMCsUk0JAv3Esle8AZM3iv7aocLFz7yG2clxpiQCElB3qd8OF21YXCbh6+HuTj/iuBbB17Yjl/2cp4+X7gsA3DgCQOgD/cfwEP3WVxYd90eECD1DuNDWJAISWHfuS9cx9Dn5KzxRgFi3u8ZkAUEKB3OyptFu3bqVFixaZHQur4oELYeMAsDoBMBWQ2w5RvUwRsxL8QuoJvr45RtgK54abBpBOgNACjQZulXtMOACWQljhpo3F7b9///5sZUhDyPL/wMYBmGdeHZGamsqeDFi9tDgAfuP4SZsIgDgA54NbCAj5VnGuQsvGXTwHoFppns58JCiQO4dZOYPbJREpuNX/YNCgQWbFYpsyq/DBhbBxADD1ZEdg6QxuGgCqU34Uy4hlbCIAWTNJCuB8bGBGADAQiKvhLgTHuu28tG2NskV8MxMgjlmw6CcHIL9ycmqXSzA7ZyQlJdG0adPMjsUAZSEtlrBxAAArDTBvHit4oBUB/eQhC8oBkAhAyMDMAS7cliYhOFZv2WNWzoAAVvmE/GbnbeKy8xwArlBSJOhQvwLbIRs4cCCdPMm/ACkGm9eQYesAsK7ys2ahsJGH1AH4ixPKAeCmwCRMfX62WAxUKRKfy6yEUMCd2AhqMW+c4YY7r4MrlRwJOtSraFbOGTAAF3g2yCFZDQ8IhohEAFAIiOEIHKQOwF/gfIql8ajhBM4VN5xa2ELERbgwO/cdov2HjpqdM2qVK2pW3gWaLEglcbARBwsnhdR3BCkZDgcPHqQJEyaYHQv0DvJ7qIPE1gGYa14dAUVAbhqgepnCOhUg+AfuLTWD/KIvCPQAOEgEIPQs3cBTf6tV3vsRAJtZHX5xANrXrcB+Bg0dOlQXvFswxLyGFFsHYIsyVCo6hpsGwPCJEgX9I5YhBNqiOGRg3jBiiR3qpslBHIDQMz9xq1k5o6j63STkz2123sTGAfBLCgD5fy7I/1uAIolRgWVoceMJy5pSNHv2bLNyjtQB+ItTp0+blTMkA3BhduxNNitnFBYHIOQsSGTdjTTNa5Q2K2+S1aJAlzsiPJzAQeamm48cOUKjR482OxbjlfHlJB3ghgPAOslnzJhhVs4RB8Bf8GsAJAJwIbgRgEJ5c7JzuEJwrN66h13x3rxGGbOKPrgRwXDSoV4Fdqp5yJAh2gmwoL95DTluPAFYsfzdu3fTpk2bzM4Z4gD4i1PcFIDUAFwQyM5ywOHPVXITggMH3cK1283OGfUrFaccFmH2UMP06TUXqf/zOh3q86v///jjD7NigcI/K/UgJ7jhAKCaj9XsyK0DgC5zVtGJ9w3sIkDJAVyQHUn8SGGReOkECDUL1vDSAGiBbVi5hNlFF1736zGQqWqpQmbnjAMHDtCoUVbpe7QO8Ed9OsQNBwCxDpa2L7cOIFPGDFRJBgP5hovkJh8ydu7nOwASAQg981fzCgFB8+rerQM4YyNQ5/HHQdfGVczKOej95866MfxlXsOCW0lA1kluJQgkegC+AQ4bB8wNF87P0eMnKEUZB5HVDj2oA0hm1wGU9uxtOVpTAPh5d24YsfA/IukhV/87m4g6AJgJwJ8MKJLAfiETs9iM2z0Qaxw4zBOcyRuX3ayEUIE6gBnLNpqdMxChqVHWm6JAFuc/ZWReCMIBdP+5Mtl79uyxFf+ZqIynIc3Erd8E6yqPw3/x4sVm5wyvfjGE/5IxI8/jlwhAcBw4fMysnCERgPAwafF6s3JO5wb822goOcaMOoE4Dxc3Xtyoslk5p1+/frba/2Gr/k/DLQdglbKDgaUzuGkAiGWImIk/yHARMwIgDkBQHGBKzkJUSwg9iACknuANxYIWvRfbNQ8f5ee543J40wHInCkjtatb3uycYxn+xwfESj2Ig1ufLDypWbLANoJAtX0gmRnr4OHFzWNKCiA4DhzhOQASAQgPqNGYswqiqc7Jlys7NarivW4AqPlx6wByMacIhhoUXXK/E1u3brUd/QvxH/4EKSZuupask9zGAagjDoDn4Yb/gaQAgoNdAyAOQNiYtHidWTmnc8NKZuUd0NrLVfTLlcObDoBN+P/XX3+l03YXlp/Na1iJuAOwbt062rVrl9k5o06FYmYleBVuASA4KRGAoGDXAMSJAxAupixez1bAa1O7nJ6+5zW4KodxHowA4OZvI7/8yy+/mBULtNKHTfznbNx0ANg9fdzQSZki8TpEJniXbFn4gk0nT4oDEAzcCEDuHOIAhIt9h47SkvU7zM4ZOPxbeFAamDvUJ7cHIwBdG1fW4ksc5s6dq0fcWzBAGW8+viVuOgBoX2CVu06dOtWsnIHcck3pBvA02bPyC364/e2xxrFUXuWxjXMmOGfiIn4aoFsTvjhNqEhO4UWe4nPlMCvv0K1JVbNyzk8//WRWbKzCBza46QAAVhqA6wAAqQPwNjksQpfiAARH6klehXkWi4lugnPGzE1kpwEaVy3puRHB+5JTzMoZBfN6S4ESsr+Ql+eAmf99+/Y1OxYIC6EAMCK47QBMN6+OgBbAwYOsLkKpA/A4NrlLm17jWOI4MwKADg2ZtxA+9hw8QrNXbTY7Z2Aw1iVN+bfUUJB0kOcAeE2CurvFz3X48OGUlJRkdix+V8bz4F3AbQeAdZU/deoUezxw5ZIFPT01K9axcQAkAhAcxy3ERzJnlChAOBkxC5IpPHo0r+YpTYCkZN7IWy85AIiCdWrA77JwIfwfker/NNz+NKESgjXJiJsGwBdCZIG9i10KgFdkFGtwIwBA0gDhBXUAKcd4n2scnM08NCAo6SDPAUDxqVc+d23rlGcXJe7du5dGjhxpdixWKFsUWEYGtx0AlG2zrvJ2dQCSBvAq3AgARIC46mmxhs3PCepnQvhAweb4hfxiwMtaVDOryMN1AFC8XSC3N6IAl1gU//3++++2k/8ievsHoYgnsXr60Epx7BivqlQKAb0Lt9L86HErTe2Y4vgJiwiAOABhZ8SslWblHEQAvCKBvucAzwEAhfLFmVXkQFFl/crFzc453333nVmxwGX518AycoTCAZhiXh0BT4qrClijbBG5yXgUruiHhP+Dx2Y0qzgA4Wd+4jbatf+Q2TkDxYA9W1Q3u8jCjQAALzgxqKnAz5PDvHnzaOHChWbHYrIynj60i4TCAZinjFUeyk0DZM2ciaqULGR2gpfgjpzliozEIjZyy5B0FcILfubDZvKLAeEA4JkXaQ4eOcYu1I20A5ApYwbqbhH+/+abb8yKTcR6/88mFA4APhFzAktn2NQByGAgbxLPVGrkTriLRWwqw0+I2mJEGDB1GVsTAE71xY28MR+AG8koki+yDgDklbl6BEePHrWd/IdcN9T/Ik4oHADASgOgFZA7T7lOBXEAvAg3ArCfKW8bi2S06OU/eUoKLSMBDs5pyzaYnXOuaVtbF9NFmp37mA5AhCMAPVvWMCvnQPjnwIEDZsdisDKr/wG3CJUDwLrKHz58mJ1XqVUuQURNPAh3VsN+iQAEjVUEQCYuRoy/Ji81K+eUTchPDSpHfkww1wEomj9yDkCJgnmpfkV+8V+0hP9BqByAmcpYySFuGgC9nJWKFzQ7wSvkZU6c4w64iUVsHF8ZuRw5Zq7YRJt38y+CV7etbVaRw48RgMtb1WBHT1atWkUzZ+J4YwPp39GBZeQJlQOA8lCWwIFNHUDDKpH3iIV/wk0BHDgiDkCwZLJQ8zslDkDEQP3loGn8KXJoCSxZOK/ZRYZd+3lD7HJmy0Jx2cOv4Iquly4Wc/+/+uor9XuzKpxF+MAzEqehcgAAqw5gypQpdJo5B76hB0Jiwv+DLxu+6Bz2JYsDECw2D9ITUgMQUQZPX8EWckIL23Xt65pdZNixlxcBAJGIAnSoX5GdlsTgH8u5//hFfxtYeoNQOgAsQaB9+/bRypU8oQx0Akhfs3fIk5M/bx4tRkJwcLUWTpw8xa5EF9wBn/Ox8xPNzjkYE1wwgtr63BQAKByBTgCE/7n079+f9uzB1Hs2o5RtCiy9QagjAKyr/IQJE8zKGeiNrVG2qNkJkcZm7Of+Q7xJY7FInpw8B0CcLG/Qd8Jis3IOLjxXRbAWYPeBw2wtiXBHAKAVU6NMEbNzzieffGJWbL4yr54hlA4AhgKx1C7Gj+ePR5Y0gHew+YIfOCyHU7BwIwDJKVY65oJLrNy8m+YnbjU75+BWm4s50MYWRJG4HTuFwywHfHU7vqOEkfXcibUGFP+NCCy9QygdAMCq6Js0aRJbD0AKAb1DkfjcZuUMVKZzR43GItyHv0QAvMMvY/mysqiz6WXR126LHzoBIEjWvl4Fs3POp59+alZsvlbmuQEnoXYAWIWABw8epPnz55udM6qWKhSR6lLhvxSJ53n4u/cflty0A3IxIwCHUsQB8AoQBdqwkzVJXQNhoEjJA/tBDfDyVjXZ9WEQ/fntt9/MjoXniv/SCLUDMFEZ60k+btw4s3IGRFHqVpDxwF6AGwHYsS/ZrIRg4NZaSJrFOyCN/vt4/mj4+Nw5dEFgJOBGAAozLwhOge4/Bv9w+eGHH+jIEauI5EhlmwNLbxFqBwB5D1ZJv00dgBcUsgR+iM+msjgW4VZTJ0sKwFMMm7mS9ibzi19v7lw/IlNRd+7jaQHkzx2e7oUO9SpQobw8ZwM9/1988YXZsfFc8V8aoXYAAOsknz59OtvraiQOgCfgOwC8B0qswi2m2idyy54i9eQp6j+FLw+M71u3xuGPAnDHAmfLkolyMHVCnHBlm1pm5RxEolevXm12LFDd6bnivzQ86wBAdIFbdVmmaH4qEMHeWCHQkpmPqQIoEYDggdZC9qyZzc4ZO/ZKqsVr9Ju8hI6l8mvFbr64vg55hxObqEX+XDnMKjSg9a+6RevfZ599ZlZskPv3rNpWOD4pk5SxPtHcNAB0nutX4g97EOzBbYSrty0OQPAUtqik3iE/Z8+BlrqBFvLACflzW0ndcthn4QDky827JATL9R35SombN2+mYcOGmR0LHPzfB5beJBwOwEFlrJJ+biEgED2AyGJT4CMOQPDYVFLLz9mb/Dh6PlseGNzapYHVhEin7LVo2Q1lBADOULu65c3OOR9//DG7Hd2A0L+nlP/+Tbg+JayrPEYDJyUlmZ0zxAGILDYHE7etKBYpUzSfWTkD+WabB7cQOpBTHzaLJ4cOihXIQ10aVTK70HPo6HH9eeKA7oVQAeEfriOE+rPvvvvO7Nh4tvgvjXA5AKyrPIYCTZ482eycgRA05j4LkYFbmAZxmpTjnhmW5XnKJeQ3K2fg9m831EwIJd+NnGs1qvn2bo3C1hGAzxFXujt/iBwAjIe/tBm/9Q+HP+bSWLBFGdr/PE24HABU87FKju3aAaUOIFJwW9N2SVjaEWWLxpuVM7YnSQGgl4GDNmoOv/oc4e8eFgegU/Ye5DkA3Ml8FwLCPzmYxbFo/XNB+Q//A54t/ksjXA4ARMdZ0wFt6gAaVSlpVkK44fbd7mTOF49FMmS4iMowHYD1O/aaleBVvh0x10oRE7UAaLULB9yWUm6n0PmA4t8VrWuanXOGDh1q2/qH3Bqkfz1PuBwAwBrxt2bNGtq4caPZOaNx1ZJhb4kRAuRiTqiT/H/wFC+Qhy3/unabOABeZ8ueAzRuwRqzcw5aocM1KTDleKpZOSNnCGTbOzesZNUG/uGHH5oVmx+VWeUPwkU4T0f2VZ47HhhDMmqWk/HAkYA7j+GgyNMGTZVShczKOWu38YprhfDyxdBZdOo0vxbgxo71KHfObGYXOo4y63bwjHYTtB5f176O2Tln2bJlehidBfhlfRRYep9wOgAYd8XyimzqAJpXL21WQjiJy8aLABw5xrtJxCI1y/KcW8xv37Bzv9kJXmbzrgNWtQCYFGlzIAbL0eO8djm3HYCm1UpTWWZhLHj//fd1DYAFaP2zyh+Ek3A6ACiIYLlWiABwfyniAEQGbmhPHIDgqcFUONu65yD7xiaEny+HztZz97lc3bZ2yKrt0zia6o0IwE2d65uVc3bt2kW///672bH5wLz6gnAnyFlX+Z07d9KiRbxJWfAGi1qopQk8MjNrL+RgCg7k/iuWKGh2zlizVcL/fmL73mQaPH2F2TkHUtG3XNzA7EID93ubxcURxoiI1SmfYHbO6dOnDx07ZpWChIQjJuD6Bl84AGDECP48haYSBQg7FzF1gKU1PTiQ/+cWuC5ZjyGdgp/4ZsQcqxkBPVtU1wJBoeIYMwLgZpH27d0ampVzDh06RJ9//rnZsXlPma8eYeF2AJAbgUCCY2wcgGbiAISdDEwHwKbtKZZoYDHrYvE6cQD8BtQBMSiIC0SBbu/KPyAvBLcGgBsp/DeIhjWuUsrsnIORvwcOHDA7FruV9Q0s/UO4HQDAKumfPXs27d3La11qVKUEu11K4HFG7vIhhatxAY351Vv2mJ3gJ34YNc+qRgZDgmwK5M7H8RM8B8CtCMBtXRqyh4+dOHFC6/5bAuEf37UwRcIBGGteHXHq1CkaPXq02TkDh3/dCsXMTggHp5g3+XAJl/gZtFjWKMsrAFy5ebdVQZkQOSCT/es4NFPxgHDU3Zc0NjtvkNEFB6BMkXhqXbus2Tnnp59+oi1bWIHpNHDwfxFY+otIOAA4xVlPIEkD+IcjR5nCIC5XBUcj9SuVYA85kfC/v/lt/ELtCHBpU7sc1bYolDsXcC44nLKYd5DGzRfXZ6cc0V2G1j9LflOGFIDviIQDgBLkOYGlM0aOHKkjARxa1BQHIJxwQ5WhUAaLNppW4+c6566yuukIEeawcqx/GsOarv43D/Vqzg6XnwvuAcyNFKaRUCA3dWpQ0eycM2jQIFqxgt9hYehjXn1HJBwAwJqShOlMqAXggArYkoVlOmC44DoAmOIlnBs8aFvWLGN2zkCedsGabWYn+JW+ExbT7gP8mRnVyxShdnUrmJ07cCNSNiqHAEqH3P/f4O233zYrNkhp86szI0ykHIDh5tUxiAJwaV6d9+AUnHP4KOY/Oacgc4hQrABpa67O+cI129nFWoJ3wO/wh1F2UYAHLmumh+a4BbQGONikADDyvXvTqmbnHIyanzVrltmx8ZXwz7+JlAOAShZWMnL4cLbvQM2q80OngjN2H8BALOdwpwjGCm3rlDMr58xYvsmsBL8zcNoy2pZ00Oycg9D55a1qmJ093NkfKRbCXxA3snFiXn31VbNis1LZqMDSn0TKAUDih3WVhyLgtm28MCY6AXJIkVlY2MMMURbKJw7AuUCatXVtvgMwa+VmsxL8Djo5vhrGKqX6m1u7NNSzAtyAO3sfNQ0c9O2/SRWzcw5SyTaj5g1vKvN1v3OkHADAKulH1eaoUTynC2IYDSuXMDshlHBzlIWVA8ANJ0Y7kDpNyJ/b7JyB2+L67TICOJoYOXuVbuvkkidnNrq5szsSwdziXW6qEH3/eJ5zefnll82KDbxp68EBkSaSDgCKJ1jun5UssEUFtRA8u/bxHAAUuZUunM/shLPp2ph/4xm/YK1ZCdECpjp++Nc0s+NxddtaVLygvURwwTy8yN0hhgOA2S5dG1c2O+csXLjQqpbM8IYy3w8uiaQDkKyM9ekdO3YspabyQkeYDuh2C4zwXzbt5stqlikab1ZCGlkyZ6QO9fiV2+PEAYhK5idupRnL+LUduEXf1d1eHKhAHt60wUMpzh2A27s1sr79W4783a7sh8DS30TSAQAsNwyDG6ZN43m+yDFXKlHI7IRQsXnXfjrJrPCtXJI35S6aaV2rHDtfu2v/IVq5aZfZCdFGnwHTrGZodGpQiaqWLmx2PLjFu7v3O4sUIlphc/tfvnw5DRkyxOzYvKvMd7K/6RFpB4Bd0m+TBmhdiy8bKQQHDv/NzCgA+pSFf9KjWTWzcs74BevUjcdshKhj3fa9NGQGX8wGEVGIA3FBJX7eXNnNzhlOu4WQ+7fp+8ft/7Sd9gCE7L4KLP1PpB0AtFGsCyydYeMAtLFopRKCh1t0VrlkIVd7lP1OyUJ5qYFF8SqKxYTo5ouhs9gz+QE6pLgCUyXU55OrBIjoVLBAyO3iRpXMzjmrVq2iv/76y+zYfKiM1+PsQSLtAABWSf/KlStp3TqW70DlEvKLKmAY4FYo4/C3DUlGE5e1qM6uW4ETZlMpLvgDjAv+xWJQEHiwV3PW7bqURdHuLgcpgLsvaWJ1+3/ttddsb/+oW8PUv6jBCw4A+yo/bNgws3JOq5qSBgg1S9fvNCvnSLdGABT/2fQ7D5uFIJsQC/w8Zr52BLjgIL+0mXNlvdJF+A7A9iDFjKqULETtLeSLExMTqW9f63H9nyjjVzd7EC84ABOVpQSWzsAgBy6YiiWEluUbd7FHzzauKg4AuLhhZcobx8uvok1s1NxEsxOiHajqfTWMNysljbvULdvpRM6yzK4dOCvJQXYB3HdZU6vureeee45OnrSSwcYZ5duhP+fCCw7AUWWTAktnTJ06lfbs2WN2zqhetghbU10IDmiWr9nGrQMoSPlz81qLoomr2tYyK+dMX7bRcZW14G8GTV9uJfgUnys7XdehrtkFRw31LOWwfvs+szo/dSsWo0ZVSpqdc5YtW+ZG7v9LZVGXS/OCAwBYaQCMBuamAWymqgnBM2/1VrNyBn4/7eqWN7vYBKqVFYoVMDvnDJiyzKyEWAHtgB8PnGF2PK5rXyfoyxEcBkxa5bB+R3AOwP2XNTMrHs8++6xt7h9hivcCy+jC1w4AsEkDoLdaCC0zlm80K+d0qM+f8x0NXN2utlk5B9XV0y1+9oJ/mbp0A81ZtcXsnAMp7hs71TO782PTsrt+x4UjFW3rlKcaFv8/5s+f70bfP0R/onKOtlccgA3KWNeVMWPGaGEgDg2rlHBtGIaQPovX7aCUYzzVxlrlisbscCC0/jWrXtrsnDNg6jIrcRjB33zYf5quAeHSq0UNKhhEFKBWuQSzcs6KTeePqGfIcBHdfamdSuH//vc/W9U/FDFB+Ccq8YoDAAaaV0ccO3ZMOwEcMmXMINXmIQZFgLOZtxGkAS61mPftZ5D75/ZW42c+aNpysxNikcQte2i0RQEouk+CqQVownx+QrNgzVZo6pybS9R3v0wRviz49OnTafTo0WbH5jdlUauj7SUHgB3Lt0kDtLfQVxeCY9Ki9WblnMuaV7fq/fUjiEp1a8J3fMbMS6S9yazGGiGK+HjgdDqWyq9879Wyhs7xnwvUCXBrVJZu2EmnzpOXz5o5E93etaHZ8UDu3xLc/l8LLKMTLz1ZFyhDKsAxKATkDgdqVq2047YXwRmTFq2j1BO8dkCkAFrEWLHmZc2rseerg9/GLzIrIZZBB8ifkxabnXOyZclE13U4dy0Aoqfc1rwl63aYVfpc274OFc6Xy+ycg1n/kyaxmsvO5mdlqwPL6MRrV6uh5tURBw4coMmTJ5udMxDqkm6A0HLkWCpNW8YvSLvGohjObyDacUVrfusfpsOt3sJrjRWij+9HzaMDh9FpzePyltUp7hyz/m2em6gNOheIOgRbhJgeyPk/9dRTZscGusqvBJbRi9ccAEkDRCkIS3OBTnmd8vxiIz+B1sci8fybz+8T+Dc+IfrAuN2fxsw3O+fkyJaFLk1nEFXuHFmpKbNIFfn/+WvO3R5896XOxYjOBop/qP635Htl/NylT/CaAzBF2fkrQ87B4MGD2dWeTaqWkjRAiJmyeD3tO8S/idzcuYFZRTcIfXLZnpRMU5ZE/TNLcEi/yUtpn0VNyFVta/+nDgeXJu7Arrmrt54zJQhVQRT/cTlx4gQ9//zzZscG+eQ3AsvoxmsOAD4VLGWfbdu20YwZPAEMpAFayYjgkJJ68hQNm8nXpW9avRTVjvIoAKIc1SyGIP0+YZG0/gn/ATfuHy2iAEXjc/1HlOviRvyZ/NOWnrvU65HeLa2Kfr/44gtau9a6aB+qfzEhouE1BwCwY/l//vmnWTlH0gChZ8DUpVa9yZhWxi068gM2wj+os7CZCS9EN/0mL6E9Dmfvn81d3Rv/fTBjkmpti/7/6cs2mdU/ge5F46p8yd/Dhw/riX+WHFP2VmAZ/XjRAUBTP+uTCgcA8sAcmqgPHvJaQujYuucgzVqx2eycA0WwdhYTwbwMWqpaWkyoHDx9uXYCBCE9EHL/dTx/XDAO/U4NAsqcV7WpzXbEMSAMKpX/BqI/D/S0k/x99913adeuXWbHBhP/olL1Lz286AAgUcxSb9i5c6cWf+CQOVNGailpgJDzy1h0e/J5qFdzqxY5r4K8J4SpOCDs/8fEJWYnCOkzaNoytionuK1rQ8oXl526WYynHn6O8dQ9W1Sncgn5zc45GAr3/vvvmx0bzCZ+M7CMDbzoAAD26CabNEAHSQOEHGiUX6gH+HygQv7O7nbyoF4Din89mv+30jpYxi9cS9uCnKsuxC6Hj6bSoOn8NBHkqZ+7oT3bAT956jSNmbfG7P4fCF/d0c3uO/3SSy+xJeHP4m1l/FGKPsSrDgD0AFgl4xj7yE0DIP8ULyNoQ84Po+eZFY+r29amKiULmZ3/aVytJCXkz212zvldhH+EIOlrWSjaogZ/PgWK/9LTJLijW6PzKg5eiMTERPrqq6/Mjs1OZVE37/9CeNUBwBDzkYGlM5ADmjIF3YTOQZGLRAFCD6aVJV5AB/x8IF/40s0dtVxoNIDBK1yWrN+hTRCCYfveZJqwkF8lf5FFFe7wWavM6v9B21/vVjXNjsejjz6q2/8seVkZv0rSp3jVAQD9zKtjbNIAFzesZFZCqEAjwMcDeLUaaeDB8WAvu6IhL4Cbj83Uvz8nSe5fcMZXw+dYdeNw2LHvEE1Z8t/2vyeuas2ufQETJkzQUvCWrFP2TWAZW3jZAUAagOWRIQ1w8iRvCAbmW6PiVQgtM1dssuoIAL1b1fK9jDP6qbkPQIRTJyyI2kFlQohYv30vjZv/31x8KPlj4uL/DP9BtLV+peJm5xykeh9++GGzswJTg6xDCH7Eyw4ADn9WN0BSUhJNnDjR7JzTuYFEAcLBRwPsZpYjGvnSTR197bDZVFQPnblSCywJglO+HjYnbKJR6DxAB8LZYNDQA72amx2Pb775hpYssY6AQTubHzL2OV52AEBk0gCNKrH7XIXgQR2A7dx6VBC/e1c3rVnuNyoWL8Aepwq/aeDUfz5UBSFYNuzcRyPn/DcnHwoGTV+uOxDO5paLG2iFQS6o+H/xxRfNzorHlZ17LnGU43UHgJ0G6N+/Px0/ftzsnFGiYF6qXrqI2Qmh5JOB0610ygHqAV6/tbOVhGgk6GIhpzp39RbavPuA2QmCcz4dNFPLBIcStP71nfjPAVXFC+ah69rXNTser776qtZ9sQTFA2MDy9jE609Mdhpg//79NHz4cLNzDqIAQuhJTjlO7/XjdW2cTfMapemFG9v7JnKD3v+ORlmNA5T/BMGG3QcOW80ICIaB05bpIVVn8+gVLfX8FS4bNmygjz76yOzYwPPB7T+m8cOViR3L//nnn83KOR3qVbSqThWCZ/TcRJqxPH19cCfgRn3vpU3Nzts0rFKCCuWNMztnQPJ30iKZ+ifY8/OYBbpCPxQcP3GSvh/5T80PFO22qGFXuPvEE0/QsWOQ7Lfic2XhyYF4GD+ccEgDsD6hI0aMoL17ecJO+XJlt/6gCsHz6s/j6eAR6y813dS5vtYU93okwCb8P3beGv1wFQRb8Dl670/7CFx6QKAKUYY0UPj32BWtzI7H1KlTdXrXkn3KXgosYxs/OABIELMmBKamplK/fuw6QupuMZdacAYeFK8oJ8ANbuhYj56+pq0Os3uR7FkzU+va5czOOefSUxcEDpMWraMJC9EK7x5I7f30r/QCJgomFOArXqK1+95776Uz9hoGOPzhBMQ8folx/2peHWOTBmhWvRQVzJPT7IRQgwcRcoZugOEiL9/c0ZOFgW3rlGfrqUPJbdG67WYnCO7wdt9JdEgd2m7x7Yg52glIo3yx/HRVW/64a9CnTx9aunSp2bFB2B/hf0HhFwcAV0PWnMcZM2ZorWgOODy6WvRpC855v99UWrONLxN8Np0bVqK37rjYc9MDu1gUmEJONcwibkIMkHTwCH3Yf5rZ2YH/LQj/pIFI3DPXtrWqqYLE+yuvvGJ2VqDwLyZFf9LDLw4AEp7sYsDff//drJxzSZOqogkQRtCW9Ohnw9IdGsIBofZfnrmaylqMGnUTRJQaVCphds4JV++2EHugs8RmTkAaqJ+Comoal7eqQTXLFjU7Ho899hgdPGg98XKCMmvd4GjCLw4AsEoDcPNGUJmrXS7B7IRwgDD3M9+M+o90KBf8Dn948gpPDHpCeymGGXHAGOXNu6T3XwgdKMbdadkVgMjp23d00V0u+XPnoLsvaWL+CY/p06fTr7+yH/9pQDLzocBSSIPfjBl+tim7Vpnjqxw0ATp16kQlSvBvXpMXS9tVONmWlKwlRJtUK2XesSNzpozUrm4FisuehRYkblPORWTi6I9f2YoKMOtKvhs1j1Zu2m12guA+x0+colWb91DXxlXIZvIfCl1rlitKtcsnUGWL0d3Q++/Ro4cboj+YF/xdYBkWMN8YU74g9lFLGfqTGymrd5ahyjyPMvygUewedkVCvwW3of34QmDpjDvvvJO++OILs3MGwtKdnvxWH0hCeHmoV3O6roOdati/2bLnAL3x60Sas2qLeSc8oAJ6yKs3mZ0zTpw8RZ3VZ9CNVklBuBAP9GxON3R093vH4ZNPPqH777/f7Nggd4Dw3x69c5dsyqobQ8EYXnGw4+bi5HxFhAL5l5nKMCoVvZm84jUH+M0BgDe1OrB0Ru7cuWn79u2UMyfv9vXaLxNcq1AXggeXkOdv6EDdXS7GREYI+XT0QIfrUMUDFQ9WDuMXrKUnvxphdoIQWhAx+/6J3la3d1tw669ataqO4FqCwr93A0srCipDKwMMt3q8oqI3k7JQsEjZb8pQxLYVb7iNn2oAADyi2YGlM5KTk600AXq1hGMnhBsc1K/9Mt4VpcCzgWMBMZ4/X7iOLmlaNSztgm3qlDcr54yYLcV/QvhAxOmJL0dENOKEUb8uHP4QOPg4sAwKpMWhANdJ2X3K8O+OUoYUNPJvY5S9rQzp6GrKQnX4AzgY+P+F/PO3yvgPkHPgtwgAuFMZK5bfrFkzmjaN3+py01t/0rIN1rkogUEWdSN5684uIVNnROHhD6Pm0eDpK1wrPjwbFEQNf+MWVkcJpH87PP41pZ6Q0b9CeGlUpSR9fP+l7MJVLqNHj6bOnTubnRU9lQ0MLAkqRDDUkRVXhtaEYspQ5Q0rqwwKXVmVeRE8AHD2PaPsnwMWmPjRAUDRxA5lKLJwzIoVK6hKFV44edjMlfTijzE9PCqiYIDIe3d3oyZV3SkMTA9M2Pt2xFwaOy/R1Vn7aIV66uo2ZucM3P6f/x4XD0EIP3d0a6QtXBw9epRq1KhB69a5ok64WRkO/bx6Fx0gHXCHspF6Z4GfugDSgLwUiixq6J1DsmXLRh07djQ7Z5Qqko/6T1kqOuwRApX74+evpZKF81G5EPX158mZjdrULkdXtK5FxQrkoT0Hj2hhE1sw/7x0kXizc8ang2fI6F8hYixcs52qlCqs22nDwfPPP09Dh2IEjCvgwohCvWgCDs01ynAJhrYBu6XJjw4AQPjjhsDSGWvXrqUHH3yQMmZ0/leHktX+w0dpyXoEIIRIACdg4qJ1lC8uB1UtXdi86z5ZM2dSD71CWlK4Rc0ylE3tk1OOsXKiqC/AbALOCNTDR1Ppzd8mRqxtURDwyZuxfCO1r1eBcucI7Vm6bNkyuummm+h0CNJwUQai96goRnfDEGWsH5hfHYCNytBP5dglTUlJoZo1a1K1aqjfcE7xgnnoz0lL+C6XYA0KA6ct20h1yifoW3qogXpf02ql6Mo2tfSAqHJF82sHAWqFR1MvHA2qWbYI9W5V0+ycMXnJehozL+TdQIJwXqAPgEhA9yZV1eUpNAWzOPR79epFGzfi8S4ECSLhGC2KgXmOnQC/OgA4fxFPZc2WREfAddddZ3bOyJ0zGy1ev4O27rGWpRQswIF6hTqQw02u7Fl1axRuQ9d3rEdXtK5JzWuUoRpli2rnECkEqJ/hz2H8KYr+Lm5UmepVRK2Rc34cPd+12QiCYMPe5BTaeyiFWtZErZz7fPnll/T55zKnhwFusyhidJw38WMRYBr4FEI4wfHfIUOGDLR+/XoqVYpXTIapdY99MdzshHCDIT+Y9OfVcb9ucfr0Ger4xDeuzUUQBDd44Ub3dTl27Nihe/4PHJBaFwvuUvZlYBkcftMBOBv0RkItyTEINX31FZQhecADDkfoWfgvTauXohfVAyjaD3+wfNMuOfwFz/HGbxNo1WZ3JanvvvtuOfzt+VCZo+J4PzsAAOIILL7++ms6downcoGe2Kvahj/8HOtAW/ztO7pajRX1E/NXB8S/8HlDHQKcTlh8ruwx4QAJ3gQiQb+MW2h29mBa6+DBg81OsAAVmrjZBv1w8PtTBIINEHSHRKNjfvzxR7rhBlYzgZ4L0PWZ7+lQCroShVCDtr+vH+2lazBihbmrt6iDP063X/37wD+WelLXBuAmtnjdDpq+bKN8FoWQUks54J0aVKTWtcpRoXxx5l079uzZowuy8Sq4xpXKghqfHw3XiPeUPRJYOqNBgwY0Z84cs3NOn/7T6OexC8xOCBUYovPtY72pYF7eHIdYALeyuau3arEq1Ki4KWIkxC5oXe1UvyJd1bY2VSrBumedl1WrVmnFv02b3JX6jhRoLy9btixVr15dC85VrlyZ4uPj/7bMmTPrTjQYnJ5FixbRvHnz9MhjF52gDcpQpHHBG0E0OAAYxrBSGevvMmvWLGrUiKdytXv/Ybrk2R/o5CnpWQ0V+XJlp28eu5xKFc5n3hEuxP5DR+n3CYuo78TFMsFSYAHpbXTZ3Nixnv4OhhIo/3300Uf04YcfujH2N2zkypWLatWqpa127dpUp04dHc2A2JxTUlNTqX///vTxxx/TzJkYCGgNlAK/DizPTTQ4AABqSCydVbQD/vzzz2bnnGe+GSV92iEiZ7Ys9OUjPV2bSIZbRsmSJclmzrmfSD5yjH4YPY9+HbcoJPMNhOgE+v/PXNsm7IXOx48fpwEDBtBvv/1GY8aM0YeiF8iaNSuVL1+eKlWqpG/1OOxh5cqVC8mzBOcRiiKPHLFSIJ2nrEFgeW6i5Ul4hbI/Aktn4JeLg6FwYZ6q3PKNu+jGN1n/r4XzAKGdjx+4lOpW4PXP/xs8WK688kqd9nnuuefo4osvNv8k+sFn9KUfx9L6HfvMO4LwX3Drf6R3S+rVsgZraJWbHD58mKZOnUrjx4/XIfKlS5fSvn2h+/zmy5ePihUrpi8IaA/HYQ+rWLGi3nOUY23A37l9+/Z08KCV3kwdZRgpfE6ixQHIogxDH1in+CuvvELPPvus2Tnntnf/okVrt5udYAuq3t+9q6trgiN4iHTt2lXfMNKoW7cuPf3009SjRw/KlCmUEz29ASYJvvrLeBkrLKQLxKveUd+5mmUxIM+bbN26Veu3bN68mbZv307btm2jQ4cOaWcBr+jqwq05T55/Ri4Qqs+bN682HPRprwkJCfrQL1GiBOXIkcP8ae8wcuRI/dw6A+lTHi8oezmwTJ9oioW+oeypwNIZ+CBAfhIFGhxQgf3gJ5BjFtzgiata6WE8bjB37lxq166dfkCkB778d911F912221UqJA7qQavgufINyPm0FfDZum1IIDC+XLRV4/2FG0TD3LNNdfoNkkmM5Q1CyzTx69SwOkBYaD7lTl2anA4oFoTIyg5lCyUl6Yu2eDK1LhY5/auDenGTvXNzo41a9ZQhw4dzhs6hCz0hAkTqE+fPtpZQDQAub1ojAogrAtJ4vhcOWj6ctFbFwJzLr54pCeVKBhN03KjBzyLLETrEM55R9k5B5ZEkwMAGSmcHOgKcAymBOImyC3qgAb8uPlrzE7g0KVRZXrsilau5B8RLmzTpo0OEwYD1CETExOpX79+uiJ54cKFdOLECSpevDhlzx7aKuhwgymKmTNlpLmrIKEhxCrI+X/yYA+qUKyAeUfwGkWKFKGJEydy2yShmDZA2TlbK6LJAQDQp2Qp++zatYuaNWumPS4OpYvko/EL1+kWLME5zaqXpjdu76zz/7YkJSVR27ZttVPHAdXHK1as0IWD7777Lg0bNozWrVunHQLkDr2YL3QKJilCOGjZBv+0XQnughHVLWuWMTvBq2BOAuqYmExTtiSw/C8u3LU8Bf4++MtW1zuHIFyM9hMuw2etpBd+GGt2QrBULVWIvnikF+XIyqvBOBsIbKB61qVe2nQpXbo01atXT6eNYKgURi0BOkkwaMovoDXwjvf6ayVBIbZoXqM0fXjvJWYneJmBAwdSz549zc4xjyt7N7D8L9HmAIDblF1QAOFczJ8/X1eIc8D0tl4v/Exb9shQi2DBCN3vHu9N8bntb9W4uV9yySU0evRo8054Qd0AnABUGaPyGG1EP/zwg/mn3mTX/kN0zau/08EjvLkYgv/AmOo/nr9Wiv58wvDhw6lbt25m55i3lJ2zOD4ap6r8qow9QB0hXy4IX1/fkec8xCIYavPJAz1cOfxPnTqlK2YjdfiDkydP6pqD5cuXa4VJ5O+8DirAH72ipdkJscANHeuF7PBPTjlOo+cmaoG0zwbPFAEqF7AUBEKL/DmJRgcASXh22eSff/6p871cLmlaVd9qhfODW8h793R35WeFPlkoZ0FK0ytceuml9Prrr5udt7m4YWWqXT7B7IRoJke2LHRVG3cnmW7edYB+GrOA7nx/AHV47Gv637cBddTvRs6l29/rLxFRS1CfZsEJ85ou0VYEmMZqZWgJdPz3w2EC4yrFIQqAiXUTF/GdiGgH43zfvbsb1a9Y3LxjxzPPPKMr970C9MBHjBihVSbdAFP/vhk+h74ePpuGTF9BKzbtoqzKgSqaPze7a+Vs8D9RuURBGjh9uegDRDk4/FvVshfYwvyTITNW0Nt9J9NHA6fT7JWbacfeZP3sPJtd+w/TwKnL6PiJU1S9TBHdfSI44+2336aVKzHuhgWK2iYHlv8lGmsA0vhN2dWBpTNy5sxJGzZsoIIFedOvUAtw1au/0frte807Qho4bJ6/oQN1b4JhVfagf/+hhx4yu8iD/D8mTFaoUMG8wwfh0z79p1PfiYv0Z+rfFInPRT1bVNcPddzsbJG5FtENvnuDXrnROvw/belGev+vKfrm7wSk+q5rX4cub1nDlc9rLIDUJs6h/fv3m3ccc6uy7wLL/xLN7hiUTjARyTFo9wLoCuCAW1mBPDlp7DzRBfg391zaxLUQJHr2b7/99v/cOiIFOgDw39S4cWPzDp+U4yfooU+G6Hzquf56h4+m6hHAw2evoiqlCumIgA3FCuSmAeq2JkQn1UoX1vl/LqfVB/GdP6bQe/2msIpGj6rP9OyVW6j/lKWUdDBFj/eGBHE0cORYKq3ctJumLt1Ag6cv19/LWuUTrCMeSGvaDKtTIDSK8cDpEs0RAIDwB+sURxQAtQDcIUHg5rf+pKXSZ/03uK0+c21bs7NjypQp1KlTJ63/7RVsZ0qkcSz1pJaWnp+41bxzYfCgefnmjtShnl3k4Z4+A2mOekgL0QcG/VzTrrbZOeet3ydRv8nnbClngUmfbWqXoxY1SlPFEryIaziBM75970FaszWJEpWt3ZZEq7ck6ffSHPWO9SvSizd2oCyZ7e/XGFWPiCIT/BdB5emcUqjR7gC0UzYusHTOo48+atUVgLzYvX0GmV1sA8ERDBvJ6EKfPKrsW7RoYRMWc53LLrtMe+u2OXmE+h/9fJi+STgFP9s+911CjauWNO84BykApAKE6APhf27RLYZIPf89XyMlGArljdPFqLXKFaUaZYtS+WL5tVphuDlx8hTt2HeItiUdpG17kgOvyrYmJdPWPQcpRd320wNf/du6NKQ7ujXWa1tQR4RhQBZACe28N4JodwAAFGFYMVkoviEKYNPOJTcq0l/ozx66TI/4tQUSv02aNNGvXqFq1aq67Q+9/7a888dk+mPiYrNzTq4cWanvc9fo9j4OiD50fPxrnYIQogccriPevMXsnIEDr8dzP9K+MKucoqC6eIE8VC4hP5UolEf9HXJRkfg4nV7Nlys75cqeleLU5z1DEKft8RMnddpC2+FjlJxyjA6o1wOHj+rWxYPqdfvewKG/e/9hne5wAqTgn7u+HbWuzVOS/Tdo/atevboeUmfBp8ruCyzTJxYcgF7K/gosnfPwww/T+++/b3bOWbd9rxZaidV+WEgkQ+gHnRG2HDhwQN/8ly3zTp7azaK/vhMW07t/nrNgN2gaVSlJnz7Yw+ycgzYu1B4I0QPC0q/f1tnsnPHruIX0wV9Tzc575MyWhTIaCfFsWTLrdFjK8VQ6dSrwzD2mDn+Mww4V9SoWp1du7kiF8sWZd+x55JFH6IMPPjA7Nl2UjQws0ycadQD+zUBlaAtk8fnnnwc9UCY94L0i9x2L5I3LTu/f092Vwx8qf5dffrmnDn+Mj4ZuhBuHP0L+qKx2A6SeJi/GcEweLWqIPny0Ubs8f87/oGnLzcqboAAPt3jY7gOH9S0eM1nS3gvV4Y+UG4qaP3/oMlcP/yFDhtCHH35odmz2KLvgAIFYcADgBmIkIgsUmb3zDvtf19x9SWMdIoolEO5//55uelSyLZjUd91119kMxHAd5Pq//vprdqfI2azesof+982odFv9uHw5lD/zv06FYmYlRAulC8eblTMg4rNh57nHaccqmKD47eOX0y0XN9CpCrdYvXo13XDDDW50Nv2iLP1ihbOIBQcAoI+CnTT+8ssvueMYNbgB3961kdlFP8jJvXJLR6pZln/rOBukYdBe5xVw+MMpvPHGG807fJBXfeSzYa7n3FGhvGjddrNzRmF1m+HWEAjepHghXvHf3FXeqbXxAhhY9vDlLeiX/12lhY3cZPfu3VpB9ODBg+YdNgh5fB5Ynp9YcQDgCbF1WREF+N///md2PHq3rqHTAbHA/T2bUds65c3ODqhgeUnlDwN/vvjiC90hYgvqQp7+eqQeyBMKRs1hZ76oSTV+J4HgLZATL8J06FZtxoR1AaCT6c8XrqNr29dxpZvpbHDoQ30WEQAXwG0pKBGaWHEAwLfKNgeWzvntt99o7ty5ZuccfGAe7R39Q1d6taxB13dwZyDSr7/+Sk89dc5BVmGnQIECNGzYMLrjDpa+1H9AYZWTXn+nzFjGryCWOfHRQ9H4XOww9fodEv5HGvOj+y/V9UxQ33Sb5ORkffgvWLDAvGPFSWUvB5YXJpYcAEQBXgssnYOczIMPPmiVm2lYpQR1beyOBK4XaVqtFD1xVSuzs2PixIl06623upELc4Xrr79e63FDfMgNhs9aqav+Qwl6mbmphVLMnLHgPWyKcHepz1CsgiLm+y9rRn2fv1Y/20LBvn37qGPHjjRzJrrVXQGj8IMeHBBLDgD4Xhn7WoRf0uDBg82OxyO9W+gxuNEG0huv33axK6GxpUuXUs+ePen48ePmnciAXD+K/FB8+NNPP+kIgBus2LSbXv91otmFFsivckCuU4gOcmTj/y73Hkoxq9gBDhOq+4e+dhPd2KleyMSINm/eTE2bNqXZs2ebd6yB7OzzgWVwxJoDgKfhq4Elj8cee0y3pHFBNwAkOaOJgnly0kf3X0Jx2e0HfEDgp0uXLrrnP1JABhrRh8WLF9OYMWOobVt35IvB3uQUeuyLYVqYJBxA1YxDENoqgk+Iy8abSpmqPjuh7J/3Grjx39GtEQ1+5UZd3Z89hE4whMMwM8SlnH8ayE0mBZbBEWsOAPhJGXtWL5QB0RVgQ+eGlahZ9dJm529wU+xz/6WuVI3v3btX37gjofIHQR+0Gg4cOJD27NlD33zzDdWoUcP8U3fAYfz4l8O10pgghIuczAhArBz+ZRPy05NXt9Y3fjgAUNMMJRju06ZNG9qxY4d5xxUw8W9oYBk8segAIArwSmDJ46WXXqKkJEeO1n946po2vh+JicKiV2/tTBWL24fGEe7v0aMHrVq1yrwTWlDNDw8cRYa45e/atUt/MfHfkD17aFI0b/WdREvWufqlvyDcWwxuf0J0kDEj7zHPjR75AVxcLlYXsa8e6UV/Pn8t9W5VM6Q3foDIMerI0Ofv8hAzpLUfDiydEYsOAIAuwKLA0jm4qT755JNmxwOVuY9f6U7BXKR4sGdzV6rFUeh322230bRp08w77pM1a1Y9Q+Dxxx+n4cOH6+Ib1HS88cYbOuqQJUtonbHvRs4Nu6IappFBL51DuFIUQug5cZInQ54ti/3sDi+BA759vQr09p1daOy7t9Mrt3SiuhXDI3q1YcMGatasWShamlGkcYWyZL1zSCxn+pDYZUvLoUAMxWEI5djw7Hejrfq1I8UlTavS8ze0Nzs7oLHw+utsmYZ0KVu2rL7hY5wmrE6dOiE/5M/FwGnL6PVfJyhHx7wRJjo1qEiv3crTf1++cRfd+OYfZif4mW6Nq9CLNzlXrDx1+gw1uudjs/MnUOzDdMwm1UrpSYORmC6IyOIDDzwQiromeHY4/PvrHYNYL/UZoqx7YOmcSpUq6UIx3C65HD6aSte89httT2I5cBGhjvoiYbofBEZs+e6773TBnQ3I3+OQb9iwITVo0ECvCxUqZP5pZJmwcB099fUIV2V+gyFTxgz0+3PXUJkivHa+acs20kOf4Osh+B1UsqOdjcM1r/6mVSX9AD7zlUoUpFrlEvTsA7zmz53D/NPws337drrzzju1dkiIgEjKW4Elj1h3ACorW6KMnfzBzfXpp582Ox64bd36Tj86aaZXeZliBfLQj09doStmbZk0aZLuq3faVYEcPSIvqM5v3bo11a5dmzJmDL9nfyEmLFxLz347OiL59Ad6NqcbOvIFmQZPX0Gv/DzO7AQ/Y/NZgOM6afF69XlYTnNXb/FMYSDC+eUT8lOF4gWocslC+hW3fa+kLX788UctYb5//37zjutA2O62wJKPNPsQIcZ13pnJ5wOHESbUIeRsA3LEnw12TQwiJOTOkZV+ePJKKlnYfsAPfmbNmzcPWvc6d+7c1LVrV7rsssu0alZcnHvTt0LBb+MX0Yd/TXU8V9wN2tUtT2/e3sWqle/PSUvo7b6TzE7wM49c0ZKuaVvb7PgcSz1JCxK30bKNO/WlZe22vbTngPPZ+cESr27vaDHGbIoShfJqRb60V3QdebFVFZNjcetHnVEIQQ3bzcqsvTFxAIhQwg7dZPaphgNpxIgRZscD36FnvhlJY+cHJeEcdhBe+/iBHtSgUnHzDh+0vyA/DyGMC1G9enW67777dIse+vO9Dh6GH/SbSr9PYNeYWoGQPyI0th0mv41fSO+rv4fgf1BsfGWbWmbnLohuYfzujr2H6MDho8qO6deDR47p4l7UEWBcbxqYEpo1cyBahzW0QyC8g8tF4DWbPvQL5M0ZkXw9lxMnTtBnn31GL774Yqg1TNDGfosyV0Ix4gAEeEyZ1czfr776im6//Xaz44HK69vf608rlHftNZ6+po3W+bfl6NGjOnx/IfUrOFUQXXJThCfUoL//+R/G0LzVkZmghkP/p6eupNJF8pl3+Pw0Zj59NGC62Ql+BoWgKAgVQsPIkSPpkUceCUcL84/KcPi7liuO1TbAf4M0wPrAkgc+ABAJsgEe8bt3do1o4Up6XNOujiuH/6lTp+jKK6887+Ffq1YtXRuAiIpfDn/c+tHid9Urv0bs8Icmwys3d3Tl8Ad+qEcRgqOguk0L7oMDH2lJKJeG4fBH/6Crhz8QByAAROetGvsPHz6sBR5wyNlQKF8cvXt3N88Us7SuXY4e6tXc7Ox44oknaOjQ9MWqIMwDgSVMXGzVyj/6CAvXbqdb3+5Hr/4ynpJTIjO7ALnQZ69rR61q2dWhnI04ANGDOADugrn9Dz30ENWsWdM69RsEOFAeUPagMte/lP5JsoSeFcrQK1NO7xhs2bKFMmfOTC1b2mn9o+ilepkiNG7+Wj0zPlJUK12Y3lfOCARlbEG737m6JfLnz6+HLN18882erOZPj7nqpv/GbxPo88EzafeByEr7PnpFS7rchQjN2cxeuUU7N4L/ua9HU1dadmMdSITjkoJ6pKlTp9Lp0D+b8WBBnz+K/kKC1AD8kwrK0BbInp8JBwAKc/Xq1TPv8JmxbJMeHBOJNrKyRePpq0d7udLuN2HCBOrcubMulPk3mLCH0b8o9vM6yUeO0bgFa+mvKUspccse825kgXY5zG0+GjCNfhrjynxyIYJA137i+3eancABsu/vvvsuffrppzrSGyY2KOulbKHehQhJAfwTlOC/GVjywCEHD9GND0rT6qXozTsu1hX44QR55M8f7unK4Z+YmEi9e/dO9/DPli0bjRo1ytOHPwozx8xLpEc+G0adnvxWK/p55fDHxLJQHP5AUgDRASrqBR4rV67UCn5lypSht956K5yHP3oI6ysL6eEPxAH4L3AArLR5URCCcDbaYGxpWbMsfXivO6N2gwGTsb5Qh78bhYjQ2+/evbt+TY/33nvPlUiJ26CNCYf+89+PoQ6Pf0PPfDOKpixZ75nhKCj4w/QyzCwPFVz9eMFbFMzrbb0Mr4GLyp9//qk7lapWrUoff/xxOA9+PGCQJ4U6bfoPTZeRFED6IIk/UZmVg/Tmm29aDw1KY/PuA/Twp0Np066QKUtR/UrF6Z07u7oyDhNfJLTyYV5CetStW5fmzZtHmKkQaVBnAbnTOSu30OxVm2n+6m0Rrb04HygOff22i10ZwnQ+Xvtlgp5hIPibbk2q0Is3Op8DEEugcBs5/X79+lH//v31ZNAIsEnZjcom612YEAfg3KDt4v7AkgcK2lAl2rFjR/OOHbiZPvHlCFqwZpt5xz3Q5vfYFS1dKxaCJgJm6p+LQYMG0aWXXmp24eXo8RO0ctNuWrJ+hy50w88T73kdKKN9cE93XZwZal76cSwNnbnS7AS/cnPn+nRvj6ZmJ6SBCwoO/b/++osGDBgQqUM/jX7KUKgRutvdORAH4NwgeYaCQKveKlS4o7UNeSQ3gDZ334mL6PMhs1w5tJBaePLqNno2tlu8//779Oijj5rdf8mTJ4+uqEXBZDhIOniEFqmDfvG6HbRy824ttOS3efcNK5egl27qGLaWrue+G00jfTilUvgnT1zViq5oHRoVQL+xfPlyGjdunDZojYQxtH8uUEx0h7JBehcBxAE4P62VTVBm9XPCsJopU6ZQrly5zDv2YHrga79OoNkrLyyney6gGf/YFa1cPVTQ5w+9/vPpIVx++eU63BYKMKwEhzwO+8XrttPSDTtpXzJGZvsTRGTuvbQJXdu+bli1z5/+2ruy1ELwYPZ92zrlzS52wA1/0aJFWnQMhk4kTOfzEGjte0RZREctigNwYT5Q9lBgyaddu3Z6QITN6OD0mLliE30/ap4e0hEMGdQp0qhKSbq9W0OqWbaoedcd5s+fr4tnDh06ZN5Jn6eeeoreeOMNs7MDdZart+ymGcs30Uxly9Tt3ivFeragIPOlmzpQlZLhH2382BfDadIiO2VLIfJ8/+QVVKNMEbMLnlmzZun2N6hx5sjhLWXSfwN5cVTsr1ixQtcVzZkzhxYuXEjHjh0zf8JT4Et1lzJPjNoUB+DCQBMA2rU19c4C3Hz79u0bErGbjTv30+i5q7WAS+LWPXpyVxr5cmWnMkXjqbE6+DvUr0AlCtpP8/s3a9eupWbNmmmVrAvRp08f3V5jw/rte2nYrJU0dt4a2rHv/A6H30ARJtr7rmhdkzJmiEyjDgpOpy5FK7LgZ4a+fjMVjXceeYSD/swzz+hW3fr161OjRo30AK86depQ6dKlwy7YhRv91q1b9QCxDRs26E4rHPgw7MMgymMLwpDvKcPN5yje8ALiAARHVWXzlFk3xt9xxx305Zdfml1oQJ3A4WOplKIMA2IwaSuU7Ny5Ux/+69cHN04BPbWQBeaCav1HPh/6DycnGkB05tJm1XR7H5y2SPLgJ0No+rKNZif4EXyepn98D6uw9/7776dPPvnE7P5JlixZqHz58lShQgUqWbIkFSlShIoVK0aFCxfWY7vTLC3liT+PSZ5oi06blIdbe9oNHW3CsL1792pLW6NOCAf+xo0b9QRRHxzy6YFe8L+U4YHnuS+UOADBc6+y9L8RDvnf//5Hr776qtn5m+TkZGrdurUOuQULDn84ATZs35tMnw2eqfv14fD4GTygOzeoSNd3rKcVGL2AOAD+J145kWPe4U0o7dWrl66OF6zAPG3k+XF59CQiBBQ8nyr7M7C047XXXtPhNTeEgiLJkSNHdCufk8MfLFmC5go7EvLnpldv6UT9XriOLmla1TPDk5yQI2tmPWlx8Cs30gs3dvDM4Q/8/tkUiIowQv9pbNvmfqtxDIHKbPT0Y6qZZw9/IBEAZ+AbNUdZZb2zBNMDv/32Wz0Jz2/s37+funXrRjNmzDDvBE/27Nl1iA+vbnH4aCqNnLOKxsxNpMXrES705gEGFb8GlUpQl0aVqE3tcjpF40Ue+HiwLqwU/As+X+/c1dXsnIHQPoabCY6A14TQJnK8qXjD64gD4Bw0zMMJyK13llxyySW6MNDNwzDUIB+H4T42N/lffvmFrr32WrNzl4NHjunwNWbzQ+wH6omRvNBmzZyJ6lRIoKbVSlGHehXD1sv/+++/09VXX212zrjvo0E0awW/xVSIPNe0q02P9HY+mRQFd3ge2Y42jyHgKaHA7ytlninwCwZxAHhgRGNfZa78/JBDR74tX7585h3vsnr1aurUqRNt2mR3O6xWrZp2IDKEocodDgEcgTVbk7TkL4b5bN1zkE6HyCtAAV+F4gWoWqnC1LBKSapVtqgrI5WDBeH7F198UXdbpBVdOeXePoOsNCaEyPNI7xY6xeQUFN25JVwW5eAhiNkx3ynzxY3/34gDwOdFZS8ElvagteaPP/6ghg0bmne8x7Bhw+jGG28853Afp2C85j333GN24QWCQVuTDtI2ZXAGduxNpgOHj9H+Q0dpb/IROnLshLJUXXkMRyFF7aGamDFjBsqRNQtlzpSB8ufOSYXzxekbfaG8cVSqcD598LsxSIkL6jLwO4Kmed68eXWqhsM9fQbqbgvBv3BFgCZPnqwvJUK64NaAASe47UPBz/sa4udBHAA++Nn9ruxKvXMB1AI8++yz9Nxzz4XlZhwsJ0+e1IWLL7/8squtOBAYgXhQ5cqulFTEPNBiwOhlKKCB+Ph4XWvB4Z4PlQOwShwAP/PTU1dSVcbciJ9//lnXJwn/AF+k75Uhv78Wb0QD0gXAB57gzcogEuQKOGgRuoWULvfB7TYI9bdo0UL/d7ndh5uSkqILCaEjINiBoSYNGjT4+/AHNpMWpQvA/xTJzytTQu+9oEE+f6AyFCsVV/a4sqg5/IE4AHbgA4Iy2xV65xJDhgzRIhvolU9NjUxqCYVAH330EdWoUUPLgoaKdevW6bHBkB0VnIOBJjfddJO++f87328TRZLj39+g5iRfHK+wOMar//FMH6YMbXwIn/RU9psyT+oK2yIOgD24qndW5uq3BrlbaObXrFmTRo4cad4ND5jhjwFGDz744AV1/d0At1ZIjaLAUAgefC6qV69OP/74o3nnn9hFAMxC8CXQAOD++m0LfH0Ipl4hp4/55BDj6K7sJ2XRpTGeDuIAuAMO/07KMN7RVXAodunShbp27apHWIYKhPfRidCyZUtq37691tgOJ5ARbtKkiS5eE84P5i1cc801+nNxvoe1XQRAPAA/YyMCFAMpAPwF4TXjll9CWUVlmMc/RFlU3vTPhTgA7rFSWVtlF56Gw2DEiBF60l7dunW1RrdblfgI933wwQc65QD5z6lToV4ZGRD1wMCkW2+91bW/XzRx/Phxeu+993TRJHr8L4RNBEDOf39TNJ4vUxJlKQCE9Gcqg4w7arYqKCul7CZluOVvVRazWDwhhHNQTdkEZSGd4YqOgebNm+v8OQbxwDEIRkwIhyz67xFNQK0BZHy9WPBVqFAhevPNN+n666/3pVKim+D3069fP3r66aeDHrgEMKAFE9Q43P7uX7RwrafmpwsOwDRJmFPgeOfPn9/sfAd6Xlcpm3+W4WIWXVPDXEQcgNCA6YFjlBXTuzCQOXNmKlGihBbwwFSuuLg43WaHIrGDBw/qIrs1a9awD4RIAX0EHHy33HJLzDkCSMsg8oP2y7lz55p3g6d48eLs29xtygFYJA6Ab8Fsie5Nqphd8KAeByN/PcxhZajER94+zVA8hFepJHaIOACho6QyVO/BGRAsqVSpEj355JN01VVX+Uo2mQPEfCCV/M477+guCS7Qc+cWdN36Tj9avG6H2Ql+4/OHe1KDSuhcc8bgwYOpR48eZhc0g5XhLCmoDJXzkDTFPq+yc4Ge4oPKMCcfYXqsj5g10qjoDYYHuksZNPbxHm4vcAAEl5AagNCBQpMWyqbrnWAFiiERBcDs8TvvvPMf/e7RwsqVK3XnBw7uu+66y+rwB1ZdAOZV8CdF4uPMyhnMAsAHlKGCvqmycspQSZ/mBPzb8H42ZdDGxp+Dl4K8fH1lmJ6HjiqoEGF+/ofKUOwyRRlC+3L4u4w4AKEFlWztlf2gd7FDyHJuycnJ9NVXX+kwJVoVX3nllbB3LLjJhg0b9E0fIj5Vq1bV2g9uFUBaFQEKvgW/9sL5eF0AjJQRvutOckUQqzgeWAqRRhyA0IO2ElSfwkuOhWIUVKk1UPax3oWQxYsX0/PPP68HC6H24fbbb6fvv/9eOwRuqxa6BdQeZ86cqR2X+vXrU9myZemJJ56gefO8NTb8jEfHKQsXBjMqsmTiDZ9ipIxw+EuRnU+RK0J4QUrgF2WoD4hGhipD+A5ePj5b6LW9XlnYyZMnDzVu3FhbvXr19O0aBYUZM4ZvKh9AAeaCBQv0zIMpU6boQSuIYoQDFIVye7pveutPWrZBJJr9SPUyReiHJzGw1DnQ4nCo/DlNGZ5rgg8RByD8IAf2hTLeN9SbIKT3vLJ3lJ19dUTZPsYm99K7CJM1a1bdQw+rUqWKjhoULVqUEhISdG0Bt/0JMw0gzoNwPvL2GMoDQ7slXiPVZom/17ZtqJ9yjjgA/qV9vQr05u0Xm50z0Dq6fbuj7g/I5EIrX/Ah4gBEjuuUva8MlbN+Bv1pSHEs17v/gis3innu0zsPAwcBLZS5c+fWa7RR4jVnzpyUJUsWLYuMED7mM6BSH62VMKy9CJyaHTt4lfy3vN2PlqyXLgA/cn2HuvRgr+ZmFzz4XKPDxmH67C1lTwWWgt8QByCy4MqJWzNUqfz2u8Cp95oy/PcHkwN8RBn+rNSdhImCBQvqyAQHEQLyL49d0YqualvL7IIHIlPlyqGI3xEPK4ODL/gQeRhHFgwSukUZ3HW/tAsinv2zMgzxf0NZsAVAiHZ0U4a+XiEMnDp1yqycYzNHQIgs3BZApmYE+vgFnyLfcm8wQxmcAChwLMMbHmWUMuiLotCPIykIYSRcTcI73jBGsemEyJhBgoN+pWh+3hwAZsEohHsEnyIOgLeAolZNZV2VYZ6AF8Ap8peyespQWeRck/afIAKAv9+9yv45wF5wFZsIQEaJAPgW7iRAcQBiD/mWew+E2Ecoa6cMt2Xk10IyYfACbFT2orIyynorW6DMLfB3/ExZJWUQSYpMmXyUYxMByCARAF+SLUsmypMTQnvOYToAMTU+N9oQB8DbLFGGIhvIZSJ/jkMz+HFwzsGQjfeUQZIT1UAvKeM1kgcHHBt0EDRTNhlvCO4hEYDYw2YMsEQAYg/5lvuDE8qGK0PYHAczbs53KoNDACEOjrIMqvhxq/9K2Y3KyiuDJvdjyqC9HU4pPczrbq2sjTJxBFzCzgGQCIAfKZqfF/4H4gDEHvItjw7weyylDJGCBGWYwpVH2dkO3iFlUHbZowzfdJhXQ++ICEA3oKeyLHhD0GDkKeabX6J3FwCqh9At4PDkVyNo/AIEhAQ/0bNFdXrm2rZm5wyMEGdoWtRVtjCwFPyGOACClymi7HZl0EkoizdikFRlkFiGeuR4ZZcr+1NZUHBVCJ/5ZhSNmZdodoJfuOfSJnTLxRjF4QwIWkE3gkEVZZjUJ/gQSQEIXgYRi1eUIe3RWBkKImNBnQanNlI7dykrqgyH/jhleN9R0RU3DSApAH9SrAACf85hhv+BpAB8jDgAgl+YrQwFkcWUVVcG+VEcirghRwM4qSEG9ZAyDIvCgJUvlf17NrCjUarcCIAIAfmTYgV4RYCYY8EkPJOthJAg33LBj2DuADTIOyiDnHJ7ZWhZHKPMLw8knMxLlSGq0V0Z6jYgBtVH2flEliQCIJyTBGYEwMIBOGxeBR8iDoDgd/AAQm4cLYudlGHaIrokrlL2trKxyrYoizSIsQ5ThqmJnZXBcYHoE6IaeD/YB2mYHAB5NPiN7FkzU7647GbnDKYDgM8iOpQEnyLfciHaQPsiqtf+UPakso7KEFJHf1R9ZRhd+j9lKKqD4BKiCVAn5JXL/z/QRId4EnL3mJXwqrLblDVVhmsZujRw00dNw2hl+5VxcOQAcMWARAjIf0AC+CLmr43pAEj43+fIt1wQ/p94ZYggIByP9sOcyjBZJbOyNHDQIw9/UBmcBgx0SlIWrqEoFZWtDiwvzIEDByhPHudh4bf7TqY/Jy02O8EPtKxZht6/Bz6mcypXrkyrVwf9sUpjnTLohwg+RSIAgvD/oOAOD7X5yiBOhCLDQcr6nWUQZML7mImA/meE9sM5Ec1RESA3BZApo9wN/AZ3CBAKRZldABIB8DniAAiCv3CUAkhN5TVJXMSNJQsRg9sCuGPHDjp6lNXNB3ExwceIAyAI/sKRA3DsmKM//jdSBOg/ItACKA6Az5FvuSD4i7A4AJkyyqPBb3BTABYOAOpgBB8j33JB8BeoAQi6tP/4cUclA3+TNXMmsxL8AjcCsH49e8AoCmAFHyMOgCD4j6BPdW4EIEvmjGYl+IG8cdkpZzbe3CyLCMC/VSoFnyEOgCD4j6BPdX4EQBwAP5HAvP0DcQBiF3EABMF/BO0AcCMAkgLwF8WY+X9g4QBICsDniAMgCP4j6J4tfgpAHAA/wY0AnDhxgrZt22Z2jpEIgM8RB0AQ/IekAIR/wNUA2LRpE1ssSiERAJ8jDoAg+A9JAQj/ICH8LYCAO89C8AjiAAiC/wi5AyApAH9RrGBEHACJAPgccQAEwX+EPgWQSVIAfiHDRRdR4XwYdukcCwcAGtMSAfA54gAIgv8IevgQOwWQRSIAfqFg3jjKwnTYLByA3crOBJaCXxEHQBD8R9Aa7PwUgEQA/AJXARBYOAA7zKvgY8QBEAT/EbQDwE8BSATAL9g4ABYywDvNq+BjxAEQBP8RegdAUgC+IYHZAnj48GFKSkoyO8eIAxAFiAMgCP4j9CkAKQL0DREYAwzEAYgCxAEQBP+RbF4viOgARD8R0gDYZV4FHyMOgCD4j6AjAEePBq0a/A8yZ8qo28sE7yMOgMBFHABB8B9BOwDI83LA2Q8nQPA26NYokDen2TnDogAQbDavgo8RB0AQ/EfQDkByctDZgv+QI1tmsxK8StH43OxIzcaNG82KxSbzKvgYcQAEwX8EfapbOQBZs5iV4FUi1AKI1hIIAQk+RxwAQfAfYYkAxGUXB8DrcKcAAosIAML/ogIYBYgDIAj+I2gH4NChoP/of8gpDoDnKVGI5wDs2bOHXR+ikPx/lCAOgCD4j6Cv9QcPHjQr58Rly2pWglcpXjCvWTnDsgBQ8v9RgjgAguA/gr7Wp6Sk0MmTJ83OGZIC8D4lC/EcgDVr1pgViy3mVfA54gAIgv9AERbGsQYFNw2QM5s4AF4G1f8JzCLAtWvXmhULKwEBwTuIAyAI/iTkhYBSA+BtisTnYks2W0YArP5lwTuIAyAI/iT0DoBEADxNcWYBILCMAIgDECWIAyAI/iToU10cgOiEm/8HFg4Aqkr3BJaC3xEHQBD8ScgdACkC9DbFmRoA+/fvp3379pmdY+T2H0WIAyAI/mSveb0g4gBEJyUL8yIAiYmJZsVCHIAoQhwAQfAnIXcAJAXgbbgaAJb5f6t/WfAW4gAIgj8JOg/LjwCIEJBXQQsgdw6ApQOw2rwKUYA4AILgT5LM6wURHYDoo1C+OMqaOZPZOcPSAVhmXoUoQBwAQfAnQacAuHLAUgPgXSLUAQBJyVWBpRANiAMgCP4k6AhAUlLQf/Qf5M6ZjTJmkEeEFyldJN6snGMhAoTwP1QohShBvt2C4E+CrgHgOgDIM+fLld3sBC9RuggvAoAWwL17gw4e/RsJ/0cZ4gAIgj8J+lTH6Fcu8eIAeJLShXkRgJUrV5oVi6XmVYgSxAEQBH+yy7xeEG4EAMTnzmFWgpcoXTSfWTlj1SqrFL5EAKIMcQAEwZ+gtD+o/j67CIA4AF4jR7YsVDBPnNk5w9IBWGRehShBHABB8C/bzOt5SUlJ0cahQB5xALxG6SL56KKLzMYhFg7AbmWbAkshWhAHQBD8S1AOAOCmASQC4D1KF+aF/4FFDcBc8ypEEeIACIJ/CdoB2LUr6JKBfyA1AN4DEQAOx48fpw0bNpidY8QBiELEARAE/7LVvF6Q7du3m5Uz8osD4Dm4GgDo/z916pTZOUYcgChEHABB8C9BRwC4DkA+SQF4Dm4EwLIAcJ55FaIIcQAEwb+E3AEoIBEAT5EtSyYqxRwDbJH/36gMRYBClCEOgCD4FzyYg4LrAOSNy04ZMjBLzgXXqVi8IFue2SICMM28ClGGOACC4F/WKTsTWJ6fbduCDhb8Axz+cAIEb1CxRAGzcs6yZWwdn0nmVYgyxAEQBP9yRNnOwPL8cCMAoEh8LrMSIk2VkoXMyhlHjx6lFStWmJ1jJptXIcoQB0AQ/E1Qs123bg26YeA/FMuf26yESFOpREGzcsaSJUvo5ElM83UMPEf2/GDB24gDIAj+JqiHM6bAHThwwOycUVQcAE+AAsByCfnNzhnz5883K8fI7T+KEQdAEPxN0LczrghMgjgAnqBmuaKUOVNGs3OGOABCeogDIAj+BoWAQbF+/XqzckZCAXEAvEDtcglm5ZyFCxealWPGmFchChEHQBD8TdC9XdwIALfvXHCXuhWKmZUzUAC4fPlys3MEPlts7WDB+4gDIAj+BuouqYHl+eFGAFADgPyzEDkQ+q9epojZOWPGjBmUmhrUR+TfjDSvQpQiDoAg+Bs82YO63nEdgAwXXcTWnxfcoU6FBLYTNmkSu41/hHkVohRxAATB/yw2r+fFog+cyhYVByCStKxR1qycM3HiRLNyxGFlUwNLIVoRB0AQ/M8i83petmzZwm4F5LafCe7QomZps3JGSkoKzZ3LGuQ3XtnxwFKIVsQBEAT/E5QDAJjFYFS9TGGzEsJNWeV8FSuQx+ycMX36dG7+v795FaIYcQAEwf8gBRDUTIClS5ealTOqlCrMHkIj2NG6Fj/8P27cOLNyBG7+QwJLIZqRb7Qg+B/E9YNqB+RGAHJkzUzlikkaIBJ0aVTZrJwzePBgs3LEaGUHA0shmhEHQBCig6AU2ywU4ahBpeJmJYSLmmWLUuki+czOGXD2Vq9ebXaO+Mu8ClGOOACCEB0E5QDMmzdPF4ZxaFO7nFkJ4aJbkypm5Zz+/VlpfAn/xxDiAAhCdBCUA3DixAl2FABa9Plz5zA7IdQg7dKxfkWzcw4z/D9cmYT/YwRxAAQhOtihLDGwPD+oDOcAQaBLm1UzOyHU9GheneKyZzE7Z2zcuJEWLFhgdo74zrwKMYA4AIIQPUwxr+dl6lS+vkvvVjXZE+mE4MHP+Nr2tc3OOT/99JNZOWKnMhQACjGCOACCED0Epd0+fvx4Sk5ONjtnFMybkzrUq2B2Qqi4uGElKpwvl9k54/Tp0/Tdd6yL/PfKTgaWQiwgDoAgRA+jlF2wwu/48eM0YgRf5v3qdvybqXBhcPu/qXN9s3PO2LFjadOmTWYXNNCRgAMgxBDiAAhC9IDDP6goALNCXFOlZCGqU54/m144P1e1qUUlC/FHMH/99ddm5QgUka4JLIVYQRwAQYguBpjX84IIAHcuALi6XR2zEtwkPld2urVLQ7Nzzq5du2jIEFYX34fmVYghxAEQhOhimLILDnGBFsAPP/xgds6BPC1Xn144N/f2aMqu/Acff/yxbvV0CG7+QwNLIZYQB0AQogtU940NLM/Pp59+SmfOBDVC4D9kyHAR3daVf1MV/kvTaqXokqb8NsuDBw/q3ymDPspOB5ZCLCEOgCBEH/3M63lZu3at7gjg0rVRZSpbNN7sBBsQ+n/hxg500UXmDQYffvghJ62zXxk/FCT4GnEABCH6QBI4qFnun3/+uVk5B1GAuy5pbHYCFxz6L97U0UplEW2dffrgIu+Yz5QdCSyFWEMcAEGIPnANHBNYnh8UjK1bt87snNOmdnmqW6GY2Qkc7uvRTIf/bUDuf/9+XOYdAcnf9wNLIRYRSS9BiE7g3PcMLM8NRGOOHTtG3bt3N+84A7fXaqUL08Bpy+k0s54glunZojrdf1kzs+Oxc+dOuvrqq7W+g0PeVhZU26gQnUgEQBCiE6QBjgaW5+fHH3+krVu3mp1zyibkpyta1zQ7IVgwXfGpq9uYHZ+HHnqIo+yIKNEHgaUQq4gDIAjRySFlmOx2QXBzfO+998yOx92XNKGShfniNbEGpH7fuP1iXUdhw5QpU+jPP/80O0fg8OcLQQhRgd2nTxAEL9NL2V+B5fnJkSMHbdiwgQoVKmTecc6KTbvplrf/pJOnpKPsfFzVthY90rulnq5ow8mTJ6lu3bq0dOlS807QbFdWSdlhvRNiFqkBEIToZYOyB5Rl1bvzAPGYzJkzU7t27cw7zsGgoJOnT9OCNdvMO8LZZMqYgR7u3YLu7NaYLrI8/MFzzz3HlXS+R9m8wFKIZSQCIAjRzc/Krgssz09cXBwlJiZS0aJFzTvOOX36DD3y+VCatnSjeUcAReJz0eu3dqaa5fg/27OZPHmydtZOnTpl3gmaWcqaKpOKTUEiAIIQ5aQquyawPD+pqam6lezSSy817zgHN9vmNcrQpMXr6MDhY+bd2KZ9vQrU575LXKuR2L17N3Xo0IFT+IdDv7cyfsWnEFVIBEAQoptMynAdD6pZP2PGjDR//nyqVauWeYfHlj0H6Na3+9G+Q0E1IkQlxQvmoceuaKUcotLmHXsg3dy1a1caOZLVvfeNstsDS0GQCIAgRDuoyMPVs5XeXQAcMMuWLaObbrrJKk+dJ2c2alq9NE1YsJaOpp4078YGWTNnolu7NKDXbu1MZVyWSn7mmWe4Q5xQ+HeZMgnLCH8jDoAgRD9rlaEYMKi2382bN1ORIkWoQYMG5h0e8blyUIuaZWnCwnWUctzxhDrfkSVTRrq0WTV6586u1LJmGcqY0d0u6y+//JKeeuops3PM9coWBZaCEEBSAIIQG0AToEtgeWHy5MlDy5cvp2LF7GV+N+8+QI99MZzWb99r3okucmTLohX9buhQl+It9PzPx8CBA6l3796coj/wizI4AILwD8QBEITYoL2yoMYEp9GlSxcaNmyYKy1rKcdS6YUfxtLERfy5A16jcslC+uDv3LAS5cia2bzrPhD76dy5Mx09yqqn2KKstrJ9eicIZyEpAEGIDdYrg+B/gt4FwZo1a3QkoEmTJuYdPpkzZaQO9SpSrhxZaNG6Hb4VC8qXKzt1bVyFnr66Dd3ZvTFVKVVI/91CxYgRI3RXBvPwR/HFJcpW650g/AuJAAhC7HCVst8Dy+CAONDUqVOpUaNG5h17dh84TO/+MVnXBviB3Dmy6lqG9vXKU5OqpbSgTzj47bffdDEmRJqYPK7s3cBSEP6LOACCEDugJTBRWRm9C5Ly5cvTnDlzKF++fOYdd5iyZAN9N3IuLduw07zjDSDRW7lkQWqsDvsm1UpRzbJFKGOG8I5NwXhfDPnBtEYmQ5VB0EEEf4RzIg6AIMQWNyn7PrAMntatW9Po0aMpS5Ys5h33mLt6K/04eh7NWbklIiOFUeJQunA81SpflOpXLE6NqpTUof5IgMFMDz/8MH3++efmHRZrlDVWJnl/4byIAyAIsQWusvOVoTDMEQhHf/+9Y98haPYmp9D4BWtp3II1tGjN9pA5AzmzZaHyxfKrm31RqlMhQb/mjYvMgX82GMaESn8IMVmAQx9FG4j0CMJ5EQdAEGKPrsqGBZbOePnll/UQmlCTnHKcVmzcRSs27aJlG3bRmq17KEk5CCdOBtcGh5B9vLrFY0BRiUJ51YFfQB/65RLyU0L+3OZPeYchQ4ZoBwtSzBZA9rmzsol6JwgXQBwAQYhNxitrG1g6480336Qnn3zS7MLLgcNHaZ9yBCAxjMFD/0A9zSA+hIM/n3p1oXsx5Ozbt4+eeOIJ+u6777QKowX4l29UhuFPgiAIgnBO6ihDeTkODsf28ssvq/NKsOHPP/88U6hQoXR/vg4NlYL3KxMEQRCEoHhLWXoHSlD24osvmqNMcMKaNWvOdOrUKd2fKdMiE44RBEEQfEtWZSuVpXeoBGVXXXXVmZSUFHO0Cedjy5YtZx588MEzWbNmTfdnybSnlQmCIAiCY1orQwg5vcMlKKtTp86ZzZs3m2NO+DdJSUlnnnzyyTPZs2dP9+fHNPzOHlYmCIIgCGw+VZbeIRO0FS9e/MzkyZPNkSeAdevWnXnkkUfOxMXFpfszs7Djyq5WJgiCIAhWIBUwR1l6h03QdtFFF5254447zhw6dMgcgbHJtGnTzvTu3ftMxowZ0/05WdohZZ2UCYIgCIIrlFKWpCy9Q8eRlS9f/szUqVPNcRgb7Ny580yfPn3OVKlSJd2fiUu2VllNZYIgCILgKu2UYYJceoePI0M0ALfgxMREc0RGHyh+RCtf9+7dz2TOnDndn4OLNlyZu8MYBEEQBOEs/qcsvQOIZTgY77zzzjNbt241x6a/QUHfb7/9pp0bl4v6zmWQPoT0ooi2CYIgCCEFB803ytI7jNiGwxL1AXPmzDFHqT84ffr0mQULFpx57bXXzjRt2jRUef1z2UZl6NIQBEEQhLCAscGDlaV3KFlbrVq1znzyySdn9u/fb45Z74ADf/ny5We+/PLLM9ddd92ZhISEdP8OYTA4YbmUCULIkLCSIAjpgc6A/sowOCgkZMuWjVq2bEkdOnSgjh07Uo0aNeiiMAv4p6Sk0JIlS2jGjBk0ZcoUmj59OiUloRYyYmxSdp8y1rAmQXCCOACCIJwLOAF/KeumdyGmSJEi1L59e2rSpAnVrFlTW+7c7kzuw5z99evX09q1a2nlypW0aNEibYmJiXTqVHATBkMMevvfVfa6shS8IQihRhwAQRDOB9IBnyu7Te/CTOHChalMmTLaChYsSPnz59eWOXNm7RxkzJhR/7lDhw7RyZMn9Y0eI3X37NlDO3fu1Lf5TZs20datW+n0aYjneRJU+D+iTGb4C4IgCJ7jQWW4KqeXrxbj2SxlbZQJgiAIgqe5UlmysvQOM7Hgba6yS5QJgiAIgm8orWymsvQONrHz2zRl3ZUJgiAIgi9BceCHyqymCMaIHVb2lbLaygRBEAQhKmihbImy9A6+WLdlyh5QlkeZIAiCIEQd6BJAgeBBZekdhLFkEBD4UllzZYIgCIIQExRT9oWyY8rSOxyj1bYp+1QZBikFehIFQRAEIQYprqyPMojZpHdg+t0wLXG2sleUNVWWQZkgCIIgCIbCyl5TtkVZegepnwzyvF8r660sXpkgCIIgCBcAN+T2yn5UdkhZeges12yDsl+U3aOssjJBiEpEClgQhHARpwwCOBgw1FFZAWWR5oSyhcpmGJuubLsyQYh6xAEQBCESIDJQS1kzZcil11dWTlkoc+roVEB73qKzDHsULgpCzCEOgCAIXiGHsqrKKiqD4iAsQRny7vmNwUHAn4MYEYSIcKgDSBRDdGePst3mdaeydWfZXmWCIGiI/g9eruNMlsH/+QAAAABJRU5ErkJggg==;" parent="tv60x9gzvXhbaiR4rFQU-1" vertex="1">
          <mxGeometry x="-20" y="-9.997415730337195" width="32" height="32" as="geometry" />
        </mxCell>
        <mxCell id="tv60x9gzvXhbaiR4rFQU-5" value="" style="edgeStyle=orthogonalEdgeStyle;rounded=0;orthogonalLoop=1;jettySize=auto;html=1;entryX=0.51;entryY=0.03;entryDx=0;entryDy=0;entryPerimeter=0;strokeColor=#808080;exitX=0.479;exitY=0.957;exitDx=0;exitDy=0;exitPerimeter=0;verticalAlign=middle;endArrow=none;endFill=0;" parent="1" source="tv60x9gzvXhbaiR4rFQU-2" target="tv60x9gzvXhbaiR4rFQU-4" edge="1">
          <mxGeometry relative="1" as="geometry">
            <mxPoint x="654" y="374" as="sourcePoint" />
            <mxPoint x="655" y="488" as="targetPoint" />
          </mxGeometry>
        </mxCell>
        <mxCell id="tv60x9gzvXhbaiR4rFQU-4" value="EventStore" style="text;strokeColor=none;align=center;fillColor=none;html=1;verticalAlign=middle;whiteSpace=wrap;rounded=0;" parent="1" vertex="1">
          <mxGeometry x="624" y="386" width="60" height="30" as="geometry" />
        </mxCell>
        <mxCell id="tv60x9gzvXhbaiR4rFQU-6" value="External sources" style="text;html=1;strokeColor=none;fillColor=none;align=center;verticalAlign=middle;whiteSpace=wrap;rounded=0;" parent="1" vertex="1">
          <mxGeometry x="384" y="-250" width="60" height="30" as="geometry" />
        </mxCell>
        <mxCell id="AwfPjfsMhh4GiaTj0pVG-7" style="edgeStyle=orthogonalEdgeStyle;rounded=0;orthogonalLoop=1;jettySize=auto;html=1;entryX=1;entryY=0.5;entryDx=0;entryDy=0;strokeColor=#808080;jumpStyle=arc;" parent="1" target="AwfPjfsMhh4GiaTj0pVG-1" edge="1">
          <mxGeometry relative="1" as="geometry">
            <mxPoint x="654" y="290" as="sourcePoint" />
            <Array as="points">
              <mxPoint x="654" y="290" />
              <mxPoint x="488" y="290" />
              <mxPoint x="488" y="341" />
            </Array>
          </mxGeometry>
        </mxCell>
        <mxCell id="AwfPjfsMhh4GiaTj0pVG-10" value="Write" style="edgeLabel;html=1;align=center;verticalAlign=middle;resizable=0;points=[];" parent="AwfPjfsMhh4GiaTj0pVG-7" vertex="1" connectable="0">
          <mxGeometry x="0.6345" y="-2" relative="1" as="geometry">
            <mxPoint as="offset" />
          </mxGeometry>
        </mxCell>
        <mxCell id="tv60x9gzvXhbaiR4rFQU-8" value="SagaWorker" style="aspect=fixed;html=1;points=[];align=center;image;fontSize=12;image=img/lib/mscae/Virtual_Machine.svg;" parent="1" vertex="1">
          <mxGeometry x="629" y="194" width="50" height="46" as="geometry" />
        </mxCell>
        <mxCell id="tv60x9gzvXhbaiR4rFQU-9" value="SagaWorker" style="aspect=fixed;html=1;points=[];align=center;image;fontSize=12;image=img/lib/mscae/Virtual_Machine.svg;" parent="1" vertex="1">
          <mxGeometry x="628" y="492.5" width="50" height="46" as="geometry" />
        </mxCell>
        <mxCell id="tv60x9gzvXhbaiR4rFQU-17" value="" style="group" parent="1" vertex="1" connectable="0">
          <mxGeometry x="185.9" y="-70" width="59.599999999999945" height="56.489999999999995" as="geometry" />
        </mxCell>
        <mxCell id="tv60x9gzvXhbaiR4rFQU-20" value="" style="group" parent="tv60x9gzvXhbaiR4rFQU-17" vertex="1" connectable="0">
          <mxGeometry width="59.599999999999945" height="56.489999999999995" as="geometry" />
        </mxCell>
        <mxCell id="tv60x9gzvXhbaiR4rFQU-15" value="ArangoDb" style="image;aspect=fixed;perimeter=ellipsePerimeter;html=1;align=center;shadow=0;dashed=0;spacingTop=3;image=img/lib/active_directory/databases.svg;" parent="tv60x9gzvXhbaiR4rFQU-20" vertex="1">
          <mxGeometry width="50" height="49" as="geometry" />
        </mxCell>
        <mxCell id="biuPvJfJ3vbkD2ER6AKR-55" value="" style="shape=image;verticalLabelPosition=bottom;labelBackgroundColor=#ffffff;verticalAlign=top;aspect=fixed;imageAspect=0;image=data:image/png,iVBORw0KGgoAAAANSUhEUgAAAJEAAABkCAYAAACGh9KJAAAAAXNSR0IArs4c6QAAAARnQU1BAACxjwv8YQUAABVdSURBVHja7V1ZcBVVGuZhHuZhHuaBUsuiLGvGshiLmnLEpDsYSFgkIQRBTO5NIJIAAULI0n0TDatsYZUdRAwIERCRsIrsO2HfIRBkUZyaBx584MEHH3w4U9+59ySnT/ft231v991yu+ovJQmk7+mv//X7/79bt9Rl+8r39e5eWCNlehS53KvI8z2KvMWjyi0eRT7Di1eV9uF7Xl/GSq8iTS1UpRJPdbqMv586xS52eWoyennUdAVA8ary/7yqTCIVjyL/5lGkgwBhgSrnFla+9bfUSSfRlTU76y8eRR7kVaUvvYozoAkpivSnR5FbvT5pRoEqv5F6Cgl6eWul1z2qvCgS4IyqzyBl0/pQmfhZJpkwK7Pjz0U+O/+WdNurSg2FlWmvpJ5MYoAnG/6LHbAAHPVL+5N5698nK5pzyYZd+aT5wAdk28HhprJ53wdk/c6hZNmWXPp3P13Wn4KtuM5EQ6lyC3yw1JOKU/B4VDjAoUEzfkYmmbpiAFnenEuBEAosdgUAXLV1CJm5eiAFqKEfhXutlbJTTy4OLvgcASfZFDgVc/pSbQEt4zRoQsmXO4eS6asGkDENfQzBVKSkvZt6kjFymOG4elTpj2DAKZ3ah8xaM5B8ZQM4LccKyOHzo8mZq2PJ5TsTya32KtL2qIa0P1Go3HlYRb9268EU+v0LNyeQ01fGkiPnS8i+kx6y49CHphpqYdNgMm76e0Z+08biVLogumG631k1Bg/8kqVf55CtP5ibqu0/jiAHTheRs9fGkRv3K8mjX3zk5/9+ErEAdBdvTSCHzo0yBBXua8FXg8nHn/bRpwpU6aPUE3YbQGr6pGDaB+CBL2IGnO+PfkSOXxxDbrRVksfP6hwBjZngd1y5M4nsP+U1dMzrlmQbOODytlSuyb18z5ZgZmvxppygwNl5eCQ5ebmM3G6vch00ZgITuP90ke7+Pt+cS9MJWq0kPSz2ZfRMPXmHLvgKXiW9VQQPcjWIsrbsNzZbMFXX7lWQp7/WxxQ8oly+PZECW3S+y6aJvpL0oliVs1IIiPBCgg5vpQggHPjqbXmG4Dl0bjS591NNXAFHlJ9+9pHD50s0971pzzCaftDnllJ+kuMAqlmQZZjfgd+B6CmewSPKtXuTNVopBaQoAOiztYN04Nlx+ENy6fbEhAKPRis9VckPZ4pTQHLyKp2d9VevIl8W/R8j5xmOavtTNWEBxAR+2/FLYzRA0iUnASRfRk4KIVbCeCEKA4CQ9xEBdOpKWdw5zZHK+RvlGme75JMM0dn+3aOmyymUhMgDiSYMiTkxSYhkXjKBh5cLHJBWbxuiC/+9ivwcLIUUWoxD+Z540/gDQxFTBBDC9mQFkBGQoIX11BOpLZWQNKqFCX5QdWM/nQm7ejf5AcQENTn2uVE81hdvpYM4txR6ApdXkWrFPJAYxp+/Pr7LAIjJ0dbOXBISqwYlkvkp9ATCeWRneUdaTCTiMLsagFjUtv9UUUfhVlmYZaSRUqG/GI1NWzlAA6DdxwujUiw1K6Ki7gbqBxPUwZyq+lvJI6FwjLNAiQfcKF3EVpPRq+tqodq0t/kDAdeGp6bCkb77U3XUgfPk13oaASIPhXsIVtzF9/FzT1xONeAM2H0gh6SrsynSky7raIt86JXfaKkcp6+URR08yNWIBdJQsvPISNJ6s9xVMAGs7Pet/26oPvRXpX1dTwvVSJn8IcDe8w9m17GCiB7KjbZqcvLiRLL7WCnZvLuIrNk6kizZ+AGZujyHSuXcbFIx2y81jQP8X18xiJZWwL8Oxg4wE9zzjbbJrgHpCFe0RYOAAUOyoctqIXRIiPxnK+H8tbtV5NDZ8WTr/lFkZfNIMnPVEAqO4roM3QEj+4t2n8p5/aj4FmeT+qV+qV2YRb/GU1dxTyj2Ik9jpfuDF5Qw3NBK8M9A4WW/B/RfsTTi9aUN7JK+EMJX/iHsPeHpOLj2pz5y/loF1SjrdxSQueuGUs0hAgUgAbtRXZxNk5TIdMM8Wm0BMurWYKAClRUOvx2i/96THuoUOw0k0Fy+5fy0qvn9dBnt0dXpPbpURIaHz3JCTbvzKdNv2eZhFCxV8/prDgjaoXxmJjV901cNJIs3DiZrtueRr/cOc61bA4ACMJF6gNQtzabOrVXzdv9xrav+ET472J0CkC4ndSKS0jw4njRoDzWN/TTEdTwsgAUPb/a6QRRYKEgGe1h4M/Hmi50aeIDo0hALtQjPWQcHiPUI2UEnQVH34Fljgj20EACEewPwzSi5otPtBtOA94+QV9OVRnwZK5NP+9Rk9CpS0iq8qnRCrNKjya9h2QDSuOF9sm5Hnqn5AX8I/Bs8cPhNAIHT1Xz8e7fuV5KjFz7WmA4INN+4GX4zh34yK0ByI9cl+kcwv/qMdvrwhK6FoSkPEzj8DnRnRhqqF+YI9SA8EB4wzXvySdO2XI20HCmgRHt0TTxwwTRYSfahQ4QHBSI3ON34PHO+GGQJSNBwbvpHyGhXzO6ra0NKGP+IdmNUp8sIMT2KdISvxsNcoU99yaacjkbCb/YNI2vWZpN5n7xD6kveJJV5r5Gx8kuk9N3uhjIh8xVSP/INsrjqXdK8fDA5c3QMefJLdLPYN+9XavJHrAwBTYqXwQqQkINyvOJ/U8tBEmcBoFAbt8BBC3PAPGk0DUwToi34MZt2d0YzAM6yJZkUNOP6vBwUMFZl8oAepGlBf3L3bvR41fChEDnyGgmft3JuP0sggtZww9FGoyT7HdCMus4YRS6NqwRhkSp9jjS7qGkAGiMC/ZaWoWRu3X/IhOxXIwaOkYzPeJlsmJdNHrTXRq2WxoqikLXf5tFzgC9nBUgolbjRPcLqa0ZmDS95TEfbUIeYAsc/64cm4RqzSOOGwaZ97tA8MFfjM19xBTyiTMp6lexqGhYVMyc6tfCP8CJZTRvAv3PD3PJmTRetKfK2qAIHZPnCGqmEEcUAHITb0DZmkRPrb9/aPJRMHtwjKuARZaq3J7l4dlxUOlrZ517xzRBKrLdTa3ODmYAAJGg2m5q1KEwgGV6b9fciVaqjPN5AfzvCbrM6Eg4EoTDCbeRfNi8dRMamvxQTAPEmbscXea4DifXYw4SgIGqWyxIFgyTcKCAjncAy7ywVwY+ycRU8HkWeDdsJNQj1bBZx4PBwCDxNA2ZkaW1aTMEjyjJfuqvmDWxLdibwQ8SmAjNBvssNThK4T+x3oOyjyx05PVxLBA8yssHqQ3AIEU62P1X0b8AvdTT8jicAMcF9uQWkG5wfgoKuSKgLJeeuuWN2+byWyIZECsZBYjx4zebggakCpwehbVAVGscAYrKqoY87fhH31oMNINJZQgkiKjd656DhoOlYuUZ0siNmQmLWMgvR8fYYgQeRB+pPVugMeEDxDCAmOzfkuw4i0EnsFnhRXnGl7Ygr0iJyFLTR2khMF62eT57Tl+Y3jOw0TJbVt2PT4oEJASAInP3W02NdM2dTAjwluyBCROUWyZ+lIcA60Goj6QUicFsA8tex5GeoPgdz/lABt1NtPrizMGEAxMQ3/J/k0VOfgyWHzrcdvOdwQAT2gVuO//V7kzt+D1wWXhsVKOkF1pOFqvQRqBfoEmjanW84ScxuV2lbWzUtOyQaiCDQnk49pBOXSjs4PXgw4YAIuTU3ZwoApIyXLYT7LRYBJE8CZRI20WgQJirLSJnbvbFE8YOC5ZCuX3EmY7wv8IBAocWDgV8UDvHNLHBxMimKGh/fahTSpIFLAgCJ1FOG/nDDS2SDY51MjFRW1MuORECsjQcT+Y165qyK25PdmDYCk0KjjWrTR5hW2IE0EL2MKsmRDEWI93DeqpN9+1ZkURHqXywzzFiZ8798PywQgVjn6pzIOxM77lXbaiRtNNFC8mWoLtGEAUCRTFG9eb0i4bUQE/CSnKBfMFMGQRtPvJkzVg5hlF+Ng61Iz43pGopcCrQ1teid6EjHsiRSSB9KZpa8FRH1gjEK+W6Lr8JY+4B/J5rDIVBE15i0amFoViAT/QQVXPFmQWCP9EaqBr+WNCCqyXs94olmSNTyXSvhaCHUIaM1ZNTQpImTRby+tHy+BYfv44o0jAQlNVkABKno3yNs04ByEM61YXnnuJcpYYT3Tr3cVjlQLBAAH4yjz14XfaFtRuQohHmR3gQoHskEIiQewzmH1gCnGVlgns8sTnWLF6ealwOBif7i0CxUM/jW5BfifosDDtExPyvtlVQgAm0lnLC+Uwtp61Ho37cLoAMuUGVNrclV//S1L3bkabPXqpzbQWOFrRMjMqdmHE6IEs01WrK3eUTYzEGRfor/D2cAhBMWwt6Qi85an2YyrU+awcobRShtiJ6/E4MFkFNJJgCBj223hoZp/dsNIjJa7phr3x9yow/NSlTJF4x1JRDsaxf9IafUJarfyQSiratybDuljHaKxXciWxCt3nYAhJyN27mhYPJdoHcO2XV+Gq2/Uq9Kn89aM8gVmsG5E2VJA6BPC960zXQEh5wNnNAPKJdtrwWN5Rhl5lyDzcFFaH90TNoAqd6NjktU7ZPFjNktvrIJHLSfSzcv0d+saQdAF1zogg2HOrt6u5Z//SHarQEiqFr+hlEzceqXJ3p0hsAAuS67vVzMD9Kqf/umLF42AaDwzrSqLnONzKNYAHQSRDevTybVOYmZsQb3yS6AUGNk9SYjP4hFZVZmFe05Xhg3a7RYMRairehnjKCOtegTOT1AHH3voFEkUhEWgyDsmjAeQMj/6NcisDmT2aY1MURg6MeLp0U2PKWXH46FCS7dQHcEr4X/IGDeuUK7vDKJLKx8J+4BtG5WX9uhPA6ZAchwQQsnGAPIhmXdf6zQPjz253gdsM43F8Cf05D3waNGAx0Pon0u8ncZQW3OuH/HZQSGiDKcMXbMB0Lm3wxAGAeYiFP6eRBVztMwHU90wzBssZKMA4nGNPpTh0viwvFW8v9BM9F2Q3gkZI9xDX/Gm306ZXR9Hzq5NtFBhJYxfqA6Szg+WSe0AkVzMw/A1Djp7aiDZ/qof9Huk3A6XenMoZOdM4cQbQUDD5Om7z0JCSCjXjm+jYgR81tELtGPMUivX700kc4McpN/BK0Dktzl1vDzLlgvzvwf1L40b6YazJkeSJ48q08KECEQ4z9bAETpCmYviybtwePYOXoIrUEjgbmLpIhblfMadeYx7QMgjXyl+GjNmgNMqw0FIMzOvnCjMmEBJBZhDUHEhoyLEz2Qto+XDwGe9unDJdR3CSVH9xZRB/nhI+deAhDs+dmLyK2Jcw6DSfPe4oRff8XPwDYEUaD88ZuYv9ju0qzARBJoY351ODjo2j4sc5m+MjcpzoFxikQQATcadiMiC7EoGG0CVLwIolNMNuFH9YLZZxa+i1I+sx+5054cLyE/RJ3f5uhRpId823QRvohBVbriXxJvcTYaaIAUP2MiskHmmP5mFTzMDzrWWp4058JHoioXSGjmFiFfxNYeiH1QiESiyemNlWCQwZ4A/4fxoeuXZtsCD5NNLd6k0so8HviMtW6Ng1eRv2PT68XOD4wbcWP7TVyErw+maN40mC7MdTbiAFmROQmalQ7eNlSh2abEBxQY9KofZBX4JqicIu8ac5hjuVfVDfAwshWfdeb3l9kVrMNqf+pLKhDxaQ2UdYRZjq8bNDH6505DjHry3drHFWvw4HAmG5DH7AjGCV+6VZl00Sm/z5bvmfPyTrWw2bBBXEwnaiTMDIzFol4nfJ79Angw0Z4tbYlE/CvVh9BoDm/ujfvJASZG8WWmTGPixS5Yfrwev3MDUt3YT9faAnRinHA8cV6C9XyhcZCfZM/WIjgBHiaI3sR51CDpI7JNVBcAhDj+84jNi5giE3w6iC9jpXhI8BOMZlTjoPCGx1uYDk1wpLVEt3cMkaedZKFtn2hBlm5fB2ZaYs9aIrkBePl2cS8eAi1+QWHIkcRG2oipbLQXGa29RN8+thDG6q3D70UUAfUrrhbHAeAtGj/jPdfAIwr6s8SuYmhvjJZBHSqeNTjuDexK/t7rlmTbH46O7sZgBwS7iKq/EU8YOSVkN5Gwe+jimwcqBjQg3nBMyNguaBz4cdidgQq71RqXLaEbnKWVbBVFMIHWE8HEZn3j3uOtrAQA8dEYZNFGkSsunbC87IVfLWWclfUvgMHDMhvcfejcaHpgKOLhLQStgNFBjQRcZfwMQAIwooUJfx/gBOvSaNcqDxzQfXnV6waAMBi1YymOIpci/R8KTCuC9N3jJYilFue1Ob8DzZDqq0h/Fvt697Sz/XmQnfAWDw95FqP9ZW4Jhgxg/RV21NupazkBIN151WaM8Chyq9nfR7YXA6OCdbiivysWkS/mP/LZ+qBc8dpA/72dy6tKX4Zz2FiKx2+FXr9zaFjDC/gV3HBY0YaDXi74HOFmlN0AkObMaqVs/2bJ4P8WAhXQSYKt8IJ2srqdIFIHGo0Z2w0CEP1LKZ0Ia+U5amrouXbqQeDGyqb1odt1QPjGWnLUp0SpavRPmsdhR0XDOAQgzdnVpr0N1ij1n0z8S7wUwUbuIUg4FWJPSjgCX+zk5VKdawBQGzVcwlwX+3p3D3uvR7Evoye/5LfLSRgAEqfy0tUWJmBC5As+l9k6T/CaQI4Lx3eCw4y8D3J7/D5aMWs/ziiCVeTnwEDk6zh9GTlmh5ACkLWVpqHMXLBck9jgCECBKIaGiluBQIQJgheYQrQ+I+WBYETMl1nP2kttju6BxWF2LSBJvxercpbTywbxVofSTKwIDt/EaKtBpAKzhSHn5vVCaSPcGecXBHcVICnyc7d3n+IN96jyIlBMze4F6QpEvgBUpMEJgIPcmamfiSK8kj7c1Z2vdHVDEvtIcCJN60IuLGAGsxS7Vq3cH9IEGE6OyHfxxsHUl8HIl6Zd+VRQnsLX8D38DKJkRMsWNO8LbNS0vY4q7LcIHSIhkpEJ6gMd0UxFjfKFeT/+aoF0O2ovjSo/w0bNmHxuSqkNLNRLCg2kyovCyoO4CKgiJa3C74zra5mRaVuYUGkjEspx8WHBiKRoTljzJf/mug/glPZX5Sr68FX5NuPEW/XxAmBs0K1UiJeL2nX/huoE85WkE6MxMi4BL2hNpA1Qbimslco8qjTTWyvNwX/xZ4wNQnAQS/McdsQBPpKttyQ24HlRpMil3VJXfIOJaqYQVIlYJA9RD4wohZ+6YmDmEL4q0pFY5pegGREERDN0T10uXHj7PYpcDkBFz9whVJYaHE3dp6740VCgTBQp8myPIh0MlbW1AZo2mCs01el6olJX8l/5vt7dASxoKxplKPIWUCk8inxGFISrNEfl/7lyhK0JF4UkyfV/9STaU5vNVAAAAAAASUVORK5CYII=;" parent="tv60x9gzvXhbaiR4rFQU-20" vertex="1">
          <mxGeometry x="33.49999999999994" y="38.489999999999995" width="26.1" height="18" as="geometry" />
        </mxCell>
        <mxCell id="tv60x9gzvXhbaiR4rFQU-21" value="" style="group" parent="1" vertex="1" connectable="0">
          <mxGeometry x="540" y="98.26" width="59.599999999999945" height="56.489999999999995" as="geometry" />
        </mxCell>
        <mxCell id="tv60x9gzvXhbaiR4rFQU-22" value="" style="group" parent="tv60x9gzvXhbaiR4rFQU-21" vertex="1" connectable="0">
          <mxGeometry width="59.599999999999945" height="56.489999999999995" as="geometry" />
        </mxCell>
        <mxCell id="tv60x9gzvXhbaiR4rFQU-23" value="ArangoDb" style="image;aspect=fixed;perimeter=ellipsePerimeter;html=1;align=center;shadow=0;dashed=0;spacingTop=3;image=img/lib/active_directory/databases.svg;" parent="tv60x9gzvXhbaiR4rFQU-22" vertex="1">
          <mxGeometry width="50" height="49" as="geometry" />
        </mxCell>
        <mxCell id="tv60x9gzvXhbaiR4rFQU-24" value="" style="shape=image;verticalLabelPosition=bottom;labelBackgroundColor=#ffffff;verticalAlign=top;aspect=fixed;imageAspect=0;image=data:image/png,iVBORw0KGgoAAAANSUhEUgAAAJEAAABkCAYAAACGh9KJAAAAAXNSR0IArs4c6QAAAARnQU1BAACxjwv8YQUAABVdSURBVHja7V1ZcBVVGuZhHuZhHuaBUsuiLGvGshiLmnLEpDsYSFgkIQRBTO5NIJIAAULI0n0TDatsYZUdRAwIERCRsIrsO2HfIRBkUZyaBx584MEHH3w4U9+59ySnT/ft231v991yu+ovJQmk7+mv//X7/79bt9Rl+8r39e5eWCNlehS53KvI8z2KvMWjyi0eRT7Di1eV9uF7Xl/GSq8iTS1UpRJPdbqMv586xS52eWoyennUdAVA8ary/7yqTCIVjyL/5lGkgwBhgSrnFla+9bfUSSfRlTU76y8eRR7kVaUvvYozoAkpivSnR5FbvT5pRoEqv5F6Cgl6eWul1z2qvCgS4IyqzyBl0/pQmfhZJpkwK7Pjz0U+O/+WdNurSg2FlWmvpJ5MYoAnG/6LHbAAHPVL+5N5698nK5pzyYZd+aT5wAdk28HhprJ53wdk/c6hZNmWXPp3P13Wn4KtuM5EQ6lyC3yw1JOKU/B4VDjAoUEzfkYmmbpiAFnenEuBEAosdgUAXLV1CJm5eiAFqKEfhXutlbJTTy4OLvgcASfZFDgVc/pSbQEt4zRoQsmXO4eS6asGkDENfQzBVKSkvZt6kjFymOG4elTpj2DAKZ3ah8xaM5B8ZQM4LccKyOHzo8mZq2PJ5TsTya32KtL2qIa0P1Go3HlYRb9268EU+v0LNyeQ01fGkiPnS8i+kx6y49CHphpqYdNgMm76e0Z+08biVLogumG631k1Bg/8kqVf55CtP5ibqu0/jiAHTheRs9fGkRv3K8mjX3zk5/9+ErEAdBdvTSCHzo0yBBXua8FXg8nHn/bRpwpU6aPUE3YbQGr6pGDaB+CBL2IGnO+PfkSOXxxDbrRVksfP6hwBjZngd1y5M4nsP+U1dMzrlmQbOODytlSuyb18z5ZgZmvxppygwNl5eCQ5ebmM3G6vch00ZgITuP90ke7+Pt+cS9MJWq0kPSz2ZfRMPXmHLvgKXiW9VQQPcjWIsrbsNzZbMFXX7lWQp7/WxxQ8oly+PZECW3S+y6aJvpL0oliVs1IIiPBCgg5vpQggHPjqbXmG4Dl0bjS591NNXAFHlJ9+9pHD50s0971pzzCaftDnllJ+kuMAqlmQZZjfgd+B6CmewSPKtXuTNVopBaQoAOiztYN04Nlx+ENy6fbEhAKPRis9VckPZ4pTQHLyKp2d9VevIl8W/R8j5xmOavtTNWEBxAR+2/FLYzRA0iUnASRfRk4KIVbCeCEKA4CQ9xEBdOpKWdw5zZHK+RvlGme75JMM0dn+3aOmyymUhMgDiSYMiTkxSYhkXjKBh5cLHJBWbxuiC/+9ivwcLIUUWoxD+Z540/gDQxFTBBDC9mQFkBGQoIX11BOpLZWQNKqFCX5QdWM/nQm7ejf5AcQENTn2uVE81hdvpYM4txR6ApdXkWrFPJAYxp+/Pr7LAIjJ0dbOXBISqwYlkvkp9ATCeWRneUdaTCTiMLsagFjUtv9UUUfhVlmYZaSRUqG/GI1NWzlAA6DdxwujUiw1K6Ki7gbqBxPUwZyq+lvJI6FwjLNAiQfcKF3EVpPRq+tqodq0t/kDAdeGp6bCkb77U3XUgfPk13oaASIPhXsIVtzF9/FzT1xONeAM2H0gh6SrsynSky7raIt86JXfaKkcp6+URR08yNWIBdJQsvPISNJ6s9xVMAGs7Pet/26oPvRXpX1dTwvVSJn8IcDe8w9m17GCiB7KjbZqcvLiRLL7WCnZvLuIrNk6kizZ+AGZujyHSuXcbFIx2y81jQP8X18xiJZWwL8Oxg4wE9zzjbbJrgHpCFe0RYOAAUOyoctqIXRIiPxnK+H8tbtV5NDZ8WTr/lFkZfNIMnPVEAqO4roM3QEj+4t2n8p5/aj4FmeT+qV+qV2YRb/GU1dxTyj2Ik9jpfuDF5Qw3NBK8M9A4WW/B/RfsTTi9aUN7JK+EMJX/iHsPeHpOLj2pz5y/loF1SjrdxSQueuGUs0hAgUgAbtRXZxNk5TIdMM8Wm0BMurWYKAClRUOvx2i/96THuoUOw0k0Fy+5fy0qvn9dBnt0dXpPbpURIaHz3JCTbvzKdNv2eZhFCxV8/prDgjaoXxmJjV901cNJIs3DiZrtueRr/cOc61bA4ACMJF6gNQtzabOrVXzdv9xrav+ET472J0CkC4ndSKS0jw4njRoDzWN/TTEdTwsgAUPb/a6QRRYKEgGe1h4M/Hmi50aeIDo0hALtQjPWQcHiPUI2UEnQVH34Fljgj20EACEewPwzSi5otPtBtOA94+QV9OVRnwZK5NP+9Rk9CpS0iq8qnRCrNKjya9h2QDSuOF9sm5Hnqn5AX8I/Bs8cPhNAIHT1Xz8e7fuV5KjFz7WmA4INN+4GX4zh34yK0ByI9cl+kcwv/qMdvrwhK6FoSkPEzj8DnRnRhqqF+YI9SA8EB4wzXvySdO2XI20HCmgRHt0TTxwwTRYSfahQ4QHBSI3ON34PHO+GGQJSNBwbvpHyGhXzO6ra0NKGP+IdmNUp8sIMT2KdISvxsNcoU99yaacjkbCb/YNI2vWZpN5n7xD6kveJJV5r5Gx8kuk9N3uhjIh8xVSP/INsrjqXdK8fDA5c3QMefJLdLPYN+9XavJHrAwBTYqXwQqQkINyvOJ/U8tBEmcBoFAbt8BBC3PAPGk0DUwToi34MZt2d0YzAM6yJZkUNOP6vBwUMFZl8oAepGlBf3L3bvR41fChEDnyGgmft3JuP0sggtZww9FGoyT7HdCMus4YRS6NqwRhkSp9jjS7qGkAGiMC/ZaWoWRu3X/IhOxXIwaOkYzPeJlsmJdNHrTXRq2WxoqikLXf5tFzgC9nBUgolbjRPcLqa0ZmDS95TEfbUIeYAsc/64cm4RqzSOOGwaZ97tA8MFfjM19xBTyiTMp6lexqGhYVMyc6tfCP8CJZTRvAv3PD3PJmTRetKfK2qAIHZPnCGqmEEcUAHITb0DZmkRPrb9/aPJRMHtwjKuARZaq3J7l4dlxUOlrZ517xzRBKrLdTa3ODmYAAJGg2m5q1KEwgGV6b9fciVaqjPN5AfzvCbrM6Eg4EoTDCbeRfNi8dRMamvxQTAPEmbscXea4DifXYw4SgIGqWyxIFgyTcKCAjncAy7ywVwY+ycRU8HkWeDdsJNQj1bBZx4PBwCDxNA2ZkaW1aTMEjyjJfuqvmDWxLdibwQ8SmAjNBvssNThK4T+x3oOyjyx05PVxLBA8yssHqQ3AIEU62P1X0b8AvdTT8jicAMcF9uQWkG5wfgoKuSKgLJeeuuWN2+byWyIZECsZBYjx4zebggakCpwehbVAVGscAYrKqoY87fhH31oMNINJZQgkiKjd656DhoOlYuUZ0siNmQmLWMgvR8fYYgQeRB+pPVugMeEDxDCAmOzfkuw4i0EnsFnhRXnGl7Ygr0iJyFLTR2khMF62eT57Tl+Y3jOw0TJbVt2PT4oEJASAInP3W02NdM2dTAjwluyBCROUWyZ+lIcA60Goj6QUicFsA8tex5GeoPgdz/lABt1NtPrizMGEAxMQ3/J/k0VOfgyWHzrcdvOdwQAT2gVuO//V7kzt+D1wWXhsVKOkF1pOFqvQRqBfoEmjanW84ScxuV2lbWzUtOyQaiCDQnk49pBOXSjs4PXgw4YAIuTU3ZwoApIyXLYT7LRYBJE8CZRI20WgQJirLSJnbvbFE8YOC5ZCuX3EmY7wv8IBAocWDgV8UDvHNLHBxMimKGh/fahTSpIFLAgCJ1FOG/nDDS2SDY51MjFRW1MuORECsjQcT+Y165qyK25PdmDYCk0KjjWrTR5hW2IE0EL2MKsmRDEWI93DeqpN9+1ZkURHqXywzzFiZ8798PywQgVjn6pzIOxM77lXbaiRtNNFC8mWoLtGEAUCRTFG9eb0i4bUQE/CSnKBfMFMGQRtPvJkzVg5hlF+Ng61Iz43pGopcCrQ1teid6EjHsiRSSB9KZpa8FRH1gjEK+W6Lr8JY+4B/J5rDIVBE15i0amFoViAT/QQVXPFmQWCP9EaqBr+WNCCqyXs94olmSNTyXSvhaCHUIaM1ZNTQpImTRby+tHy+BYfv44o0jAQlNVkABKno3yNs04ByEM61YXnnuJcpYYT3Tr3cVjlQLBAAH4yjz14XfaFtRuQohHmR3gQoHskEIiQewzmH1gCnGVlgns8sTnWLF6ealwOBif7i0CxUM/jW5BfifosDDtExPyvtlVQgAm0lnLC+Uwtp61Ho37cLoAMuUGVNrclV//S1L3bkabPXqpzbQWOFrRMjMqdmHE6IEs01WrK3eUTYzEGRfor/D2cAhBMWwt6Qi85an2YyrU+awcobRShtiJ6/E4MFkFNJJgCBj223hoZp/dsNIjJa7phr3x9yow/NSlTJF4x1JRDsaxf9IafUJarfyQSiratybDuljHaKxXciWxCt3nYAhJyN27mhYPJdoHcO2XV+Gq2/Uq9Kn89aM8gVmsG5E2VJA6BPC960zXQEh5wNnNAPKJdtrwWN5Rhl5lyDzcFFaH90TNoAqd6NjktU7ZPFjNktvrIJHLSfSzcv0d+saQdAF1zogg2HOrt6u5Z//SHarQEiqFr+hlEzceqXJ3p0hsAAuS67vVzMD9Kqf/umLF42AaDwzrSqLnONzKNYAHQSRDevTybVOYmZsQb3yS6AUGNk9SYjP4hFZVZmFe05Xhg3a7RYMRairehnjKCOtegTOT1AHH3voFEkUhEWgyDsmjAeQMj/6NcisDmT2aY1MURg6MeLp0U2PKWXH46FCS7dQHcEr4X/IGDeuUK7vDKJLKx8J+4BtG5WX9uhPA6ZAchwQQsnGAPIhmXdf6zQPjz253gdsM43F8Cf05D3waNGAx0Pon0u8ncZQW3OuH/HZQSGiDKcMXbMB0Lm3wxAGAeYiFP6eRBVztMwHU90wzBssZKMA4nGNPpTh0viwvFW8v9BM9F2Q3gkZI9xDX/Gm306ZXR9Hzq5NtFBhJYxfqA6Szg+WSe0AkVzMw/A1Djp7aiDZ/qof9Huk3A6XenMoZOdM4cQbQUDD5Om7z0JCSCjXjm+jYgR81tELtGPMUivX700kc4McpN/BK0Dktzl1vDzLlgvzvwf1L40b6YazJkeSJ48q08KECEQ4z9bAETpCmYviybtwePYOXoIrUEjgbmLpIhblfMadeYx7QMgjXyl+GjNmgNMqw0FIMzOvnCjMmEBJBZhDUHEhoyLEz2Qto+XDwGe9unDJdR3CSVH9xZRB/nhI+deAhDs+dmLyK2Jcw6DSfPe4oRff8XPwDYEUaD88ZuYv9ju0qzARBJoY351ODjo2j4sc5m+MjcpzoFxikQQATcadiMiC7EoGG0CVLwIolNMNuFH9YLZZxa+i1I+sx+5054cLyE/RJ3f5uhRpId823QRvohBVbriXxJvcTYaaIAUP2MiskHmmP5mFTzMDzrWWp4058JHoioXSGjmFiFfxNYeiH1QiESiyemNlWCQwZ4A/4fxoeuXZtsCD5NNLd6k0so8HviMtW6Ng1eRv2PT68XOD4wbcWP7TVyErw+maN40mC7MdTbiAFmROQmalQ7eNlSh2abEBxQY9KofZBX4JqicIu8ac5hjuVfVDfAwshWfdeb3l9kVrMNqf+pLKhDxaQ2UdYRZjq8bNDH6505DjHry3drHFWvw4HAmG5DH7AjGCV+6VZl00Sm/z5bvmfPyTrWw2bBBXEwnaiTMDIzFol4nfJ79Angw0Z4tbYlE/CvVh9BoDm/ujfvJASZG8WWmTGPixS5Yfrwev3MDUt3YT9faAnRinHA8cV6C9XyhcZCfZM/WIjgBHiaI3sR51CDpI7JNVBcAhDj+84jNi5giE3w6iC9jpXhI8BOMZlTjoPCGx1uYDk1wpLVEt3cMkaedZKFtn2hBlm5fB2ZaYs9aIrkBePl2cS8eAi1+QWHIkcRG2oipbLQXGa29RN8+thDG6q3D70UUAfUrrhbHAeAtGj/jPdfAIwr6s8SuYmhvjJZBHSqeNTjuDexK/t7rlmTbH46O7sZgBwS7iKq/EU8YOSVkN5Gwe+jimwcqBjQg3nBMyNguaBz4cdidgQq71RqXLaEbnKWVbBVFMIHWE8HEZn3j3uOtrAQA8dEYZNFGkSsunbC87IVfLWWclfUvgMHDMhvcfejcaHpgKOLhLQStgNFBjQRcZfwMQAIwooUJfx/gBOvSaNcqDxzQfXnV6waAMBi1YymOIpci/R8KTCuC9N3jJYilFue1Ob8DzZDqq0h/Fvt697Sz/XmQnfAWDw95FqP9ZW4Jhgxg/RV21NupazkBIN151WaM8Chyq9nfR7YXA6OCdbiivysWkS/mP/LZ+qBc8dpA/72dy6tKX4Zz2FiKx2+FXr9zaFjDC/gV3HBY0YaDXi74HOFmlN0AkObMaqVs/2bJ4P8WAhXQSYKt8IJ2srqdIFIHGo0Z2w0CEP1LKZ0Ia+U5amrouXbqQeDGyqb1odt1QPjGWnLUp0SpavRPmsdhR0XDOAQgzdnVpr0N1ij1n0z8S7wUwUbuIUg4FWJPSjgCX+zk5VKdawBQGzVcwlwX+3p3D3uvR7Evoye/5LfLSRgAEqfy0tUWJmBC5As+l9k6T/CaQI4Lx3eCw4y8D3J7/D5aMWs/ziiCVeTnwEDk6zh9GTlmh5ACkLWVpqHMXLBck9jgCECBKIaGiluBQIQJgheYQrQ+I+WBYETMl1nP2kttju6BxWF2LSBJvxercpbTywbxVofSTKwIDt/EaKtBpAKzhSHn5vVCaSPcGecXBHcVICnyc7d3n+IN96jyIlBMze4F6QpEvgBUpMEJgIPcmamfiSK8kj7c1Z2vdHVDEvtIcCJN60IuLGAGsxS7Vq3cH9IEGE6OyHfxxsHUl8HIl6Zd+VRQnsLX8D38DKJkRMsWNO8LbNS0vY4q7LcIHSIhkpEJ6gMd0UxFjfKFeT/+aoF0O2ovjSo/w0bNmHxuSqkNLNRLCg2kyovCyoO4CKgiJa3C74zra5mRaVuYUGkjEspx8WHBiKRoTljzJf/mug/glPZX5Sr68FX5NuPEW/XxAmBs0K1UiJeL2nX/huoE85WkE6MxMi4BL2hNpA1Qbimslco8qjTTWyvNwX/xZ4wNQnAQS/McdsQBPpKttyQ24HlRpMil3VJXfIOJaqYQVIlYJA9RD4wohZ+6YmDmEL4q0pFY5pegGREERDN0T10uXHj7PYpcDkBFz9whVJYaHE3dp6740VCgTBQp8myPIh0MlbW1AZo2mCs01el6olJX8l/5vt7dASxoKxplKPIWUCk8inxGFISrNEfl/7lyhK0JF4UkyfV/9STaU5vNVAAAAAAASUVORK5CYII=;" parent="tv60x9gzvXhbaiR4rFQU-22" vertex="1">
          <mxGeometry x="33.49999999999994" y="38.489999999999995" width="26.1" height="18" as="geometry" />
        </mxCell>
        <mxCell id="tv60x9gzvXhbaiR4rFQU-25" value="" style="group" parent="1" vertex="1" connectable="0">
          <mxGeometry x="390.7" y="487.26" width="59.599999999999945" height="56.489999999999995" as="geometry" />
        </mxCell>
        <mxCell id="tv60x9gzvXhbaiR4rFQU-26" value="" style="group" parent="tv60x9gzvXhbaiR4rFQU-25" vertex="1" connectable="0">
          <mxGeometry width="59.599999999999945" height="56.489999999999995" as="geometry" />
        </mxCell>
        <mxCell id="tv60x9gzvXhbaiR4rFQU-27" value="ArangoDb" style="image;aspect=fixed;perimeter=ellipsePerimeter;html=1;align=center;shadow=0;dashed=0;spacingTop=3;image=img/lib/active_directory/databases.svg;" parent="tv60x9gzvXhbaiR4rFQU-26" vertex="1">
          <mxGeometry width="50" height="49" as="geometry" />
        </mxCell>
        <mxCell id="tv60x9gzvXhbaiR4rFQU-28" value="" style="shape=image;verticalLabelPosition=bottom;labelBackgroundColor=#ffffff;verticalAlign=top;aspect=fixed;imageAspect=0;image=data:image/png,iVBORw0KGgoAAAANSUhEUgAAAJEAAABkCAYAAACGh9KJAAAAAXNSR0IArs4c6QAAAARnQU1BAACxjwv8YQUAABVdSURBVHja7V1ZcBVVGuZhHuZhHuaBUsuiLGvGshiLmnLEpDsYSFgkIQRBTO5NIJIAAULI0n0TDatsYZUdRAwIERCRsIrsO2HfIRBkUZyaBx584MEHH3w4U9+59ySnT/ft231v991yu+ovJQmk7+mv//X7/79bt9Rl+8r39e5eWCNlehS53KvI8z2KvMWjyi0eRT7Di1eV9uF7Xl/GSq8iTS1UpRJPdbqMv586xS52eWoyennUdAVA8ary/7yqTCIVjyL/5lGkgwBhgSrnFla+9bfUSSfRlTU76y8eRR7kVaUvvYozoAkpivSnR5FbvT5pRoEqv5F6Cgl6eWul1z2qvCgS4IyqzyBl0/pQmfhZJpkwK7Pjz0U+O/+WdNurSg2FlWmvpJ5MYoAnG/6LHbAAHPVL+5N5698nK5pzyYZd+aT5wAdk28HhprJ53wdk/c6hZNmWXPp3P13Wn4KtuM5EQ6lyC3yw1JOKU/B4VDjAoUEzfkYmmbpiAFnenEuBEAosdgUAXLV1CJm5eiAFqKEfhXutlbJTTy4OLvgcASfZFDgVc/pSbQEt4zRoQsmXO4eS6asGkDENfQzBVKSkvZt6kjFymOG4elTpj2DAKZ3ah8xaM5B8ZQM4LccKyOHzo8mZq2PJ5TsTya32KtL2qIa0P1Go3HlYRb9268EU+v0LNyeQ01fGkiPnS8i+kx6y49CHphpqYdNgMm76e0Z+08biVLogumG631k1Bg/8kqVf55CtP5ibqu0/jiAHTheRs9fGkRv3K8mjX3zk5/9+ErEAdBdvTSCHzo0yBBXua8FXg8nHn/bRpwpU6aPUE3YbQGr6pGDaB+CBL2IGnO+PfkSOXxxDbrRVksfP6hwBjZngd1y5M4nsP+U1dMzrlmQbOODytlSuyb18z5ZgZmvxppygwNl5eCQ5ebmM3G6vch00ZgITuP90ke7+Pt+cS9MJWq0kPSz2ZfRMPXmHLvgKXiW9VQQPcjWIsrbsNzZbMFXX7lWQp7/WxxQ8oly+PZECW3S+y6aJvpL0oliVs1IIiPBCgg5vpQggHPjqbXmG4Dl0bjS591NNXAFHlJ9+9pHD50s0971pzzCaftDnllJ+kuMAqlmQZZjfgd+B6CmewSPKtXuTNVopBaQoAOiztYN04Nlx+ENy6fbEhAKPRis9VckPZ4pTQHLyKp2d9VevIl8W/R8j5xmOavtTNWEBxAR+2/FLYzRA0iUnASRfRk4KIVbCeCEKA4CQ9xEBdOpKWdw5zZHK+RvlGme75JMM0dn+3aOmyymUhMgDiSYMiTkxSYhkXjKBh5cLHJBWbxuiC/+9ivwcLIUUWoxD+Z540/gDQxFTBBDC9mQFkBGQoIX11BOpLZWQNKqFCX5QdWM/nQm7ejf5AcQENTn2uVE81hdvpYM4txR6ApdXkWrFPJAYxp+/Pr7LAIjJ0dbOXBISqwYlkvkp9ATCeWRneUdaTCTiMLsagFjUtv9UUUfhVlmYZaSRUqG/GI1NWzlAA6DdxwujUiw1K6Ki7gbqBxPUwZyq+lvJI6FwjLNAiQfcKF3EVpPRq+tqodq0t/kDAdeGp6bCkb77U3XUgfPk13oaASIPhXsIVtzF9/FzT1xONeAM2H0gh6SrsynSky7raIt86JXfaKkcp6+URR08yNWIBdJQsvPISNJ6s9xVMAGs7Pet/26oPvRXpX1dTwvVSJn8IcDe8w9m17GCiB7KjbZqcvLiRLL7WCnZvLuIrNk6kizZ+AGZujyHSuXcbFIx2y81jQP8X18xiJZWwL8Oxg4wE9zzjbbJrgHpCFe0RYOAAUOyoctqIXRIiPxnK+H8tbtV5NDZ8WTr/lFkZfNIMnPVEAqO4roM3QEj+4t2n8p5/aj4FmeT+qV+qV2YRb/GU1dxTyj2Ik9jpfuDF5Qw3NBK8M9A4WW/B/RfsTTi9aUN7JK+EMJX/iHsPeHpOLj2pz5y/loF1SjrdxSQueuGUs0hAgUgAbtRXZxNk5TIdMM8Wm0BMurWYKAClRUOvx2i/96THuoUOw0k0Fy+5fy0qvn9dBnt0dXpPbpURIaHz3JCTbvzKdNv2eZhFCxV8/prDgjaoXxmJjV901cNJIs3DiZrtueRr/cOc61bA4ACMJF6gNQtzabOrVXzdv9xrav+ET472J0CkC4ndSKS0jw4njRoDzWN/TTEdTwsgAUPb/a6QRRYKEgGe1h4M/Hmi50aeIDo0hALtQjPWQcHiPUI2UEnQVH34Fljgj20EACEewPwzSi5otPtBtOA94+QV9OVRnwZK5NP+9Rk9CpS0iq8qnRCrNKjya9h2QDSuOF9sm5Hnqn5AX8I/Bs8cPhNAIHT1Xz8e7fuV5KjFz7WmA4INN+4GX4zh34yK0ByI9cl+kcwv/qMdvrwhK6FoSkPEzj8DnRnRhqqF+YI9SA8EB4wzXvySdO2XI20HCmgRHt0TTxwwTRYSfahQ4QHBSI3ON34PHO+GGQJSNBwbvpHyGhXzO6ra0NKGP+IdmNUp8sIMT2KdISvxsNcoU99yaacjkbCb/YNI2vWZpN5n7xD6kveJJV5r5Gx8kuk9N3uhjIh8xVSP/INsrjqXdK8fDA5c3QMefJLdLPYN+9XavJHrAwBTYqXwQqQkINyvOJ/U8tBEmcBoFAbt8BBC3PAPGk0DUwToi34MZt2d0YzAM6yJZkUNOP6vBwUMFZl8oAepGlBf3L3bvR41fChEDnyGgmft3JuP0sggtZww9FGoyT7HdCMus4YRS6NqwRhkSp9jjS7qGkAGiMC/ZaWoWRu3X/IhOxXIwaOkYzPeJlsmJdNHrTXRq2WxoqikLXf5tFzgC9nBUgolbjRPcLqa0ZmDS95TEfbUIeYAsc/64cm4RqzSOOGwaZ97tA8MFfjM19xBTyiTMp6lexqGhYVMyc6tfCP8CJZTRvAv3PD3PJmTRetKfK2qAIHZPnCGqmEEcUAHITb0DZmkRPrb9/aPJRMHtwjKuARZaq3J7l4dlxUOlrZ517xzRBKrLdTa3ODmYAAJGg2m5q1KEwgGV6b9fciVaqjPN5AfzvCbrM6Eg4EoTDCbeRfNi8dRMamvxQTAPEmbscXea4DifXYw4SgIGqWyxIFgyTcKCAjncAy7ywVwY+ycRU8HkWeDdsJNQj1bBZx4PBwCDxNA2ZkaW1aTMEjyjJfuqvmDWxLdibwQ8SmAjNBvssNThK4T+x3oOyjyx05PVxLBA8yssHqQ3AIEU62P1X0b8AvdTT8jicAMcF9uQWkG5wfgoKuSKgLJeeuuWN2+byWyIZECsZBYjx4zebggakCpwehbVAVGscAYrKqoY87fhH31oMNINJZQgkiKjd656DhoOlYuUZ0siNmQmLWMgvR8fYYgQeRB+pPVugMeEDxDCAmOzfkuw4i0EnsFnhRXnGl7Ygr0iJyFLTR2khMF62eT57Tl+Y3jOw0TJbVt2PT4oEJASAInP3W02NdM2dTAjwluyBCROUWyZ+lIcA60Goj6QUicFsA8tex5GeoPgdz/lABt1NtPrizMGEAxMQ3/J/k0VOfgyWHzrcdvOdwQAT2gVuO//V7kzt+D1wWXhsVKOkF1pOFqvQRqBfoEmjanW84ScxuV2lbWzUtOyQaiCDQnk49pBOXSjs4PXgw4YAIuTU3ZwoApIyXLYT7LRYBJE8CZRI20WgQJirLSJnbvbFE8YOC5ZCuX3EmY7wv8IBAocWDgV8UDvHNLHBxMimKGh/fahTSpIFLAgCJ1FOG/nDDS2SDY51MjFRW1MuORECsjQcT+Y165qyK25PdmDYCk0KjjWrTR5hW2IE0EL2MKsmRDEWI93DeqpN9+1ZkURHqXywzzFiZ8798PywQgVjn6pzIOxM77lXbaiRtNNFC8mWoLtGEAUCRTFG9eb0i4bUQE/CSnKBfMFMGQRtPvJkzVg5hlF+Ng61Iz43pGopcCrQ1teid6EjHsiRSSB9KZpa8FRH1gjEK+W6Lr8JY+4B/J5rDIVBE15i0amFoViAT/QQVXPFmQWCP9EaqBr+WNCCqyXs94olmSNTyXSvhaCHUIaM1ZNTQpImTRby+tHy+BYfv44o0jAQlNVkABKno3yNs04ByEM61YXnnuJcpYYT3Tr3cVjlQLBAAH4yjz14XfaFtRuQohHmR3gQoHskEIiQewzmH1gCnGVlgns8sTnWLF6ealwOBif7i0CxUM/jW5BfifosDDtExPyvtlVQgAm0lnLC+Uwtp61Ho37cLoAMuUGVNrclV//S1L3bkabPXqpzbQWOFrRMjMqdmHE6IEs01WrK3eUTYzEGRfor/D2cAhBMWwt6Qi85an2YyrU+awcobRShtiJ6/E4MFkFNJJgCBj223hoZp/dsNIjJa7phr3x9yow/NSlTJF4x1JRDsaxf9IafUJarfyQSiratybDuljHaKxXciWxCt3nYAhJyN27mhYPJdoHcO2XV+Gq2/Uq9Kn89aM8gVmsG5E2VJA6BPC960zXQEh5wNnNAPKJdtrwWN5Rhl5lyDzcFFaH90TNoAqd6NjktU7ZPFjNktvrIJHLSfSzcv0d+saQdAF1zogg2HOrt6u5Z//SHarQEiqFr+hlEzceqXJ3p0hsAAuS67vVzMD9Kqf/umLF42AaDwzrSqLnONzKNYAHQSRDevTybVOYmZsQb3yS6AUGNk9SYjP4hFZVZmFe05Xhg3a7RYMRairehnjKCOtegTOT1AHH3voFEkUhEWgyDsmjAeQMj/6NcisDmT2aY1MURg6MeLp0U2PKWXH46FCS7dQHcEr4X/IGDeuUK7vDKJLKx8J+4BtG5WX9uhPA6ZAchwQQsnGAPIhmXdf6zQPjz253gdsM43F8Cf05D3waNGAx0Pon0u8ncZQW3OuH/HZQSGiDKcMXbMB0Lm3wxAGAeYiFP6eRBVztMwHU90wzBssZKMA4nGNPpTh0viwvFW8v9BM9F2Q3gkZI9xDX/Gm306ZXR9Hzq5NtFBhJYxfqA6Szg+WSe0AkVzMw/A1Djp7aiDZ/qof9Huk3A6XenMoZOdM4cQbQUDD5Om7z0JCSCjXjm+jYgR81tELtGPMUivX700kc4McpN/BK0Dktzl1vDzLlgvzvwf1L40b6YazJkeSJ48q08KECEQ4z9bAETpCmYviybtwePYOXoIrUEjgbmLpIhblfMadeYx7QMgjXyl+GjNmgNMqw0FIMzOvnCjMmEBJBZhDUHEhoyLEz2Qto+XDwGe9unDJdR3CSVH9xZRB/nhI+deAhDs+dmLyK2Jcw6DSfPe4oRff8XPwDYEUaD88ZuYv9ju0qzARBJoY351ODjo2j4sc5m+MjcpzoFxikQQATcadiMiC7EoGG0CVLwIolNMNuFH9YLZZxa+i1I+sx+5054cLyE/RJ3f5uhRpId823QRvohBVbriXxJvcTYaaIAUP2MiskHmmP5mFTzMDzrWWp4058JHoioXSGjmFiFfxNYeiH1QiESiyemNlWCQwZ4A/4fxoeuXZtsCD5NNLd6k0so8HviMtW6Ng1eRv2PT68XOD4wbcWP7TVyErw+maN40mC7MdTbiAFmROQmalQ7eNlSh2abEBxQY9KofZBX4JqicIu8ac5hjuVfVDfAwshWfdeb3l9kVrMNqf+pLKhDxaQ2UdYRZjq8bNDH6505DjHry3drHFWvw4HAmG5DH7AjGCV+6VZl00Sm/z5bvmfPyTrWw2bBBXEwnaiTMDIzFol4nfJ79Angw0Z4tbYlE/CvVh9BoDm/ujfvJASZG8WWmTGPixS5Yfrwev3MDUt3YT9faAnRinHA8cV6C9XyhcZCfZM/WIjgBHiaI3sR51CDpI7JNVBcAhDj+84jNi5giE3w6iC9jpXhI8BOMZlTjoPCGx1uYDk1wpLVEt3cMkaedZKFtn2hBlm5fB2ZaYs9aIrkBePl2cS8eAi1+QWHIkcRG2oipbLQXGa29RN8+thDG6q3D70UUAfUrrhbHAeAtGj/jPdfAIwr6s8SuYmhvjJZBHSqeNTjuDexK/t7rlmTbH46O7sZgBwS7iKq/EU8YOSVkN5Gwe+jimwcqBjQg3nBMyNguaBz4cdidgQq71RqXLaEbnKWVbBVFMIHWE8HEZn3j3uOtrAQA8dEYZNFGkSsunbC87IVfLWWclfUvgMHDMhvcfejcaHpgKOLhLQStgNFBjQRcZfwMQAIwooUJfx/gBOvSaNcqDxzQfXnV6waAMBi1YymOIpci/R8KTCuC9N3jJYilFue1Ob8DzZDqq0h/Fvt697Sz/XmQnfAWDw95FqP9ZW4Jhgxg/RV21NupazkBIN151WaM8Chyq9nfR7YXA6OCdbiivysWkS/mP/LZ+qBc8dpA/72dy6tKX4Zz2FiKx2+FXr9zaFjDC/gV3HBY0YaDXi74HOFmlN0AkObMaqVs/2bJ4P8WAhXQSYKt8IJ2srqdIFIHGo0Z2w0CEP1LKZ0Ia+U5amrouXbqQeDGyqb1odt1QPjGWnLUp0SpavRPmsdhR0XDOAQgzdnVpr0N1ij1n0z8S7wUwUbuIUg4FWJPSjgCX+zk5VKdawBQGzVcwlwX+3p3D3uvR7Evoye/5LfLSRgAEqfy0tUWJmBC5As+l9k6T/CaQI4Lx3eCw4y8D3J7/D5aMWs/ziiCVeTnwEDk6zh9GTlmh5ACkLWVpqHMXLBck9jgCECBKIaGiluBQIQJgheYQrQ+I+WBYETMl1nP2kttju6BxWF2LSBJvxercpbTywbxVofSTKwIDt/EaKtBpAKzhSHn5vVCaSPcGecXBHcVICnyc7d3n+IN96jyIlBMze4F6QpEvgBUpMEJgIPcmamfiSK8kj7c1Z2vdHVDEvtIcCJN60IuLGAGsxS7Vq3cH9IEGE6OyHfxxsHUl8HIl6Zd+VRQnsLX8D38DKJkRMsWNO8LbNS0vY4q7LcIHSIhkpEJ6gMd0UxFjfKFeT/+aoF0O2ovjSo/w0bNmHxuSqkNLNRLCg2kyovCyoO4CKgiJa3C74zra5mRaVuYUGkjEspx8WHBiKRoTljzJf/mug/glPZX5Sr68FX5NuPEW/XxAmBs0K1UiJeL2nX/huoE85WkE6MxMi4BL2hNpA1Qbimslco8qjTTWyvNwX/xZ4wNQnAQS/McdsQBPpKttyQ24HlRpMil3VJXfIOJaqYQVIlYJA9RD4wohZ+6YmDmEL4q0pFY5pegGREERDN0T10uXHj7PYpcDkBFz9whVJYaHE3dp6740VCgTBQp8myPIh0MlbW1AZo2mCs01el6olJX8l/5vt7dASxoKxplKPIWUCk8inxGFISrNEfl/7lyhK0JF4UkyfV/9STaU5vNVAAAAAAASUVORK5CYII=;" parent="tv60x9gzvXhbaiR4rFQU-26" vertex="1">
          <mxGeometry x="33.49999999999994" y="38.489999999999995" width="26.1" height="18" as="geometry" />
        </mxCell>
        <mxCell id="biuPvJfJ3vbkD2ER6AKR-38" value="" style="group" parent="1" vertex="1" connectable="0">
          <mxGeometry x="720" y="338" width="57" height="48" as="geometry" />
        </mxCell>
        <mxCell id="biuPvJfJ3vbkD2ER6AKR-39" value="" style="verticalLabelPosition=bottom;html=1;verticalAlign=top;align=center;strokeColor=none;fillColor=#00BEF2;shape=mxgraph.azure.storage_queue;" parent="biuPvJfJ3vbkD2ER6AKR-38" vertex="1">
          <mxGeometry y="2.1316282072803006e-14" width="44.41558441558442" height="38.82352941176471" as="geometry" />
        </mxCell>
        <mxCell id="biuPvJfJ3vbkD2ER6AKR-40" value="" style="shape=image;verticalLabelPosition=bottom;labelBackgroundColor=#ffffff;verticalAlign=top;aspect=fixed;imageAspect=0;image=data:image/webp,UklGRrIDAABXRUJQVlA4TKYDAAAv/8A/EAaKbSRJkqRUdXevWKe/EP1ETpUj+57OmP+QRduWIUkRpbZt2+7+tG3b1p/t7rFt27Zt256yIuNNwH78rG6em3yhWHivMt972HqNBjTpUdUM1/lUkVR4q3I/e8w2zQd04WeONX4Sasp3RM0ZzmyLfSvUVOx89S+rPSLU9ZGu9Y5a7pQKZX1jwEWp722hst/1qKamF4XK/jP0kuR4WKjtS/Vq/YndJtT2q+ZXZJVQ3eW1zJYWa3dfkGp+LKdM50pHrk+F6jIGX49ZXd/xSkZLy7Wrr8cNE/hQViEXCPX9IudyfDKBCrULeWUCiXaXI3+C1rGQHyZowy5HxQx61Tmy/DqDkVHImsKoO6Tnx58ey0/35afb8tN1+ekSn84ffzotPx2Xnw7LT/vlp1182n78abP8tI5Pq48/LZefFvFpHt/ZPD7N4juaxafp8jubxKdJfBovP43iOxvFdzSMT8P4NFh+6sd31I9PveWn7vJTZ/mp/fGn1vI7asan5uqTLj+Z9adGepLlp/Ljby8/5fHtQrL9lklrWEct+TOYeIcMr6OfdAZb7pAL6zjeM3r0DsnXsorm/p1Chb43qD0qt8aZ5zFhTm+ocYPaLWeNCkcd9wqzelz9G9Q+MunIe5c6lvlWmNf3lqlzf7r94HanHXOy21nntvNduF3k0r1dubdrXNeud1O3W7Y7vOR/YW7/e80D7v9x3e58CzX+WW65YldqEV63v0xIr5WZkV7L1z299pSs9KSGpdcuiM+78fkvPuXx7a//vv77XxXyve1eN7j2xW72sE9VxKPMzcaoOaB3ijW22PPSZKTu0WFA7z9iI3yUi1Krf8UDKqm6q1NRbMKAqspyNBMZCwdUV5ZrI3HVgCqr6fNA/KNRqW2yNA9HB1RblrfjkNGp2LYpDh8fWdV0kKTh+gFV/zvL72nYX257LQ3b6nkyDZvrefTrv3+ds7WeJ9Kwp55X0nB1ObFf0vDeGVfTWpKGSm2qWSWk0XYXE3spD7+qXctwmTza2VKqekcIRKUJhcTOCom0/w0pc8S2STNp+aYWkeuojBBKS1ymcQV9vSBMeZO6/euMfmfWe1Qzxp3KhWi6ZfzkYZc67eSLnXWN5/0nTHujfuyv/77++x8i8vPy/zM+ysuHz7giL5c/Y2ReRjwj22tpbdnPbIOVZqXUoAE9b7UkKcke0CstVZiTQkv2a3VzvyQjiQd0G9Crz1gnu9zuBa+F226zUxfxgB4G;" parent="biuPvJfJ3vbkD2ER6AKR-38" vertex="1">
          <mxGeometry x="36.27272727272727" y="28.23529411764706" width="19.764705882352942" height="19.764705882352942" as="geometry" />
        </mxCell>
        <mxCell id="tv60x9gzvXhbaiR4rFQU-32" value="" style="edgeStyle=orthogonalEdgeStyle;rounded=0;orthogonalLoop=1;jettySize=auto;html=1;entryX=0.5;entryY=1;entryDx=0;entryDy=0;entryPerimeter=0;strokeColor=#808080;" parent="1" target="tv60x9gzvXhbaiR4rFQU-31" edge="1">
          <mxGeometry relative="1" as="geometry">
            <mxPoint x="678" y="511.8000000000002" as="sourcePoint" />
            <mxPoint x="742" y="377" as="targetPoint" />
          </mxGeometry>
        </mxCell>
        <mxCell id="tv60x9gzvXhbaiR4rFQU-33" value="Publish" style="edgeLabel;html=1;align=center;verticalAlign=middle;resizable=0;points=[];" parent="tv60x9gzvXhbaiR4rFQU-32" vertex="1" connectable="0">
          <mxGeometry x="-0.0681" y="1" relative="1" as="geometry">
            <mxPoint as="offset" />
          </mxGeometry>
        </mxCell>
        <mxCell id="tv60x9gzvXhbaiR4rFQU-31" value="RabbitMQ" style="text;strokeColor=none;align=center;fillColor=none;html=1;verticalAlign=middle;whiteSpace=wrap;rounded=0;" parent="1" vertex="1">
          <mxGeometry x="712.21" y="377.87" width="60" height="30" as="geometry" />
        </mxCell>
        <mxCell id="tv60x9gzvXhbaiR4rFQU-34" value="RabbitMQ" style="text;strokeColor=none;align=center;fillColor=none;html=1;verticalAlign=middle;whiteSpace=wrap;rounded=0;" parent="1" vertex="1">
          <mxGeometry x="712.21" y="144" width="60" height="30" as="geometry" />
        </mxCell>
        <mxCell id="AwfPjfsMhh4GiaTj0pVG-6" value="" style="group" parent="1" vertex="1" connectable="0">
          <mxGeometry x="285.52" y="297.61" width="74.12" height="80.25999999999999" as="geometry" />
        </mxCell>
        <mxCell id="AwfPjfsMhh4GiaTj0pVG-1" value="PostgreSQL&lt;br&gt;(volatile store)" style="image;aspect=fixed;perimeter=ellipsePerimeter;html=1;align=center;shadow=0;dashed=0;spacingTop=3;image=img/lib/active_directory/databases.svg;" parent="AwfPjfsMhh4GiaTj0pVG-6" vertex="1">
          <mxGeometry x="12" y="19" width="50" height="49" as="geometry" />
        </mxCell>
        <mxCell id="AwfPjfsMhh4GiaTj0pVG-4" value="" style="shape=image;verticalLabelPosition=bottom;labelBackgroundColor=default;verticalAlign=top;aspect=fixed;imageAspect=0;image=https://martendb.io/logo.png;" parent="AwfPjfsMhh4GiaTj0pVG-6" vertex="1">
          <mxGeometry x="50" y="56.139999999999986" width="24.12" height="24.12" as="geometry" />
        </mxCell>
        <mxCell id="AwfPjfsMhh4GiaTj0pVG-5" value="" style="shape=image;verticalLabelPosition=bottom;labelBackgroundColor=default;verticalAlign=top;aspect=fixed;imageAspect=0;image=data:image/png,iVBORw0KGgoAAAANSUhEUgAAAgAAAAIACAYAAAD0eNT6AAAAAXNSR0IArs4c6QAAAARnQU1BAACxjwv8YQUAAAAJcEhZcwAADsMAAA7DAcdvqGQAAK8WSURBVHhe7Z0FmFRHs4YruCy2+OLu7u4SJCEQ4u7u/sfdE+LuQkJwd3d3WNxtsQUWWOz219ObS5IF5lSfmTlnpt771DPdE/LfsDtzurrkq4tIEARBCDV5lRVTVlRZPmN4L885LJeyNOKUZQ4s/yaTMvyZE8oOK0tVdkTZMWVHjWGd9t4eY0nKdpy13qVsvzIhBhEHQBAEwQ4c0BWUlVeGQ764siLKSijDgY/3cijzKnAi4BBsUrbuLFtvXncqE6IQcQAEQRAuTFZllZSlHfR4TTMc8tEMoghpTsEyZQuNbVQm+BhxAARBEP4JwvPVlNUzVlVZdWVwAoT/J1nZUmXzlS1XtkLZXGXHlQk+QBwAQRBiGYTqGytrpKyhslrK8isTeKQom6FsirJJyuYoE4fAo4gDIAixCQrNCirDYZdm2ZUBFKf9+9mQTRn++b+LztJe8ZDHwz+tCO2gsr3KvFRghkK6+spw2OPQh5VSJoQOfBZmK5usDA4B1nhP8ADiAEQnqA5GuDK33p2bA8rwQD+kd0K0EK+snDLkqtNeyyo7+7BHFXk4OK1snzE4BGlr2G5lW4xtM69wINwCf0eE8Nsoa62subKcyoTIAUdxqrIhxlB4KEQIcQC8DR5gqCSGFTZWQFkhZQhd4gaHfCVuZri14dDnPuDS2oaQ14NTAOcAD2y0Cv37FRXDaB/CA1uch8iB33kDZQhdI2edduDDAfAr+GxtNbbZ2Gplq5ShKh2fzfOBv38XZZ2VtVB2djud4D0WKRuqDM4AagnOKBPChDgAkSeDMtzOappXGB5ieEV48t/9v14DjgIe1vDkz35wo0I4UZm0ELkDnLvaynDYpx36FZXF0ncYhz+cADgDcArSHAO02OHQh6FSX/AniALBGRigbIKyU8qEECIOQHjB7RxFRjjs8TDHaw1l6COOVhBRWKMMzkCaYY+HN/6ZkD5wDBG+xk0Whtx1FmWCEAvAGfhV2U/K0GEghABxAEILcvC4qbVXhvwjHuLSSvT/QJEsrX0orZUI5mYe2E8gN99WGT4v3ZQlKBOEWAfPBzgCPyhD6lFwCXEA3AWhSDy8L1bWUlkVZfIzdgaqyuEEzDOGvmKIj1wo9+tXkLe/Sll3ZXAQcfMXBOG/4BkwUtl3yoYpkxSBJXI42VNaWVdluLGh0hjtUoK7ICKwWBkcglnK0GOMOgO/AmnYq5Xh4EeYXxAEZ6AW5BNlcAbQciowEAeABw79a5VdqQw5fCH8oOgQjgBaimAoBvMyKOaEk3irMuT0MyoTBE3evHkpPj6eMmfOTHFxcZQjRw7KmjUr5cmThzJk+GdQ6KKLLtJ/PjU1lY4cOfL36/HjxyklJeXv12PHjtGBAwf0OopBFxJSAx8pW4s3hOARByB40FrVW9l1ypopk5+dt0BucJoyOANwDJYo80KIELf9u5XdpgxtnEIMgIO8RIkSlJCQQEWLFv3bsC9UqBDly5dPH/gwrP99yLsJHICkpCTauXMn7dmzR6/T9rt376b169dr2759u/k3fAn0JoYr66NsPN4QLowcYucHP592yvAAx+1NqrD9AzoM4BBAgWy0MqQQwklTZQ8o66nM662cAoPs2bNTuXLlqHz58vr1bCtVqhRlyhQurSV3OHr06N/OwLp16/Tr2rVraenSpbR1K7p7fQMKil9UhjoB4TyIA5A+EA9BjvZ+ZRgCIvgfqM7BGcBDAb3GoZKoRbfHk8rgMApRQK5cuahmzZpUu3ZtqlWrFlWqVEkf+rjNxwqIGCxatOgftnr1ajp58qT5E54ETv9ryv5SJgJD6SAOwD9BRTZubTcqu5CMruBfkBpAMSEqikcpw2hThBC54HvUQ9lzyurgDcGfFCtW7O+DHq916tShsmXLhjRE71dQY7BkyRKaNm0aTZ48Wb/u2weFZ88xU9kLysbqnfA34gAEgKLas8quUSbFWbEHogNIEyA6MEIZht0ECwr6XlGGFj7BR2TJkoXq169PTZs2pebNm1OTJk10fl7gcfr0aVq+fLl2BqZMmUJTp07VdQYeAinB55VN1Dsh5h0AyIbi4Ee4Xw5+AaDlcIyygcqgT36uKw3keN9TBr15z3N2IVrBggX1a+HChalAgQKUM2dOXXmOinNUnyO3nQaqzVF1Ds6cOaOrysHBgwf1A//w4cPa8P7ZhmIzFJht27ZNv8Lw5yMJiu2aNWv2tzVo0ICyZZOu3VACh2DYsGE0ZMgQmjVrVsQ/A4bByh5Vtk7vYphYdQCgsY/cEPqwfXPw48aCh3bx4sX1TQWvyE/iIY2HN9Zpljv3/2cwMmbM+I89Qnco+AH4QuJhfurUKUpOTtbrtIc6LK1qOO0VHv2hQzEz/wcJTowwhTMwSBnKpFHV/7qy65V56vuDQxy56ho1avynMA2HfCTB5wufnQ0bNmjbuHGjNhSbrVixQn++3Aafe4Tx27dvr61169a+K8yLJvbu3UsTJkzQDsGgQYP08yaCYCohHHh8lzHOOiaJNQcAT8GnlMH7+/9rjodADhIP7woVKvzjNe3m5gXQZ4yWIdzuNm3apF9RJbx582b9cMdDHX3JUQauLhAiwtS9iI+UxYHeuHFjatSokT7kYDjo/ZqrRu541apVtHLlSl11vnDhQlq8eLF2SJ2A78gll1xCnTp10oc+bv2C98AlBM7AH3/8QQMGDNCXjQiBmQMo2v1NWcwVCsaKA4C/5+XK3lGG23/EwU2kSpUqVLdu3b8ND3Hc4qIB3PbQQgRbs2aNDgUuW7ZMOwgeCQP6CkR5WrVqRS1bttT5anxeov02i5QDWtEWLFhAs2fP1iHk+fPn68PjbPLnz09du3al3r1764MfPfiCf8Dvc+jQofTzzz/TyJEjI9VZAMlxFICjODhmiAUHAFP3vlDWSO8iBMLyeHAjDImHOA77WMw/IjKAkC+qh+EQwHDj27VLZnz8m+rVq1OXLl20IWct4WvSqndwCGbMmEH79+/XP5cOHTrocL/gfxBZ/PXXX7UzgOdCmMHNBIqC/1MW1fKJaUSzA4BrwCPKXlYWdgEf5Otx2Ldt21a/1qtXTx7g5wH1BXAKYHPmzKGZM2fqHHGsgar0a665hnr27KnFZAQhVsFz4KOPPqJ+/fppxy+MbFAGye6o7xaIVgcAc/a/V1ZX78IEKqjbtWunQ5Hdu3fXYVuBD6rJ582bR9OnT9ehX/QZ49YXbVSsWFEf+ldffbVeC4Lw/+zYsYO++OIL+vLLL8MZKUQ9wNfKUC8WsQKFUBNtDgBu+hB8eEJZWK7bKMbq1auXPvRRdCRtRaEDleRIHyAXjAjBpEmTdE2BH0GE6NJLL6U77rhDO41prXaCIKQPio/79u2rowJIA4UJtAreogzzRaKOaHrqIF76h7Kw5PoR0r/hhhvouuuu0wM9hMiA2wEiA+PGjaPRo0frrgQvU7p0abrzzjvplltuEdEZwRHJKehcUzebjBkoR9bYLnScOHEivfTSS1p0KAygNuBTZegWCPRPRwnR4gBgYA/aOEL6REW18U033aQf3lWrVjXvCl4iMTFRtxfhAYEIAQRovAAK+p544gkd5pdakNgj9cQp2rEvmfYdOkr7D6VQ0sEUOnAY66PqYD9GR46l0pGjytTrYZg57I+dOKn/3QuRI1sWypo5o3IMslDObJkpS+ZM6r3Mep87R1YqkCcnxefKQfG5s+t1vlzqNXdOyqX+mZ/B9/yFF17QqoNhYKUyTIRdrndRgN8dAJT+Qn8dFrIGaBRj3X333XTXXXdpwR3BPyBlgBYjRAjgEIS7xQha8g8//DBde+21oicfxeCQ3rb3IO3Ye0hZMm1Xlrbese+QOvC9qYuRVTkKJQrloRIF8+rX4vo1r3rNQ4XzxVEGn6Smxo8fTy+++KKOBoYY1APcqQwXTt/jZwcAqji/KuugdyEAimqPP/44XXXVVdJbHAWkKZHBGYA0aSh1yqHI98Ybb+gWPiF6wEG/fsdeZfto7ba9tHZ7Eq3fvo92qkM+2siSOSOVL1aAKpcoSJVLFtKv2ON9r4Lv9jPPPENz56KtP6T8rOwuZb5uF/SrA4CJaxjcEpJ5nDj40x7eUpwVnaCgEIWEgwcP1kpkEJxxgxIlStCzzz5Lt956q/Sm+5xDKcdp6fqdtHzTLlqzNUkf9lv3YAZC7E6WzZghA5UtGk+VShakOuUTqG7FYjp64CUgNPbTTz9pRwA1QiFkkbIrlK3ROx/ix9OtvbL+ylwf14v53sgnycM79kCqAP3GSBeg5dAp6AZ57rnn6MEHH5ROkCjhWOpJGj5rJf02fhFt2hV97adukT93DqpToRjVLpdAtcoXpcolCqmLk/mHEQSiY++++y69+eab/1GPdBEMNLhNWT+98xl+cwB6KftFmatPWKj0IdT/yCOPRHxoihB5UEjYv39/3XIEYaILAe15tCb5RbgHN9j9pgBtb/IROnA4UISWogyH3tHUE3T4aKqW4j0bRMPisgc0tXLnCHwFsUchWVz2rPo1l3rNG5dNmSdHbbA4rX4OM5Ztol/GLaB5q7ead4VzUThfLmpRszS1qlWW6lUsTlkyRfYyBTnyRx99VKf9QgS+KG8re9qsfYOfHIAHlb2vzNVKKlRlf/DBB3rKnh/BA1tXEys7dOQ4nTx1mlKOp1LqyVOBh/nxE/q9f5M9a2bdToQHOAp98EDPkAGv6iGeM5t+zZkt7AKKngMzDOAI/P7773rI0dmULFlSH/zo5/cayFWv27GXNuzYp8PW2pIO0vakZH3o/+tsd53M6qGPSvNCeeN09XlCgVyUkD8PFSuQW61zU/ECefRn0G8sWLONPh88kxauxWBI4UKgO6FptVLaGWhWvbR+rkSKMWPG6GJut9J96YAowI3KfNMq6AcHAP+NbyqDuI9rINz/+eef69ubV8GNbKt6YP9/VXGgsnjXgcO0LznQRoRDPlTAIQjc6LLrMF/BvDn1a4E8ccrUQz2/epAXzKPbimIBDKRBbhHOAKR64TgiehRp4Oyt3LSbFq/bQas276a125Jo064DdMrDQ5fgdMIRqFCsAJUrlp/KJ+SnCsUL6HwyPndeZ/bKzfT5kFm0bEPoCkmjDdQPNKpSgro2rkKta5fVHQjhBmmBp59+mj799NNQDSXDMCHcCLzRf3wBvP5Nw38fBBju1jsXQBjz5ptvpvfee88zUr0IMW7cuV8/uHVlMV6379UHfqhvam6QLUsm7QighUi/qttdYJ+HiubPpb/40QQeHJFs6UNEZ5G6geIQwiuK1ILpFfcDqDAvV1Q5BMopqFa6CNWtkEBl1N4LOeX0mLp0A32hHIHVW/aYd4RgQOSxfb0K1E05A7XKJYT99wvdAOi5ID0QAhBi6KYMugGexusOAPIqjweW9qBC+9tvv9XTwyIJbu0rNu6iReu2a1uibm7IuUYjOPwRKcDtDlYRr+rWh9ufEDx7k1No6pINNGP5Rpq1couODsUKiECh4hyFZnAIKhYv6KkoAZz0iYvW0ieDZtDmXQfMu0Kw4KIAR6Bni+oUnzuHeTf0pKSk6I6dPn36hCIagL7QK5WN1DuP4mUH4FVlGMvoCh07dqRffvmFChaEfED4Qd/wNHVbmLZsoz7w08vLxxK4AeBBjr5iOAUwhIIjERb0KpB+nbhwLY2em0jzErfq4j0h8NmprRwCFJght1yykDcieSdOnqLfJyymb0bMiSkHzS1QLNixQUW6pm1tqlgifM9pjJa+8cYbQxENOKEMcwRQuO5JvOoAYIzve4GlHQjVoj3r+eefD2vYFmH9+YnbaNKiderg30jbkg6afyKcC0QLECWoWbaosiJUs1xRHT2IJfC5QWh/4NRlNFV9bnCoCOcHfelwBGBVSxeOuHodVP8QDUALoR9SeF4EDt5VbWpRmzrlwpJCPHTokB7MhYJfl8En4AFln+idx/CiA3C/so8CSzug3Y9bf+fOnc07oWfDzn00dt4aGqa+/Ki4FuxA0WE19VCHEllan3E0RgmgET9k+nIaOG25OIsWoCC1Zc0y1LpWOapfObItaEs37KR3/pis030Cj2IF8tAtF9enbk2qhMUR+Oyzz3Q7OCYPugicgMeUoYvNU3jNAUDO5Hdl1v9d0GAfNGiQbtUKNQj3DZ25UhuqsIXQgQd69TJFqH6l4tSwcgm9RjujX4GT+PPYBTRkxgo6fiK8cwqiHbScdWpQibo3rUpVS0Vm8iIiOsPUc+GjAdN1147Ao2h8Lrr54gZ0abOqIXcEFi5cSFdccUUoUgJIab8eWHoDLzkAkPfFJAfrKpC2bdvSwIEDKXfu0IaPd+8/TH0nLla3tmVaNlQIPxiLWrtCAjWsVIIaKIcAKQQ/DDBZv30vfTdqno4WebldL1ool5CfLlGOwMWNKlN8rvCLFCHC83bfSTRuvm9VYz0Biodv6lSfejSrFtJC0BCmBN5S9lRgGXm88qQsomyOshJ6ZwE8N/RqZ80aOsGJxK1J9Iu6tY2ZlxjzxXxeAxXjDSoV16IjTZVF4mF/PjA05suhs2j47FVS1BcBEC3CZwPOQIsaZcLeTTBh4Vp68/dJWsdD4FNWOXSPXN6CGlcNbYQX7eJPPvmknh3iIn2UPaws4g8ALzgAOKknKGuqdxbce++9WpktVMV+eHh/N3IuDZq+XB7ePgCRgEolClLDKiWoZc2yVKNskYhFBxAhQnV4v8lLoqZn3++gwPSqtrXVbbKqVqwLFwePHKP3/pxCI5QTKNiBeo9Hr2ipawVCxahRo+jKK6+k5GRXa7o+VobiwIjiBQfgO2U3B5Z8XnnlFd3TGQqQu/t2xFz6a8pSqcr2MSgQw+0P1eKNq5QMy1hTVIGPnLOKPuw/TW59HgVthehBv7JNLa1jHy4gIvT6LxNoz8Ej5h2BA2SnL29Zg+6+pHHIHDnMBOnevTtt3rzZvOMKLyt7IbCMDJF2AKDv/2FgyQcT/F588UWzcw/c8n8bv5C+Hj5HD0sRogc8KJorZ6BTg4rUQt0iQhEZgPbDm79PpAWJ28w7gpdBeqBDvQp0bfs6uuskHCAa8PJP42jy4pDp08cMhfLF0cOXt9C/w1Cwfft2Pfdj3rx55h1XeEgZUgIRIZJjmmor+1OZ1X/Dww8/rGf3uw0keR/+fKiu7Jdbf/SB32myevheox72GFbjJnAcfxw9n/737Sg9hEfwB6jYx/d+wNRltHzjLipTJF/I51xARrtj/YqUL1c2mrt6K52S1CIbXNLGL1hLKzbt0iJRbg8zw9yPG264QQ8FW7ZsmXnXmk7KNipbrHdhJlIOAGaJjlJWVO+YQL0JfZvQ93cLFPWhLetZ9fBGzl+ITlAs+MXDl1HZovnNO+6Az8yjnw+jwTNWyMPcx2zZfUB396CtF7MIoEcRKvD4wtyDNnXK08K123THgMBns/rdDZ+1iorE59LdH26SKVMmPQhs3759NGcO6tatweGFuQFLlYW9KCRSDsA7yqzG8KEo48cff3S14A+tWff0GUSj5q6Wh3cUg5vBpw9e5rrcKLpC7lWfny1y648aMFURjsDWPclUqXhByhXCcbYYn4xJeZj7IMOF7MC8FUQDMCUTmiFu1gbgwtmlSxc6c+YMTZ482bxrBQ6xHspmKtuAN8JFJByA9sow4Y99bW/Tpg0NGDBAe2NuMWrOanpE3dx2Hzhs3hGiEYRc+9x3iZYbdgtEjV7/bQJ9OmimtIVGISjkXLM1SXdwJCUf0bf17Fkzm3/qLihoQ5FqiUJ5aebyTfJ5skRHA2avotJF4qlU4XzmXXfAOZQxY0aaOHGieccKHGY9lY1WtgNvhINwOwDxyvAXZCv0lCpVisaMGePaHHbkgtGS8/HAGfJli3JQ5PXuXd10W6BbbNlzgO79cCBNX7bJvCNEK6gRWKFulIOnL9cOAAoFQ9VWiomZKFKdoZyAaJ0UGi4QDUB0Dq24UA91U/uhVatWesDcyJGuDP1DeKmrMqgPheUmGm4HAC1/7H7/7Nmz0+jRo6l8+fLmHTswtOP+jwfTxEXrzDtCNPPk1a111b9bLF63g+75cBBtk5kPMcXxE6e0wwdVP9wqMc42FOTPk1OnBFCHIJ8xe5Zt2EkzV2yixlVLUa7s7qVyGjZsSAkJCTR8+HCdFrAEl+PmyjBBMOTa4OF0ADCEHzKIbL766iude3EDaLDf9cFAWrstybwjRDPXd6irtcTdAjeKx78cLu2hMcyBw8e0mA8O6FrlEijOxUMlDaSsOjespCOVcDgFO/YcOEKj56zW9T9uOm716tWjMmXK0JAhQ9xwAoorK6NsoN6FkHA5AEiYDVbGrrrChCZIMroBWn3u+mAA7ZAq/5gAKoDP3dDOtW6Rr4bN1lPeTp2SQlEhUCg4aBrSAln0OGI3u5IA0gyNqpTUVe2oC5ACZTuOpp7UNV/4PdWpUEy9mn9gSa1atXQ6YMSIEeYdK2oqw4AZzMcJGeFyADDf/5rA0jkIsfz++++uVPzPW71VV2ofOHLMvCNEM/D0P7zvElfGwsKxf+ePSfTTmAXmHUEIcOLUaZ2vx/OlToUEypMTnc7uAllr9LdPWrxeJkdaAhdqXuJWPb4dQmBuTRRt0KCBLk53qTCwjTLoA6zWuxAQDgcgQVk/Zaz4GPL+0GIuVMhemWv2ys300CdDdFGIEP1gHOznD1/mSg83xH1e/WW8FokRhHMBHQhEA3CgoNPE7WgAogBt65ajGcs2UXKKXGJsgVonnDZECd3q7GjZsiWlpKTQjBkzzDts8OGBRsBwZbvwhtuEwwH4XFn9wNI5mMbUtSsKI+2AsteDOPzFc44J8Nx94/YuVKMMBk3agXG9z38/Roa3CEGBz8ucVVtCFg3A/177euXVDXabLmQW7Ni1/7AuBEdxIATC3KB9+/a0bds2WrDAOloIAQOoBf6ozPWZ86F2AFooe18Zyw3GXP9PPvnE2ovWAj8fDpR2mhjixk716IrWSKPZgdavl34cp3OGguAERAPQMohDpUopd2cLQNimc4OKtGrzHpGbdoHklOM0em4i1SxXlIrG27eY48zCxRWSwStXrjTvsoGAQWll/fXORULtAKCfkdV0nTt3bh36z5fPTrxh1/5Dutof6lpCbFC3QjF66aYOrvRoo9gP458FgQO0RTD1b8OOfdSkWilXalHSgGgQ5gjgGZe4VbqZbEFdxei5q7W+Q8lCec27fFCz1qNHD5o0aZIbUwSrK4PYyCK9c4lQOgAdlT0dWDqnT58+1K5dO7PjkXIsle54bwBtTRIPOVbInTMbff5QT1dasj4bPJN+GbfQ7ASBD3LN0A2oWS6BCuZ1b8AQRG1a1SpHB48c1WlOwQ50WEBCuGzReCqjzBYUBGKCYP/+/Wn//v3mXTatlP2gzLW8TygdgJ+VsW7/tWvXpi+++MKq6h8V28//MIYWrJFRrLHECze2d0Xm97fxi7QDIAhugTDzsFkrKUfWLFS9TBHX2s/wv9Osemk6lnpCtAJcAAW/4xeupaLxuV2ZF5IjRw5dE/Drr7/S8eNWaXwUKBRT5loqIFQOgNXtv2/fvlpUwQZM9Pt9gqvREsHjQOXvjm6NzI4PQraY0W6v5yEI/wSHC9ToErfuoeY1SruaEoBWAJifKJceW/Ddn7JkAxXKF6dTArZAHwA6ATjbLIWCaijDBCKMELYmVA4A+/aPKX+PPfaY2fGYn7iVXvxhrO0PWvARBfPkpA/vvYSyZrEbEIVQLVpFIfcqCKFi0679NEHdMnFou1V5DqATkC1LZt3yLNiB0wOXgfhcObTAky0VKlSgLFmy0Pjx4807bKoq+zawtCMUDgD79o+e/0GDBlHevPwCjP2HjtJdHw7U+X8hNkAI9M07ulD5YgXMOzwwh/2u9wdIwagQFg4eOUaj5iaqG6a7srS1yhWluOxZaOYKcQLcYPryjVp/AUJMtjRv3pzWrVtHS5YsMe+wQBoAlckr9M6CUDgA6FcMxKIc8vTTT9Nll11mdjxe+Xm8HvogxA5dGlWmGzrWMzse6N1++NOhUk0thJVA5Xki5cyWhWqUtdesSKNG2aK6S2Duqi3mHcGG6cs2UiXlqLkxUhjzbDA4aOdOq3OqsrIvAks+bjsAdZS9Flg6Iz4+nvr160dZs/KrtycvXk+fD5HCrVgCoigf3NPdWsULBX8jpddfiABIVaIuALoBKOZza1xtnfIJug1x4drt5h2BC/RAJi1ar4WdiuZnT7PXoDMAY4S///57OnHihHnXMchJzFOWqHdM3HYAcPjDCXAMBv107IjsAQ+E0zDa9+hx9g9U8CFPXdNGhzxtgKzqW79P0jk/QYgUq7fsocXrtlObOuVcKw5sULmEdAe4BKKEUAxsWq2UHtVsA4oC4+LitNaNBYi0fx9Y8nDTAUDTJP5jHF/FIPqDYT+oAeDyys/jJPQfY0Dw59HeLa3aqXbvP0z3wXFUD0lBiDTb9ybTtKUbqGWtsjot4AYNK5ek/YdTaMWm3eYdgUvqyVM0cfF6al27rLXEMwYHoeZt1y62fgMcAIwMZv8PuDMCKcBNylgn+H333Wel+LcgcZvOowmxQ8YMGejpa9tYHf4I6z37/Wg6cPioeUcQIg/Gld/+bn/avPuAeccOfEeeuKo1dahXwbwj2LAvOUXXC9lKy2fMmJE+/vhjs2Nzp3ll4VYEAI4Eiv8cSydBJAG3/5w5eSEVPMSf+noE7ZGhGDFF71Y1qVvjKmbH4/cJi2W6n+BJDqUcpzHzEnVbX6G8ceZdPtCmR1Rh0dodtGNvsnlX4HLg8DFatWW31h6xkRwvVaoUzZo1S3cGMKmo7CNlrBCmWxEAJO/LB5bOuPPOO61G/WJIi4S2YguM+b2jW0Oz44E+7E8HWY/rFISQoVuaPxhAc1dvNe/YgbqC9+/pRhWL27XLCgFmrdhMHw2YbnZ8XnjhBbNigf5R9rhctyIA7ypDW4IjIPULeURu+B8tNI9/MVym/MUY913WjBpUYulMaXTL32fD5CYkeB5U8Y9fsIaqly5CxVzQCoATgNn3ExasleemCyxdv5MKW6oFlihRgiZMmGAzMAjn+J+BpTPciAAg7H9xYOkMVP3bSP5Crx2tM0LsULJwXh3+t6HvhMVSMCr4hmOpJ5XDOlS3CroBhhH1ue8SypXDfmCWQPTGbxO1+qwNd999t1mx6KKMNcPYDQegpzJWuSrC/1zwpfhVJrXFHHdf0oQyZeR/bDE69cuhs8xOEPwBop2PfDaMJi1i54r/QdmE/PTm7RfrYlrBDkRp/vftaEo+csy845yePXvq1kAmaEfoEFg6w43f/lXm1RFFihShrl3ZqQsaOG2ZVG/HGMhdtqvLKjX5m3f/mEIpohUh+JATJ0/R09+M0vr0boA5BA9d3tzsBBuSDh6h9/+aanbOgQDe1VdfbXYsWFF4WwcAiY/WgaUzbrvtNsqcmafeBo/rN7n9xxx3qdu/TcXtjOWbtJCHIPgVOAFPfDnCtXTA1W1rU88W1c1OsGHYzJU0ZyVfevnyyy83KxZwABw/HG0dgN7KHBcSovjv1ltvNTvnjJ67mnZI7j+mwPz0ljX59SIQ8IDanyD4HTgBTyonYMl6d9T9Hr+ylRbVEuz5evhss3JOs2bNKCEhwewcg19gpcAyeGwdgCvMqyPatm1LpUuXNjtnYMLvT2MWmJ0QK9zVvbFZ8fhz4mLalnTQ7ATB3yCNhbHViVv2mHf4YGjQW3d0oQRLjXuB9NwFruwyLsYXX8yK5KfRyrwGjY0DAFeFlUDq3RuBAx6otly3fa/ZCbFAlZKFqHFV1oBJDeZEfDdyrtkJQnSQnHKc7vtoEG3eZa8YmC9Xdj1S260ZBLHMr+P4F1SbeTiKFuY1aGwcgEuVOf73IX/Yo0cPs3POkBnWI5AFn3FT5/pmxeOb4XP0w1IQoo19h47SfR8P0vK0tlQtVYgevaKl2Qlcpi3dyNZYaNeunY4EMHEcJrVxAFiuSuvWrdnKf/ihTli41uyEWKBkobzUpnY5s3MOwv5/TVlqdoIQfWxPSqaHPhvqyiTUXi1rUJdGjjXdhLNAvdGUJevNzhn58+enihWh7suirDJHegBcByCTsjaBpTNsKh1R/If+fyF2uKFjPav56N+OmKuLpgQhmlmxcRc99fVIrXJpy/+ua0sVS7B70gXFuPn8i2rdunXNyjF4UFYLLIOD6wA0UuZYlxKhjUsvReaAh4T/Y4v43DmoS2P+bWTLngM0fNYqsxOE6Gb6so30dt/JZscna+ZM9MZtnSmHS+OIY5G5q7fodnUOderUMSsWjmRSuQ4AS3WoRYsWVLRoUbNzxvod+2i58nKF2OHyljWsipK+GT7XlRuRIPiF/lOW0p+TFpsdn1KF8+n2QIEH0jHcDg2LCACoYV6DgusAsPL/XbpAspjH+AWS+48l0JpkI1CCWeoj58jtX4g93u83lRas2WZ2fLo3qUId67Pz0THPonXbzcoZcAAwvplJyCMAeZU1CCydgQpHLm5pYAv+oEO9ClQgT06zc87PYxbQ6dNnzE4QYgeEnp/6aoSee2HL09e0oaLxrDkzMc+itTwHIG/evDZD8kIeAWirDEWAjsBfqnbt2mbnDKj+JW61F7wQ/MMVrfkT/9ASNXz2SrMThNgD7YGPfzmCUk/YFcBiYuBLN3e0KsSNVRK3JpmVc6pWrWpWjsFs/aDn63McAJb4D9T/oAHAAbd/KAAKsUGlEgW19C+XvhMXWz/4BMHvoDPgjd8mmB0fyATf1MlOiyMW2b43mf0cKlGihFmxCFrXmeMAoAPAMXbhf15PpeBPejR31MnyD1B8g0IoQRCIhs5cSX9OWmJ2fO7s3kgrcgrBgxQkOpE4FCtmNZuhuHm9IE4dAIT+WT0KiABwOJRynJ1LEfwHWpA6NXA80+Jv8MCD9K8gCAHe7zeFFiTaFQVmzJCBnruhPWXKyLkzxi6bdu03K2d4NQKAAoPsgWXwwJupXJnXz43hCtLKFTtg3n/uHFnNzjmi+icI/wRFgU9/M1LXBdhQsXgButlSljvW2Lon2aycUbx40Jf49AhZBIAV/m/atKlZOQfDf4TYoUczfvgfn5X1MihKEP7D3uQUevmnsda1VLdc3EA7AkJw7DvEm9Hg1QgAq/2vXr16ZuUc29CV4B8K5Yuj2hXY87BdyXUKQrSCITX9JtuJBEGf44UbO0gqIEj2HjxiVs7wagSgoXl1RP36vLARhv+slva/mKF93fKUgSmAkaS+aFIsKgjn58P+06zHqaNL55p2VnK1MQMiLxyyZ89OWbOyU6EhaQOMU1YlsAweKBpxIwAL124TMZcYwkZ1DJr/UisiCOcHbWlPfzOKjp+wG6p2R7dGlFAgt9kJ54LrAIC4OBy5LIL+F504ACgAdNzIX65cOS0CxGHhGqn+jxWKxOeiaqX5vf/DZorwjyAEA+pkPh443ex4ZMuSiZ66ijUQNqY4cizVrJyTMydbCTVo6UYnDgCrN6tBA1bZgGblJhn+Eyvg9s+Vv16yfgdt2LnP7ARBuBB/TFxMU5duMDseTauXorZ1ypmdkB424+u9FgFg9fHZFACutpBSFPxF+3oVzMo5cvsXBGegG+CVn8fTgcN2rYGPXdlKxgafh2OpJ8zKORYRgKD/xZBHAGrW5Gm679x3iJJF0CUmKFYgD1tlDD3O42RSpCA4BjMzPvhrmtnxKJQ3jm69mB/ljXZQa8FtvbSIAGRTljmwPD8hjwBUrMgr7Fq1ebdZCdFOpwb88P/c1VvEURQEJsNnraSZKzaZHY9r2tWmkoV5dV7RDg5/bhTAIgIAgvqXg3UAIAFcNrAMHrQxcAUNVm+R9r9YwSb8P15u/4Jgxeu/TKCU4/xQNbQBHurVwuyEf3OGGQLIkMHJ/fw/IApwQYL9/4DD33Gip0KFCuy/xOotkv+PBdBKxFUWQ9vf5MXS+y8INmDc+hdDZpodj5Y1y1CTqqXMTvgHzPDmqVOhn2ga7OnMCv/DAeCyYYdUdccCNg+N+YnbaL+lvrkgCIER2ss32nVdPXJFCz00SPgnzOwmnbbTNQnqXw72t8VK5HPz/xD/2bGPN0RB8BdNq/EdAAn/C4I74Jn7ys/jdFEtlzJF4unSZlXNTkgDYngcLCMAQeUdgnUAWIl8bgQAh7/NB1HwB9ATb1CJp3mNB9bERevMThAEW9Zu20u/jF1gdjygEJg9a1AF6DEDt8DZMgLgqgMQ9HShs+E6ANuYIxQFf1GrXAK7hxgy0WhjEgTBPb4bOZf2HOANsAEF8uTUXQHC/8ONAHgpBVDUvDqiVCleeHdr0kGzEqKZJlVLmpVzJiyU278guA26AT4ZNMPseNzQsR7ly5Xd7GIb1ERkyeRYQV9j6QAERcgiAPB6ChcubHbO2LrngFkJ0UwTi/y/be+yIAjpM2L2Slq2YafZOSdntix0c2feBNhoI0c2fjokJcUqwulaBADxC8cRAAwAypYtqFbE/7B1j0QAop38uXNQxeIFzc4ZaFvavEucREEIBWhbf+v3SXSaK2GnuLxlTa0SGOvY1EMkJ1ulwoPyHoJxANCk7ThRm5CQYFbO2bX/sFkJ0UrjqqXYxTGz5PYvCCFl5ebdNGrOarNzTpbMGen6jnXNLnbJERkHACMIgxpDGIwDwCoALFqUVTagsZmhLPiDRlV4CpFgzsotZiUIQqj4eMB0K4XAXi1qUME8VnK2vsfGATh06JBZOSbofzFkDkCRIvzZ7vsOiQMQ7dQux4sQISw5Z5U4AIIQavYcPEK/jltods5BFOCmGK8F4HY5oQDwyBF2N4arDgCrko8bATh8NJVST4ReAlGIHLgVQAKYw6pNu+mgDP8RhLDw67gFVsO2ejSvRnnjYrcjID5XDrNyxuHDh226AFx1APKZV0dwIwBy+49+apXn14fMWrnZrARBCDW4kP1kIQ6UNXMm6t2qhtnFHlznx7IA0FUHIJd5dUT+/PnNyhmS/49+apblp4dmS/5fEMLKHxMXWz2Xe7eupR2BWCRvHK8Tbv/+/WbFIugq+mAcAFasNi6O1wIi6m7RT42yvPRQ6slTtHT9DrMTBCEcHD1+gr4fNdfsnBOfKztd3KiS2cUW3BTAjh1Wz7mg++hD5gDkysUKHEh+N8rBTaByCV7/P/L/cAIEQQgv/acso+17+WHp6zvUpQzcvl8fw1VE3LmTL8SkCHqso+ccgGOp/LYTwftUKVWIMjOlMZdttPpSCILA5IRyvH8YNc/snFOqcD4r5U+/ko9ZA7B7926zYuGqA8A6ybkOwNHjJ81KiEZqWxQALlkvDoAgRIphM1dS0kH+oKDrOsSeMFDheF4q3DICELT34LkIwFGJAEQ11Uvz5kOApeIACELEQPqt78TFZuccjP6uxEz/+RFkPAoy5ZBjNgWQckwcgGimIvMBsPvAYdq1n62MJQiCC/w1eQkdORaUymy6XNU2dkYFowCQOwnQ9xEAbheA1ABEL7lyZKWi8ayPk9z+BcEDQBcABYFc2tctz1bH8xuF8/GHIXnJAchqXoMmU6ZMlCUL75eMlhMhOqlQvIAOi3FYajGeVBAE94A6IFetFdPx4ATEAkXieVFwsGmT1cCzoB+WwTgAwfyZf5AxIy/sAY6lShFgtFKhGAZL8rCZTy4IgntAFGjs/ESzc063JlXMKropnI/nACQlJWkpYCbQAAi6UjOYw93xaZ4hg2Of4W9OnWHrHwseh1sAhLHka7YmmZ0gCJGm3+SlZuWcOuWLUYmCec0ueilWII9ZOWPDhg1mxWKjeQ2KkEQAbBwAOf+jF6QAOOzYm2xVeCQIgrsgIrdiE69XHWnAro0rm130UqIQzwHYuNHRGf5vHOUOPBcBOKP+T4g+MmS4iMoWjTc7Z6zZJrd/QfAa/afwowCXNK2qnwnRTIlCvCiHZf7f5xEAOf+jktKF87EHgqzdttesBEHwCqPnrqbklONm54xC+eKofqXiZhd9ZFRnYEJ+XseTpQPgegTA8VPbzgEQDyAaKcO8/YO1EgEQBM+Bgu1Rc1aZnXPa1C5nVtFH0fy5KFNG3jloWQPg8xSAOABRSUlmOAwkSgGgIHiS4bP4DkCLGmXMKvqwed6tXr3arFi4ngJwnKixcQBOy/kflXDzYcdPnKQtew6YnSAIXmL5xl20cSdvdj365MsXy2920QX3eZeamuq5IkDHp/mpU/yRrVFeFxKzcL8QeLicFq9QEEIC1Dlz58ymW9bSM+Tqc6s/cz5GzOZHAZpHaRSAW/C8bt06OnmSrYUDT8xRuDSY4/aosmyBZXDkyJGDjhzhTY168JMhNH2ZlQckeJDRb99G+XPnMLvgGTt/DT399UizEwQhGFCEVqpIPiquDvHiBXPrw7xo/tyUNy4b5c2ZXc+px+HvBOT8odR68Mgx2n/4KO0/dJT2Jh+hzBkzUo/m1cyfcsbidTvo1nf6mV308M1jl7Mmnw4aNIguu+wys3PMLGVNAsvgCMYBgFfh6PqGFAA3CvDElyNowsK1ZidEA9D+nvLhXWbnjO9GzqXPBs80O0EQ0gM553oVi1O10oX1wC2E1rmDaMIJonsdHv9aOxXRxIT37tCRFae89dZb9NRTT5mdY35UdlNgGRzBOAA7lBUJLIPn+PHjrHkAz303mkbOsSqCEDwGFAB//d/VZueMl38aR0NmrDC7yIGHKW5REPfAK77ceXJmpdw5sul1pn/VvUDRMvnIcfVgO6rsOO05cJg27tpPG3bs0zcnQbAhW5ZM1LRaKWpZsyw1qFycLTvrBR79fBhNXrze7PwP0iYj3rjF7Jxxyy230Pfff292jnlG2RuBZXAE4wAgHl8qsAyegwcPUu7czvsgX/1lPA2attzshGigQ70K9MbtF5udM25/9y9auHa72YUeqJSVKpyPqpYqrG9T5RLy60O/UN5c7EFG/yZZ3XagorZgzTaan7hVF1KdPCUSmML5gXBO8+pltIoeDn8M1okGoi3K16RqKfr4gUvNzhlNmzalmTPZP4teygYElsERzCMNFR6VAsvgwTjDwoULm13wvN13Mv05abHZCdHADR3r0QM9m5mdMy5+8lvac5BXTxIM6NWtWbaoukWVoFrliuqDPy57eMeVphw/oW9Ao+asptkrN4szIPwD5Osva16deraobjVhzqvMXLGJ7v9osNn5n+s61KWHejU3u+BBC3zevHkpOTnZvOMYFGI4CpcG4wAsUlYrsAwetDKUKuU4cEAfDZhGP41ZYHZCNPDEVa3oitaOP0K64KjlQ5+7rg5ZsnBedZMqTQ0rl6S6FYtRDg/dpA4cPqpTHr+NX0RJIXR8BO+TJ2c2urJNLbq2fR3KGcUz9LfvTaZL/veD2fmf529or6WOnQIBoLJly5qdY1B0F6fMUTFFMC1+rOqMY8d4RR1ZmHKxgncplBefS+dsTTro2uFfsXgBurN7Y/rz+WtpwEs30CO9W1LzGqU9dfiDvHHZdcRkyGs30TPXtqWEAjw5UcG/ZM6UkW7uXJ+Gvn4z3dGtUVQf/qBovHvpNS9QuWQhs3LG0qX82QoKyAc6PnQ95wDkyBrdH/ZYpBCzQGnnvkNmxQMjR+9Sh/6gV26k3569hm7v2pDKJvhDeARFhwj5/vXC9foQyJLZ+xXdgj11KxTTBbP39mjqOec0VFykTv9oEYDF95arAbBkyRKzYsHyHkLmABw4wFNvi8+V3ayEaKFIPl4EYNe+w2YVPMjf4+D89vHeNODlG+g2degXL8gby+kFcPDDAej3wnXUsHIJ864QbaBvH7/nLx7pyT5A/Eo0qb+XL16APQPAMgLAKpwL5r80xbw6YteuXWbljPx5nIvFCN4F4cy8TKduz8HgHYAyReLpsSta0Yg3b9WhcxT0RVNYEa2Hnz54Gd1/WTNdDS5ED2gb+/rRXtoByBBNH9ogOXGSrxzrNaoww//A0gFghQ+CcQD2mFdHsB2A3DnNSogGCubNyX6o7d5/fgcA/7vt6pan79Rtv9+L19FVbWtFddgUP8YbO9WjT+7vwRIZEbwHbvv4/NZUDmuscuR4qln5H2iecEhJSaE1a9aYHQsU6zsmGAeAdZLzHQCJAEQTBfLwHbrdB9KvgkdUoWvjKvTHC9fSW3d0ibmHZ8MqJbTUKLe4UvAGiFJ9ow7/aGztc0LKsehxAKqU4kUAFixYYDMDAMVSLP18zzkA+eKyS4gzioDuOBeo550NhE+ublubBr1yA710Uwcd9o9VcHOEE+Dn+oZYBpXiH91/6QUH7cQCqVGSAsDFBMJhHObMmWNWLBD+Z1VShMwBgBAQBxz+aIUSogMMH+Gy2zgAkD295eIGNPz1m+nRK1r6WvbUTdAi+OmDPbRQjOAfShfJRx+rwz/a2/uCJVqKACsUL8CevzB37lyzYsFWzgvmqt1C2ZTAMngaNGjA9mpueKOvlkoV/A9XBRCFQc0f+Iza1Cmv//2E/NIPfy5WbNxFd7zfX09rE7wNDv2fn75Ki1GFCyhL7tiXTNv2JGvRHUTW9ES/Q0fpYMox/bk5ceKUvomjzgTT/TJmzEA5sgXqaeLUfzMGvGVXjnj+PDkpPlcO7XQivYeuLURt86n3uPWL67bvpStf/tXs/AtqkFCIzKF8+fJ6FDCTO5V9FVg6I5hfWUVljqfzlCxZkjZt2mR2znjmm1E0Zl6i2Ql+5oGezZUTUNfsggd6+ZAA5obUYg18X/C9EbzNm7dfTO3rVTC70LB51wGau3oLrdy8m1aqixQO2FDLS6P17YmrWusWXKckbk2ia179zez8y2u3dqZODXBcOmPfvn1UoEABghQwkzrKWEWAwTgASDI6burPqLxIVDZyJgJiMAQGRAj+hyuL6WVQtASRoh3KcJPCDUrfokwuE3PWcdPDDQoFXqUL59P5wVAjg7S8DQ5HtKi6Dc6NReu261kS0NXfnsTWkreC6+yvUo7Kda/3NTv/AvVOTqRy9OjR1LlzZ7NzDHR68P/0hN45JNigDbQAHCcaV69eTRUrOveIhs5cSS/9ONbsBD/z/j3d9MhSP4IhPWvU7SRx6x79unrLHtqy+wAlpxw3fyI4IPKCYj3MaIeYT4saZXTvt9vgvxc3qa17Dpp3BK+AcDnEnOAcusUh9Tn8a8pSGjJ9BW3ZwxNec5Nnr2tHPZpjHo0z5q7eSnd/4GiIneeIz52Dxrx9m9k549VXX6XnnnvO7BwzS1mTwNI5wRQBAugMO4ab0yghlc1RQ3YfSTvjAJ2xbBN9PHA63fzWn9Tm4S/p1nf60Vu/T6IBU5fpsb1OD39w6vRp2rRrP41fsJbe+G0idXn6O7r2td+p3+QldPyEe3l7aCC8dFPHqBJAihYeu6Kla4f/4aOp9NWw2XTJsz/Qp4NmeOLwB9y/3+Gjzr9TXqNWWX4rsmUBoNW/HKwDsNa8OmLtWta/RiUKha9ARggtqOD3MgjjY/z0fR8NovaPfkUPfDKYfhw9n5Zu2KkP7lCBaAIci+7PfE/fj5pHqSfcaYVCb3mnBo6ndwshpHb5BNfy/lOXbqDeL/6sHQBEALxEruw8B8Brfw8ONSLnAMwzryyCdQBYV3luBABiQDmkRSYqyJ7Fe8p8UBj8eewCfQvHAfx238k0a8XmiPQj7zt0VN/irnv9d13N7wYYJCPDg7wDhlDZgs/myz+No4c/HaqLY7mgWA/aA6GQHI6L4QhAjbJFzMoZ27Ztox07dpgdCyvvIdhPwT3KPg0sg6dr1640bNgws3PGNerhnKhuSYK/wSQ+L4jVHD1+gsbOX0PDZq2kRWu202kPNh+jVuDeHk1066QtSGMgkiFEFqhUQurXBtyQH/1iGC1I3GbeOT/4HFUrXVhHg1B3AsGsgnnj9MXqbJE1/O9uSzpIa7btpZnLN9G0pRt0GowL97uOaAbMr6D3f9IHd7Gc7gEDBlCvXr3MzjFQAES4nB2qDGkEgJsCAFIHEB1AvS+SINT+5u8TqfOT3+obFB6iXjz8AVIOHw2YTp8MmmHe4XNt+7oSBfAAUK604cixVLrjvf4XPPxxsDerXlq3ok14/w767one9GCv5loyu6pyBvRMjn8prCJnD0XC7k2q0Ou3daZhb9yie9m5wQFM4uTg9whAdXX7537XZs+2cnxQAGiVpwxpDcCGDRvo1CleWFXqAKIDiIeEm9Onz9CEhWt1AR/C/H9NXqofpH7hh1Hz6MP+08yOBwRaujSqbHZCJMiTMxu1qsXvgIGj+tx3o9UNPcm8819wWOOQ/+vF66nPfZfoPnSuwiBSAxCyubNbY/NO8OAAzMOU/fZ7DUC9CsXMyjlTpjjW2Dsbu4eEIlgHAIo+jmNDqamptHnzZrNzBnqnBf+TLYw1ACik6zthMfV4/kd64ssRtHidVW4taPDgrF+puC70uqx5dd0LfUXrmtSxfkXd9ocwrNMbwi9jF9DIOY71t/7BNer2KR0BkQMOGFcaFiAsPmXJuRuwCubJqUdEYy5GSRcvTEhBOa3oh94F97NmU9PgBepWLG5WzoBODoYAWWDlPQAnvzLMKiwfWAbPmDFjqEOHDmYXPFCxuj4KxCFiGRx6Mz6+1+xCBwqkBk1bpm7O8/+eHxBqyibkp57qsG9QuTiVKRp/waIqhPc37z5AS5RTMnvlFpq1crNWOzwfaOv74akr9eAfLne+P4DmJ241OyGcfPt4b52H57B+xz6t6XAuBT/0nX/z6OUhkxS+4qVf9H9DsDSqUlLPpeBw+Ys/08ad+83OX0Dga+L7d7K6ncaNG8c6Gw0IaeKWDI0eNsFGAACrDiAxkSfpi4eeTAX0N6G+/UN5r/+UpXTZcz/pSv5wHP74wkPytO9z1+h8KaSKg6moRmEWirEubVZN51tHvXUrvXtXV2pStZT5E/8FBVmoW7ApWeBIkwr2ICpUvUxhs3PO230nnVe+995Lm4Ts8Eckbed+Z98lm5HGuxz+//ISVUsVYrc6T5061axYoMLX6vAHIXcAVqxYYVbOyJo5ExXLL4WAfgYtR6EAudHB05dTz+d/0sI6u/ajGDY8oMgK4X3bNiqEhlvXLkcfP3Ap/fT0VbpXPD2WbdhJY+fz52K0q1s+ZL8H4dw0VDdiOH0clqzfQfNWnz9qY1NbcCEmLV7neEZ/UaYDcODwUd2h41fqMcP/wDL/b+U9pOHkE4oUgGOWLVtmVs4pV0wGwfiaEFTbQ43vpjf/oFd+Hq9FfMJJy5plqG2dcmbnHrhFfPVoL7r/smbpOhboCuBqFKAQrWGVEmYnhIsGlfgHwy9jF5rVuTl1OjSdLIiqfT3M+RRXbgQg3N9ht6lXkVcAiPo4yw4A6wJA4MQBYF3lly5dalbOKZfAz30KHsDylnw2uClg2A0keiM1KhptVqECB/+NnerR09e2Me/8PxjuMmYuPwrQyqezGPxMlVK88D8q4qH2dyHGzmPdxy7ID6Pn04adwef+0yjGbNvGUC2/ghqnc0XuLgTU/44ePWp2joH3Nz2wtMOJA8C6yu/fv5+tdCSjYP0NitjcQIf7X/hZT7qLZA9/OGSN0UXQpvZ/owyD1M+ACzoUhPCBOhF0fnCYvHj931Mlz8dXw2fT3mTrFPA/gOPxNVOQh9uF4GcHoE75YjpVzcEy/I+HgXMvLR2cOADblbH+n3LTAGWLigPgZ44cteu9Rx7yf9+O0uH+C1XMhwPMLQ8H6U1UW7R2u6Oq7LMpVThfSKYPCulTpkg+dvtfMLd/gO/Dw58NdS1/js/Xs9+OZjnYEACCyiAHP0+uROcDF8sCQFfy/8BplQorDcB1AEqrL1I45qgLoQGz8rlABhpy0KMtQt9uM2HB2rBEIM4VPh45e5VZOae+RbGS4IxiBfjFy0vX7zSrC4PZEXd/OJD2WUYCIJqFYVhcsaySFpotm3d5Y5Ihh8bM2poTJ07Q9OlWEfyIOQCsk3z5cl74EtXLIgnsX3BYnjpPK9P5+G7UPM/dDlCwNMpSnCcYzhXtmLmCJ6oFuLlKwTlF8/MK4jCkymkrK7pErnujL01butG8EzzHUk/qdkOIZmHNpZSFCNGm3f7s/4fSZoXiBc3OGTNmzKDk5GSzY+FKASBw6gCwTnKrTgCpA/A13FsFV8401Hw6aKaexx5KkAdOD0RF9h/iFQ5VLsF7WAnOKRKf26ycwSm+A3AcHvp0CD3y2VAtNHUh0Of/+4RFdOmzP9Cfk5aYd/lwZdvR2eLXGgCE/7k1zmPHjjUrFvD0tgSW9oQtAnCGGTqF4prgXw4zHQDuYJFQA82B13+dEIoORw1u/xhVnB6IqMxdzfvuly9eQPQAwkQ+dTvksC3J6laoZYNveaefVvH74K+pNG7+Gp3bX7ttr5bFRjHtiz+Opc5PfUvv/TnFtSJCbgEgInyY2+FHbPL/lg6Aa+F/EJYIwOHDh2nTJowTcE5F9eAS/Au3SMmrEQAwZl4ifTPCea/0hcABj4JHtDyei4VrUIvrHBSliTMdHrjO6469dg5AGigW/XXcQnrq65F027t/0VWv/KoHY+GzNWzmStcLarkOwOZd/gz/4+bPdQD27dtH8+dbjemebF5dwakDgAH9rCZsbhqgckkJXfoZrgPg1QhAGl8OnUXfjZxrdvbg8H/3j8k0cdH5BTdXbeZrIEgaIDxwnddQp5ZCRXGuA7Dbnx0AFYsX1OOVOYwfP549Idcw3ry6AicmyIoCcAsBC+fLxQ6pCZEHevYcvBwBSOOzwTPpaXXLciqb+m9QgPXUVyODyseiFRGDhThg9rsQerj6F34aWZ1G3rjseu4Bhy27/dkB0LwGXxDMMvyPlijn1Z7ngeMAsK7yS5bwi00qyc3Ft3AjANldEhEKNWPnr6Hr3/hDSxRzmL1ysw7RohUrGI6fOEkbdvBCp1VKiQMQDrhZbZtK/Ehh06W1ZY9fHYAyZuUcTAC0wMp7SI+wRQBs5h7LzcW/cG81cdl4t4pIsGnXfrrprT/omW9G6d7sC4ECwlkrNuve63v7DHLc7ohR2RxQT8MdUCMED7dANKMPp59yOwAAxmP7jdw5s1E1pswzJuNu2BCc0NM58IQDwIoA4C9/6BCv5UMiAP6F6wDkyOaPCEAaeOijOPCGN//Q881RhY39gjXbtFOAPu2B05bRSz+OpS5PfasPfzgBHLh1AJAthbiWEFq4HU9+HH9enBkBQCQr6cARs/MPzauXZv+eRo0aZVYsEB6aFFi6B8cBQCzfcRLy9OnTtHjxYrNzhhQC+peUY7wUQA4f1ACci4079+sqbEQE7nivv3YK0Kf92i8TaOjMlbTnoN2DjxsBAJIGCD3HmaF8rq58JLFqAeSGSiKITf5/2LBhZsUCbUeuV01yHABc44NLWP4LbhqgeIG8lItZaCJEFr4QkL8iAOFkzdYkdv905RLiAISaw8eOm5UzMLrZb3BTAH4M/+Pmz23/Qyu85QCgMebVVbgJQdZJznUA0HdZQfQAfEnKcWYKIKt/IwChBoWVG5mqcWVlxHbI4bbz+dIBYKYAtviwBbBW2aLs39GYMWPo+HGeY2jwlAOw0Lw6wqoQUG4uvoSbAvBDG2Ak4aYBpAYg9GCmP4f8eXi95ZEC7X8oiuOw1YcdAG3q/HdMd7BYhv/h7buvPKYIawRgxYoVlJLCk5+UOgB/wk0BZMmcUSZBngfIu3IolDfO8yJLfieJWePht8FnXAEg4EcNgFa1ypqVM1D/NnLkSLNjMUKZlXrQueA6ANAydJyEhALS0qVLzc4ZomLmT2zETfyiBRAJuINjQCmL8a3Chdm139lEvzRsxupGgiL54szKOX5TAayozh/umOe5c+fSzp3Bj3lOBzgAIYHrAECJhNXDxE0DlC4SLweCD+GmAEBO+X2fE+i9cylTVOoAQonTkb5pYMSsn4qd8+fmpSxOnjpNe5g/o0jRmnn7B8OHDzcrFrj5hyT/D7gOAAhrISAqMCsUk0JAv3Esle8AZM3iv7aocLFz7yG2clxpiQCElB3qd8OF21YXCbh6+HuTj/iuBbB17Yjl/2cp4+X7gsA3DgCQOgD/cfwEP3WVxYd90eECD1DuNDWJAISWHfuS9cx9Dn5KzxRgFi3u8ZkAUEKB3OyptFu3bqVFixaZHQur4oELYeMAsDoBMBWQ2w5RvUwRsxL8QuoJvr45RtgK54abBpBOgNACjQZulXtMOACWQljhpo3F7b9///5sZUhDyPL/wMYBmGdeHZGamsqeDFi9tDgAfuP4SZsIgDgA54NbCAj5VnGuQsvGXTwHoFppns58JCiQO4dZOYPbJREpuNX/YNCgQWbFYpsyq/DBhbBxADD1ZEdg6QxuGgCqU34Uy4hlbCIAWTNJCuB8bGBGADAQiKvhLgTHuu28tG2NskV8MxMgjlmw6CcHIL9ycmqXSzA7ZyQlJdG0adPMjsUAZSEtlrBxAAArDTBvHit4oBUB/eQhC8oBkAhAyMDMAS7cliYhOFZv2WNWzoAAVvmE/GbnbeKy8xwArlBSJOhQvwLbIRs4cCCdPMm/ACkGm9eQYesAsK7ys2ahsJGH1AH4ixPKAeCmwCRMfX62WAxUKRKfy6yEUMCd2AhqMW+c4YY7r4MrlRwJOtSraFbOGTAAF3g2yCFZDQ8IhohEAFAIiOEIHKQOwF/gfIql8ajhBM4VN5xa2ELERbgwO/cdov2HjpqdM2qVK2pW3gWaLEglcbARBwsnhdR3BCkZDgcPHqQJEyaYHQv0DvJ7qIPE1gGYa14dAUVAbhqgepnCOhUg+AfuLTWD/KIvCPQAOEgEIPQs3cBTf6tV3vsRAJtZHX5xANrXrcB+Bg0dOlQXvFswxLyGFFsHYIsyVCo6hpsGwPCJEgX9I5YhBNqiOGRg3jBiiR3qpslBHIDQMz9xq1k5o6j63STkz2123sTGAfBLCgD5fy7I/1uAIolRgWVoceMJy5pSNHv2bLNyjtQB+ItTp0+blTMkA3BhduxNNitnFBYHIOQsSGTdjTTNa5Q2K2+S1aJAlzsiPJzAQeamm48cOUKjR482OxbjlfHlJB3ghgPAOslnzJhhVs4RB8Bf8GsAJAJwIbgRgEJ5c7JzuEJwrN66h13x3rxGGbOKPrgRwXDSoV4Fdqp5yJAh2gmwoL95DTluPAFYsfzdu3fTpk2bzM4Z4gD4i1PcFIDUAFwQyM5ywOHPVXITggMH3cK1283OGfUrFaccFmH2UMP06TUXqf/zOh3q86v///jjD7NigcI/K/UgJ7jhAKCaj9XsyK0DgC5zVtGJ9w3sIkDJAVyQHUn8SGGReOkECDUL1vDSAGiBbVi5hNlFF1736zGQqWqpQmbnjAMHDtCoUVbpe7QO8Ed9OsQNBwCxDpa2L7cOIFPGDFRJBgP5hovkJh8ydu7nOwASAQg981fzCgFB8+rerQM4YyNQ5/HHQdfGVczKOej95866MfxlXsOCW0lA1kluJQgkegC+AQ4bB8wNF87P0eMnKEUZB5HVDj2oA0hm1wGU9uxtOVpTAPh5d24YsfA/IukhV/87m4g6AJgJwJ8MKJLAfiETs9iM2z0Qaxw4zBOcyRuX3ayEUIE6gBnLNpqdMxChqVHWm6JAFuc/ZWReCMIBdP+5Mtl79uyxFf+ZqIynIc3Erd8E6yqPw3/x4sVm5wyvfjGE/5IxI8/jlwhAcBw4fMysnCERgPAwafF6s3JO5wb822goOcaMOoE4Dxc3Xtyoslk5p1+/frba/2Gr/k/DLQdglbKDgaUzuGkAiGWImIk/yHARMwIgDkBQHGBKzkJUSwg9iACknuANxYIWvRfbNQ8f5ee543J40wHInCkjtatb3uycYxn+xwfESj2Ig1ufLDypWbLANoJAtX0gmRnr4OHFzWNKCiA4DhzhOQASAQgPqNGYswqiqc7Jlys7NarivW4AqPlx6wByMacIhhoUXXK/E1u3brUd/QvxH/4EKSZuupask9zGAagjDoDn4Yb/gaQAgoNdAyAOQNiYtHidWTmnc8NKZuUd0NrLVfTLlcObDoBN+P/XX3+l03YXlp/Na1iJuAOwbt062rVrl9k5o06FYmYleBVuASA4KRGAoGDXAMSJAxAupixez1bAa1O7nJ6+5zW4KodxHowA4OZvI7/8yy+/mBULtNKHTfznbNx0ANg9fdzQSZki8TpEJniXbFn4gk0nT4oDEAzcCEDuHOIAhIt9h47SkvU7zM4ZOPxbeFAamDvUJ7cHIwBdG1fW4ksc5s6dq0fcWzBAGW8+viVuOgBoX2CVu06dOtWsnIHcck3pBvA02bPyC364/e2xxrFUXuWxjXMmOGfiIn4aoFsTvjhNqEhO4UWe4nPlMCvv0K1JVbNyzk8//WRWbKzCBza46QAAVhqA6wAAqQPwNjksQpfiAARH6klehXkWi4lugnPGzE1kpwEaVy3puRHB+5JTzMoZBfN6S4ESsr+Ql+eAmf99+/Y1OxYIC6EAMCK47QBMN6+OgBbAwYOsLkKpA/A4NrlLm17jWOI4MwKADg2ZtxA+9hw8QrNXbTY7Z2Aw1iVN+bfUUJB0kOcAeE2CurvFz3X48OGUlJRkdix+V8bz4F3AbQeAdZU/deoUezxw5ZIFPT01K9axcQAkAhAcxy3ERzJnlChAOBkxC5IpPHo0r+YpTYCkZN7IWy85AIiCdWrA77JwIfwfker/NNz+NKESgjXJiJsGwBdCZIG9i10KgFdkFGtwIwBA0gDhBXUAKcd4n2scnM08NCAo6SDPAUDxqVc+d23rlGcXJe7du5dGjhxpdixWKFsUWEYGtx0AlG2zrvJ2dQCSBvAq3AgARIC46mmxhs3PCepnQvhAweb4hfxiwMtaVDOryMN1AFC8XSC3N6IAl1gU//3++++2k/8ievsHoYgnsXr60Epx7BivqlQKAb0Lt9L86HErTe2Y4vgJiwiAOABhZ8SslWblHEQAvCKBvucAzwEAhfLFmVXkQFFl/crFzc453333nVmxwGX518AycoTCAZhiXh0BT4qrClijbBG5yXgUruiHhP+Dx2Y0qzgA4Wd+4jbatf+Q2TkDxYA9W1Q3u8jCjQAALzgxqKnAz5PDvHnzaOHChWbHYrIynj60i4TCAZinjFUeyk0DZM2ciaqULGR2gpfgjpzliozEIjZyy5B0FcILfubDZvKLAeEA4JkXaQ4eOcYu1I20A5ApYwbqbhH+/+abb8yKTcR6/88mFA4APhFzAktn2NQByGAgbxLPVGrkTriLRWwqw0+I2mJEGDB1GVsTAE71xY28MR+AG8koki+yDgDklbl6BEePHrWd/IdcN9T/Ik4oHADASgOgFZA7T7lOBXEAvAg3ArCfKW8bi2S06OU/eUoKLSMBDs5pyzaYnXOuaVtbF9NFmp37mA5AhCMAPVvWMCvnQPjnwIEDZsdisDKr/wG3CJUDwLrKHz58mJ1XqVUuQURNPAh3VsN+iQAEjVUEQCYuRoy/Ji81K+eUTchPDSpHfkww1wEomj9yDkCJgnmpfkV+8V+0hP9BqByAmcpYySFuGgC9nJWKFzQ7wSvkZU6c4w64iUVsHF8ZuRw5Zq7YRJt38y+CV7etbVaRw48RgMtb1WBHT1atWkUzZ+J4YwPp39GBZeQJlQOA8lCWwIFNHUDDKpH3iIV/wk0BHDgiDkCwZLJQ8zslDkDEQP3loGn8KXJoCSxZOK/ZRYZd+3lD7HJmy0Jx2cOv4Iquly4Wc/+/+uor9XuzKpxF+MAzEqehcgAAqw5gypQpdJo5B76hB0Jiwv+DLxu+6Bz2JYsDECw2D9ITUgMQUQZPX8EWckIL23Xt65pdZNixlxcBAJGIAnSoX5GdlsTgH8u5//hFfxtYeoNQOgAsQaB9+/bRypU8oQx0Akhfs3fIk5M/bx4tRkJwcLUWTpw8xa5EF9wBn/Ox8xPNzjkYE1wwgtr63BQAKByBTgCE/7n079+f9uzB1Hs2o5RtCiy9QagjAKyr/IQJE8zKGeiNrVG2qNkJkcZm7Of+Q7xJY7FInpw8B0CcLG/Qd8Jis3IOLjxXRbAWYPeBw2wtiXBHAKAVU6NMEbNzzieffGJWbL4yr54hlA4AhgKx1C7Gj+ePR5Y0gHew+YIfOCyHU7BwIwDJKVY65oJLrNy8m+YnbjU75+BWm4s50MYWRJG4HTuFwywHfHU7vqOEkfXcibUGFP+NCCy9QygdAMCq6Js0aRJbD0AKAb1DkfjcZuUMVKZzR43GItyHv0QAvMMvY/mysqiz6WXR126LHzoBIEjWvl4Fs3POp59+alZsvlbmuQEnoXYAWIWABw8epPnz55udM6qWKhSR6lLhvxSJ53n4u/cflty0A3IxIwCHUsQB8AoQBdqwkzVJXQNhoEjJA/tBDfDyVjXZ9WEQ/fntt9/MjoXniv/SCLUDMFEZ60k+btw4s3IGRFHqVpDxwF6AGwHYsS/ZrIRg4NZaSJrFOyCN/vt4/mj4+Nw5dEFgJOBGAAozLwhOge4/Bv9w+eGHH+jIEauI5EhlmwNLbxFqBwB5D1ZJv00dgBcUsgR+iM+msjgW4VZTJ0sKwFMMm7mS9ibzi19v7lw/IlNRd+7jaQHkzx2e7oUO9SpQobw8ZwM9/1988YXZsfFc8V8aoXYAAOsknz59OtvraiQOgCfgOwC8B0qswi2m2idyy54i9eQp6j+FLw+M71u3xuGPAnDHAmfLkolyMHVCnHBlm1pm5RxEolevXm12LFDd6bnivzQ86wBAdIFbdVmmaH4qEMHeWCHQkpmPqQIoEYDggdZC9qyZzc4ZO/ZKqsVr9Ju8hI6l8mvFbr64vg55hxObqEX+XDnMKjSg9a+6RevfZ599ZlZskPv3rNpWOD4pk5SxPtHcNAB0nutX4g97EOzBbYSrty0OQPAUtqik3iE/Z8+BlrqBFvLACflzW0ndcthn4QDky827JATL9R35SombN2+mYcOGmR0LHPzfB5beJBwOwEFlrJJ+biEgED2AyGJT4CMOQPDYVFLLz9mb/Dh6PlseGNzapYHVhEin7LVo2Q1lBADOULu65c3OOR9//DG7Hd2A0L+nlP/+Tbg+JayrPEYDJyUlmZ0zxAGILDYHE7etKBYpUzSfWTkD+WabB7cQOpBTHzaLJ4cOihXIQ10aVTK70HPo6HH9eeKA7oVQAeEfriOE+rPvvvvO7Nh4tvgvjXA5AKyrPIYCTZ482eycgRA05j4LkYFbmAZxmpTjnhmW5XnKJeQ3K2fg9m831EwIJd+NnGs1qvn2bo3C1hGAzxFXujt/iBwAjIe/tBm/9Q+HP+bSWLBFGdr/PE24HABU87FKju3aAaUOIFJwW9N2SVjaEWWLxpuVM7YnSQGgl4GDNmoOv/oc4e8eFgegU/Ye5DkA3Ml8FwLCPzmYxbFo/XNB+Q//A54t/ksjXA4ARMdZ0wFt6gAaVSlpVkK44fbd7mTOF49FMmS4iMowHYD1O/aaleBVvh0x10oRE7UAaLULB9yWUm6n0PmA4t8VrWuanXOGDh1q2/qH3Bqkfz1PuBwAwBrxt2bNGtq4caPZOaNx1ZJhb4kRAuRiTqiT/H/wFC+Qhy3/unabOABeZ8ueAzRuwRqzcw5aocM1KTDleKpZOSNnCGTbOzesZNUG/uGHH5oVmx+VWeUPwkU4T0f2VZ47HhhDMmqWk/HAkYA7j+GgyNMGTZVShczKOWu38YprhfDyxdBZdOo0vxbgxo71KHfObGYXOo4y63bwjHYTtB5f176O2Tln2bJlehidBfhlfRRYep9wOgAYd8XyimzqAJpXL21WQjiJy8aLABw5xrtJxCI1y/KcW8xv37Bzv9kJXmbzrgNWtQCYFGlzIAbL0eO8djm3HYCm1UpTWWZhLHj//fd1DYAFaP2zyh+Ek3A6ACiIYLlWiABwfyniAEQGbmhPHIDgqcFUONu65yD7xiaEny+HztZz97lc3bZ2yKrt0zia6o0IwE2d65uVc3bt2kW///672bH5wLz6gnAnyFlX+Z07d9KiRbxJWfAGi1qopQk8MjNrL+RgCg7k/iuWKGh2zlizVcL/fmL73mQaPH2F2TkHUtG3XNzA7EID93ubxcURxoiI1SmfYHbO6dOnDx07ZpWChIQjJuD6Bl84AGDECP48haYSBQg7FzF1gKU1PTiQ/+cWuC5ZjyGdgp/4ZsQcqxkBPVtU1wJBoeIYMwLgZpH27d0ampVzDh06RJ9//rnZsXlPma8eYeF2AJAbgUCCY2wcgGbiAISdDEwHwKbtKZZoYDHrYvE6cQD8BtQBMSiIC0SBbu/KPyAvBLcGgBsp/DeIhjWuUsrsnIORvwcOHDA7FruV9Q0s/UO4HQDAKumfPXs27d3La11qVKUEu11K4HFG7vIhhatxAY351Vv2mJ3gJ34YNc+qRgZDgmwK5M7H8RM8B8CtCMBtXRqyh4+dOHFC6/5bAuEf37UwRcIBGGteHXHq1CkaPXq02TkDh3/dCsXMTggHp5g3+XAJl/gZtFjWKMsrAFy5ebdVQZkQOSCT/es4NFPxgHDU3Zc0NjtvkNEFB6BMkXhqXbus2Tnnp59+oi1bWIHpNHDwfxFY+otIOAA4xVlPIEkD+IcjR5nCIC5XBUcj9SuVYA85kfC/v/lt/ELtCHBpU7sc1bYolDsXcC44nLKYd5DGzRfXZ6cc0V2G1j9LflOGFIDviIQDgBLkOYGlM0aOHKkjARxa1BQHIJxwQ5WhUAaLNppW4+c6566yuukIEeawcqx/GsOarv43D/Vqzg6XnwvuAcyNFKaRUCA3dWpQ0eycM2jQIFqxgt9hYehjXn1HJBwAwJqShOlMqAXggArYkoVlOmC44DoAmOIlnBs8aFvWLGN2zkCedsGabWYn+JW+ExbT7gP8mRnVyxShdnUrmJ07cCNSNiqHAEqH3P/f4O233zYrNkhp86szI0ykHIDh5tUxiAJwaV6d9+AUnHP4KOY/Oacgc4hQrABpa67O+cI129nFWoJ3wO/wh1F2UYAHLmumh+a4BbQGONikADDyvXvTqmbnHIyanzVrltmx8ZXwz7+JlAOAShZWMnL4cLbvQM2q80OngjN2H8BALOdwpwjGCm3rlDMr58xYvsmsBL8zcNoy2pZ00Oycg9D55a1qmJ093NkfKRbCXxA3snFiXn31VbNis1LZqMDSn0TKAUDih3WVhyLgtm28MCY6AXJIkVlY2MMMURbKJw7AuUCatXVtvgMwa+VmsxL8Djo5vhrGKqX6m1u7NNSzAtyAO3sfNQ0c9O2/SRWzcw5SyTaj5g1vKvN1v3OkHADAKulH1eaoUTynC2IYDSuXMDshlHBzlIWVA8ANJ0Y7kDpNyJ/b7JyB2+L67TICOJoYOXuVbuvkkidnNrq5szsSwdziXW6qEH3/eJ5zefnll82KDbxp68EBkSaSDgCKJ1jun5UssEUFtRA8u/bxHAAUuZUunM/shLPp2ph/4xm/YK1ZCdECpjp++Nc0s+NxddtaVLygvURwwTy8yN0hhgOA2S5dG1c2O+csXLjQqpbM8IYy3w8uiaQDkKyM9ekdO3YspabyQkeYDuh2C4zwXzbt5stqlikab1ZCGlkyZ6QO9fiV2+PEAYhK5idupRnL+LUduEXf1d1eHKhAHt60wUMpzh2A27s1sr79W4783a7sh8DS30TSAQAsNwyDG6ZN43m+yDFXKlHI7IRQsXnXfjrJrPCtXJI35S6aaV2rHDtfu2v/IVq5aZfZCdFGnwHTrGZodGpQiaqWLmx2PLjFu7v3O4sUIlphc/tfvnw5DRkyxOzYvKvMd7K/6RFpB4Bd0m+TBmhdiy8bKQQHDv/NzCgA+pSFf9KjWTWzcs74BevUjcdshKhj3fa9NGQGX8wGEVGIA3FBJX7eXNnNzhlOu4WQ+7fp+8ft/7Sd9gCE7L4KLP1PpB0AtFGsCyydYeMAtLFopRKCh1t0VrlkIVd7lP1OyUJ5qYFF8SqKxYTo5ouhs9gz+QE6pLgCUyXU55OrBIjoVLBAyO3iRpXMzjmrVq2iv/76y+zYfKiM1+PsQSLtAABWSf/KlStp3TqW70DlEvKLKmAY4FYo4/C3DUlGE5e1qM6uW4ETZlMpLvgDjAv+xWJQEHiwV3PW7bqURdHuLgcpgLsvaWJ1+3/ttddsb/+oW8PUv6jBCw4A+yo/bNgws3JOq5qSBgg1S9fvNCvnSLdGABT/2fQ7D5uFIJsQC/w8Zr52BLjgIL+0mXNlvdJF+A7A9iDFjKqULETtLeSLExMTqW9f63H9nyjjVzd7EC84ABOVpQSWzsAgBy6YiiWEluUbd7FHzzauKg4AuLhhZcobx8uvok1s1NxEsxOiHajqfTWMNysljbvULdvpRM6yzK4dOCvJQXYB3HdZU6vureeee45OnrSSwcYZ5duhP+fCCw7AUWWTAktnTJ06lfbs2WN2zqhetghbU10IDmiWr9nGrQMoSPlz81qLoomr2tYyK+dMX7bRcZW14G8GTV9uJfgUnys7XdehrtkFRw31LOWwfvs+szo/dSsWo0ZVSpqdc5YtW+ZG7v9LZVGXS/OCAwBYaQCMBuamAWymqgnBM2/1VrNyBn4/7eqWN7vYBKqVFYoVMDvnDJiyzKyEWAHtgB8PnGF2PK5rXyfoyxEcBkxa5bB+R3AOwP2XNTMrHs8++6xt7h9hivcCy+jC1w4AsEkDoLdaCC0zlm80K+d0qM+f8x0NXN2utlk5B9XV0y1+9oJ/mbp0A81ZtcXsnAMp7hs71TO782PTsrt+x4UjFW3rlKcaFv8/5s+f70bfP0R/onKOtlccgA3KWNeVMWPGaGEgDg2rlHBtGIaQPovX7aCUYzzVxlrlisbscCC0/jWrXtrsnDNg6jIrcRjB33zYf5quAeHSq0UNKhhEFKBWuQSzcs6KTeePqGfIcBHdfamdSuH//vc/W9U/FDFB+Ccq8YoDAAaaV0ccO3ZMOwEcMmXMINXmIQZFgLOZtxGkAS61mPftZ5D75/ZW42c+aNpysxNikcQte2i0RQEouk+CqQVownx+QrNgzVZo6pybS9R3v0wRviz49OnTafTo0WbH5jdlUauj7SUHgB3Lt0kDtLfQVxeCY9Ki9WblnMuaV7fq/fUjiEp1a8J3fMbMS6S9yazGGiGK+HjgdDqWyq9879Wyhs7xnwvUCXBrVJZu2EmnzpOXz5o5E93etaHZ8UDu3xLc/l8LLKMTLz1ZFyhDKsAxKATkDgdqVq2047YXwRmTFq2j1BO8dkCkAFrEWLHmZc2rseerg9/GLzIrIZZBB8ifkxabnXOyZclE13U4dy0Aoqfc1rwl63aYVfpc274OFc6Xy+ycg1n/kyaxmsvO5mdlqwPL6MRrV6uh5tURBw4coMmTJ5udMxDqkm6A0HLkWCpNW8YvSLvGohjObyDacUVrfusfpsOt3sJrjRWij+9HzaMDh9FpzePyltUp7hyz/m2em6gNOheIOgRbhJgeyPk/9dRTZscGusqvBJbRi9ccAEkDRCkIS3OBTnmd8vxiIz+B1sci8fybz+8T+Dc+IfrAuN2fxsw3O+fkyJaFLk1nEFXuHFmpKbNIFfn/+WvO3R5896XOxYjOBop/qP635Htl/NylT/CaAzBF2fkrQ87B4MGD2dWeTaqWkjRAiJmyeD3tO8S/idzcuYFZRTcIfXLZnpRMU5ZE/TNLcEi/yUtpn0VNyFVta/+nDgeXJu7Arrmrt54zJQhVQRT/cTlx4gQ9//zzZscG+eQ3AsvoxmsOAD4VLGWfbdu20YwZPAEMpAFayYjgkJJ68hQNm8nXpW9avRTVjvIoAKIc1SyGIP0+YZG0/gn/ATfuHy2iAEXjc/1HlOviRvyZ/NOWnrvU65HeLa2Kfr/44gtau9a6aB+qfzEhouE1BwCwY/l//vmnWTlH0gChZ8DUpVa9yZhWxi068gM2wj+os7CZCS9EN/0mL6E9Dmfvn81d3Rv/fTBjkmpti/7/6cs2mdU/ge5F46p8yd/Dhw/riX+WHFP2VmAZ/XjRAUBTP+uTCgcA8sAcmqgPHvJaQujYuucgzVqx2eycA0WwdhYTwbwMWqpaWkyoHDx9uXYCBCE9EHL/dTx/XDAO/U4NAsqcV7WpzXbEMSAMKpX/BqI/D/S0k/x99913adeuXWbHBhP/olL1Lz286AAgUcxSb9i5c6cWf+CQOVNGailpgJDzy1h0e/J5qFdzqxY5r4K8J4SpOCDs/8fEJWYnCOkzaNoytionuK1rQ8oXl526WYynHn6O8dQ9W1Sncgn5zc45GAr3/vvvmx0bzCZ+M7CMDbzoAAD26CabNEAHSQOEHGiUX6gH+HygQv7O7nbyoF4Din89mv+30jpYxi9cS9uCnKsuxC6Hj6bSoOn8NBHkqZ+7oT3bAT956jSNmbfG7P4fCF/d0c3uO/3SSy+xJeHP4m1l/FGKPsSrDgD0AFgl4xj7yE0DIP8ULyNoQ84Po+eZFY+r29amKiULmZ3/aVytJCXkz212zvldhH+EIOlrWSjaogZ/PgWK/9LTJLijW6PzKg5eiMTERPrqq6/Mjs1OZVE37/9CeNUBwBDzkYGlM5ADmjIF3YTOQZGLRAFCD6aVJV5AB/x8IF/40s0dtVxoNIDBK1yWrN+hTRCCYfveZJqwkF8lf5FFFe7wWavM6v9B21/vVjXNjsejjz6q2/8seVkZv0rSp3jVAQD9zKtjbNIAFzesZFZCqEAjwMcDeLUaaeDB8WAvu6IhL4Cbj83Uvz8nSe5fcMZXw+dYdeNw2LHvEE1Z8t/2vyeuas2ufQETJkzQUvCWrFP2TWAZW3jZAUAagOWRIQ1w8iRvCAbmW6PiVQgtM1dssuoIAL1b1fK9jDP6qbkPQIRTJyyI2kFlQohYv30vjZv/31x8KPlj4uL/DP9BtLV+peJm5xykeh9++GGzswJTg6xDCH7Eyw4ADn9WN0BSUhJNnDjR7JzTuYFEAcLBRwPsZpYjGvnSTR197bDZVFQPnblSCywJglO+HjYnbKJR6DxAB8LZYNDQA72amx2Pb775hpYssY6AQTubHzL2OV52AEBk0gCNKrH7XIXgQR2A7dx6VBC/e1c3rVnuNyoWL8Aepwq/aeDUfz5UBSFYNuzcRyPn/DcnHwoGTV+uOxDO5paLG2iFQS6o+H/xxRfNzorHlZ17LnGU43UHgJ0G6N+/Px0/ftzsnFGiYF6qXrqI2Qmh5JOB0610ygHqAV6/tbOVhGgk6GIhpzp39RbavPuA2QmCcz4dNFPLBIcStP71nfjPAVXFC+ah69rXNTser776qtZ9sQTFA2MDy9jE609Mdhpg//79NHz4cLNzDqIAQuhJTjlO7/XjdW2cTfMapemFG9v7JnKD3v+ORlmNA5T/BMGG3QcOW80ICIaB05bpIVVn8+gVLfX8FS4bNmygjz76yOzYwPPB7T+m8cOViR3L//nnn83KOR3qVbSqThWCZ/TcRJqxPH19cCfgRn3vpU3Nzts0rFKCCuWNMztnQPJ30iKZ+ifY8/OYBbpCPxQcP3GSvh/5T80PFO22qGFXuPvEE0/QsWOQ7Lfic2XhyYF4GD+ccEgDsD6hI0aMoL17ecJO+XJlt/6gCsHz6s/j6eAR6y813dS5vtYU93okwCb8P3beGv1wFQRb8Dl670/7CFx6QKAKUYY0UPj32BWtzI7H1KlTdXrXkn3KXgosYxs/OABIELMmBKamplK/fuw6QupuMZdacAYeFK8oJ8ANbuhYj56+pq0Os3uR7FkzU+va5czOOefSUxcEDpMWraMJC9EK7x5I7f30r/QCJgomFOArXqK1+95776Uz9hoGOPzhBMQ8folx/2peHWOTBmhWvRQVzJPT7IRQgwcRcoZugOEiL9/c0ZOFgW3rlGfrqUPJbdG67WYnCO7wdt9JdEgd2m7x7Yg52glIo3yx/HRVW/64a9CnTx9aunSp2bFB2B/hf0HhFwcAV0PWnMcZM2ZorWgOODy6WvRpC855v99UWrONLxN8Np0bVqK37rjYc9MDu1gUmEJONcwibkIMkHTwCH3Yf5rZ2YH/LQj/pIFI3DPXtrWqqYLE+yuvvGJ2VqDwLyZFf9LDLw4AEp7sYsDff//drJxzSZOqogkQRtCW9Ohnw9IdGsIBofZfnrmaylqMGnUTRJQaVCphds4JV++2EHugs8RmTkAaqJ+Comoal7eqQTXLFjU7Ho899hgdPGg98XKCMmvd4GjCLw4AsEoDcPNGUJmrXS7B7IRwgDD3M9+M+o90KBf8Dn948gpPDHpCeymGGXHAGOXNu6T3XwgdKMbdadkVgMjp23d00V0u+XPnoLsvaWL+CY/p06fTr7+yH/9pQDLzocBSSIPfjBl+tim7Vpnjqxw0ATp16kQlSvBvXpMXS9tVONmWlKwlRJtUK2XesSNzpozUrm4FisuehRYkblPORWTi6I9f2YoKMOtKvhs1j1Zu2m12guA+x0+colWb91DXxlXIZvIfCl1rlitKtcsnUGWL0d3Q++/Ro4cboj+YF/xdYBkWMN8YU74g9lFLGfqTGymrd5ahyjyPMvygUewedkVCvwW3of34QmDpjDvvvJO++OILs3MGwtKdnvxWH0hCeHmoV3O6roOdati/2bLnAL3x60Sas2qLeSc8oAJ6yKs3mZ0zTpw8RZ3VZ9CNVklBuBAP9GxON3R093vH4ZNPPqH777/f7Nggd4Dw3x69c5dsyqobQ8EYXnGw4+bi5HxFhAL5l5nKMCoVvZm84jUH+M0BgDe1OrB0Ru7cuWn79u2UMyfv9vXaLxNcq1AXggeXkOdv6EDdXS7GREYI+XT0QIfrUMUDFQ9WDuMXrKUnvxphdoIQWhAx+/6J3la3d1tw669ataqO4FqCwr93A0srCipDKwMMt3q8oqI3k7JQsEjZb8pQxLYVb7iNn2oAADyi2YGlM5KTk600AXq1hGMnhBsc1K/9Mt4VpcCzgWMBMZ4/X7iOLmlaNSztgm3qlDcr54yYLcV/QvhAxOmJL0dENOKEUb8uHP4QOPg4sAwKpMWhANdJ2X3K8O+OUoYUNPJvY5S9rQzp6GrKQnX4AzgY+P+F/PO3yvgPkHPgtwgAuFMZK5bfrFkzmjaN3+py01t/0rIN1rkogUEWdSN5684uIVNnROHhD6Pm0eDpK1wrPjwbFEQNf+MWVkcJpH87PP41pZ6Q0b9CeGlUpSR9fP+l7MJVLqNHj6bOnTubnRU9lQ0MLAkqRDDUkRVXhtaEYspQ5Q0rqwwKXVmVeRE8AHD2PaPsnwMWmPjRAUDRxA5lKLJwzIoVK6hKFV44edjMlfTijzE9PCqiYIDIe3d3oyZV3SkMTA9M2Pt2xFwaOy/R1Vn7aIV66uo2ZucM3P6f/x4XD0EIP3d0a6QtXBw9epRq1KhB69a5ok64WRkO/bx6Fx0gHXCHspF6Z4GfugDSgLwUiixq6J1DsmXLRh07djQ7Z5Qqko/6T1kqOuwRApX74+evpZKF81G5EPX158mZjdrULkdXtK5FxQrkoT0Hj2hhE1sw/7x0kXizc8ang2fI6F8hYixcs52qlCqs22nDwfPPP09Dh2IEjCvgwohCvWgCDs01ynAJhrYBu6XJjw4AQPjjhsDSGWvXrqUHH3yQMmZ0/leHktX+w0dpyXoEIIRIACdg4qJ1lC8uB1UtXdi86z5ZM2dSD71CWlK4Rc0ylE3tk1OOsXKiqC/AbALOCNTDR1Ppzd8mRqxtURDwyZuxfCO1r1eBcucI7Vm6bNkyuummm+h0CNJwUQai96goRnfDEGWsH5hfHYCNytBP5dglTUlJoZo1a1K1aqjfcE7xgnnoz0lL+C6XYA0KA6ct20h1yifoW3qogXpf02ql6Mo2tfSAqHJF82sHAWqFR1MvHA2qWbYI9W5V0+ycMXnJehozL+TdQIJwXqAPgEhA9yZV1eUpNAWzOPR79epFGzfi8S4ECSLhGC2KgXmOnQC/OgA4fxFPZc2WREfAddddZ3bOyJ0zGy1ev4O27rGWpRQswIF6hTqQw02u7Fl1axRuQ9d3rEdXtK5JzWuUoRpli2rnECkEqJ/hz2H8KYr+Lm5UmepVRK2Rc34cPd+12QiCYMPe5BTaeyiFWtZErZz7fPnll/T55zKnhwFusyhidJw38WMRYBr4FEI4wfHfIUOGDLR+/XoqVYpXTIapdY99MdzshHCDIT+Y9OfVcb9ucfr0Ger4xDeuzUUQBDd44Ub3dTl27Nihe/4PHJBaFwvuUvZlYBkcftMBOBv0RkItyTEINX31FZQhecADDkfoWfgvTauXohfVAyjaD3+wfNMuOfwFz/HGbxNo1WZ3JanvvvtuOfzt+VCZo+J4PzsAAOIILL7++ms6downcoGe2Kvahj/8HOtAW/ztO7pajRX1E/NXB8S/8HlDHQKcTlh8ruwx4QAJ3gQiQb+MW2h29mBa6+DBg81OsAAVmrjZBv1w8PtTBIINEHSHRKNjfvzxR7rhBlYzgZ4L0PWZ7+lQCroShVCDtr+vH+2lazBihbmrt6iDP063X/37wD+WelLXBuAmtnjdDpq+bKN8FoWQUks54J0aVKTWtcpRoXxx5l079uzZowuy8Sq4xpXKghqfHw3XiPeUPRJYOqNBgwY0Z84cs3NOn/7T6OexC8xOCBUYovPtY72pYF7eHIdYALeyuau3arEq1Ki4KWIkxC5oXe1UvyJd1bY2VSrBumedl1WrVmnFv02b3JX6jhRoLy9btixVr15dC85VrlyZ4uPj/7bMmTPrTjQYnJ5FixbRvHnz9MhjF52gDcpQpHHBG0E0OAAYxrBSGevvMmvWLGrUiKdytXv/Ybrk2R/o5CnpWQ0V+XJlp28eu5xKFc5n3hEuxP5DR+n3CYuo78TFMsFSYAHpbXTZ3Nixnv4OhhIo/3300Uf04YcfujH2N2zkypWLatWqpa127dpUp04dHc2A2JxTUlNTqX///vTxxx/TzJkYCGgNlAK/DizPTTQ4AABqSCydVbQD/vzzz2bnnGe+GSV92iEiZ7Ys9OUjPV2bSIZbRsmSJclmzrmfSD5yjH4YPY9+HbcoJPMNhOgE+v/PXNsm7IXOx48fpwEDBtBvv/1GY8aM0YeiF8iaNSuVL1+eKlWqpG/1OOxh5cqVC8mzBOcRiiKPHLFSIJ2nrEFgeW6i5Ul4hbI/Aktn4JeLg6FwYZ6q3PKNu+jGN1n/r4XzAKGdjx+4lOpW4PXP/xs8WK688kqd9nnuuefo4osvNv8k+sFn9KUfx9L6HfvMO4LwX3Drf6R3S+rVsgZraJWbHD58mKZOnUrjx4/XIfKlS5fSvn2h+/zmy5ePihUrpi8IaA/HYQ+rWLGi3nOUY23A37l9+/Z08KCV3kwdZRgpfE6ixQHIogxDH1in+CuvvELPPvus2Tnntnf/okVrt5udYAuq3t+9q6trgiN4iHTt2lXfMNKoW7cuPf3009SjRw/KlCmUEz29ASYJvvrLeBkrLKQLxKveUd+5mmUxIM+bbN26Veu3bN68mbZv307btm2jQ4cOaWcBr+jqwq05T55/Ri4Qqs+bN682HPRprwkJCfrQL1GiBOXIkcP8ae8wcuRI/dw6A+lTHi8oezmwTJ9oioW+oeypwNIZ+CBAfhIFGhxQgf3gJ5BjFtzgiata6WE8bjB37lxq166dfkCkB778d911F912221UqJA7qQavgufINyPm0FfDZum1IIDC+XLRV4/2FG0TD3LNNdfoNkkmM5Q1CyzTx69SwOkBYaD7lTl2anA4oFoTIyg5lCyUl6Yu2eDK1LhY5/auDenGTvXNzo41a9ZQhw4dzhs6hCz0hAkTqE+fPtpZQDQAub1ojAogrAtJ4vhcOWj6ctFbFwJzLr54pCeVKBhN03KjBzyLLETrEM55R9k5B5ZEkwMAGSmcHOgKcAymBOImyC3qgAb8uPlrzE7g0KVRZXrsilau5B8RLmzTpo0OEwYD1CETExOpX79+uiJ54cKFdOLECSpevDhlzx7aKuhwgymKmTNlpLmrIKEhxCrI+X/yYA+qUKyAeUfwGkWKFKGJEydy2yShmDZA2TlbK6LJAQDQp2Qp++zatYuaNWumPS4OpYvko/EL1+kWLME5zaqXpjdu76zz/7YkJSVR27ZttVPHAdXHK1as0IWD7777Lg0bNozWrVunHQLkDr2YL3QKJilCOGjZBv+0XQnughHVLWuWMTvBq2BOAuqYmExTtiSw/C8u3LU8Bf4++MtW1zuHIFyM9hMuw2etpBd+GGt2QrBULVWIvnikF+XIyqvBOBsIbKB61qVe2nQpXbo01atXT6eNYKgURi0BOkkwaMovoDXwjvf6ayVBIbZoXqM0fXjvJWYneJmBAwdSz549zc4xjyt7N7D8L9HmAIDblF1QAOFczJ8/X1eIc8D0tl4v/Exb9shQi2DBCN3vHu9N8bntb9W4uV9yySU0evRo8054Qd0AnABUGaPyGG1EP/zwg/mn3mTX/kN0zau/08EjvLkYgv/AmOo/nr9Wiv58wvDhw6lbt25m55i3lJ2zOD4ap6r8qow9QB0hXy4IX1/fkec8xCIYavPJAz1cOfxPnTqlK2YjdfiDkydP6pqD5cuXa4VJ5O+8DirAH72ipdkJscANHeuF7PBPTjlOo+cmaoG0zwbPFAEqF7AUBEKL/DmJRgcASXh22eSff/6p871cLmlaVd9qhfODW8h793R35WeFPlkoZ0FK0ytceuml9Prrr5udt7m4YWWqXT7B7IRoJke2LHRVG3cnmW7edYB+GrOA7nx/AHV47Gv637cBddTvRs6l29/rLxFRS1CfZsEJ85ou0VYEmMZqZWgJdPz3w2EC4yrFIQqAiXUTF/GdiGgH43zfvbsb1a9Y3LxjxzPPPKMr970C9MBHjBihVSbdAFP/vhk+h74ePpuGTF9BKzbtoqzKgSqaPze7a+Vs8D9RuURBGjh9uegDRDk4/FvVshfYwvyTITNW0Nt9J9NHA6fT7JWbacfeZP3sPJtd+w/TwKnL6PiJU1S9TBHdfSI44+2336aVKzHuhgWK2iYHlv8lGmsA0vhN2dWBpTNy5sxJGzZsoIIFedOvUAtw1au/0frte807Qho4bJ6/oQN1b4JhVfagf/+hhx4yu8iD/D8mTFaoUMG8wwfh0z79p1PfiYv0Z+rfFInPRT1bVNcPddzsbJG5FtENvnuDXrnROvw/belGev+vKfrm7wSk+q5rX4cub1nDlc9rLIDUJs6h/fv3m3ccc6uy7wLL/xLN7hiUTjARyTFo9wLoCuCAW1mBPDlp7DzRBfg391zaxLUQJHr2b7/99v/cOiIFOgDw39S4cWPzDp+U4yfooU+G6Hzquf56h4+m6hHAw2evoiqlCumIgA3FCuSmAeq2JkQn1UoX1vl/LqfVB/GdP6bQe/2msIpGj6rP9OyVW6j/lKWUdDBFj/eGBHE0cORYKq3ctJumLt1Ag6cv19/LWuUTrCMeSGvaDKtTIDSK8cDpEs0RAIDwB+sURxQAtQDcIUHg5rf+pKXSZ/03uK0+c21bs7NjypQp1KlTJ63/7RVsZ0qkcSz1pJaWnp+41bxzYfCgefnmjtShnl3k4Z4+A2mOekgL0QcG/VzTrrbZOeet3ydRv8nnbClngUmfbWqXoxY1SlPFEryIaziBM75970FaszWJEpWt3ZZEq7ck6ffSHPWO9SvSizd2oCyZ7e/XGFWPiCIT/BdB5emcUqjR7gC0UzYusHTOo48+atUVgLzYvX0GmV1sA8ERDBvJ6EKfPKrsW7RoYRMWc53LLrtMe+u2OXmE+h/9fJi+STgFP9s+911CjauWNO84BykApAKE6APhf27RLYZIPf89XyMlGArljdPFqLXKFaUaZYtS+WL5tVphuDlx8hTt2HeItiUdpG17kgOvyrYmJdPWPQcpRd320wNf/du6NKQ7ujXWa1tQR4RhQBZACe28N4JodwAAFGFYMVkoviEKYNPOJTcq0l/ozx66TI/4tQUSv02aNNGvXqFq1aq67Q+9/7a888dk+mPiYrNzTq4cWanvc9fo9j4OiD50fPxrnYIQogccriPevMXsnIEDr8dzP9K+MKucoqC6eIE8VC4hP5UolEf9HXJRkfg4nV7Nlys75cqeleLU5z1DEKft8RMnddpC2+FjlJxyjA6o1wOHj+rWxYPqdfvewKG/e/9hne5wAqTgn7u+HbWuzVOS/Tdo/atevboeUmfBp8ruCyzTJxYcgF7K/gosnfPwww/T+++/b3bOWbd9rxZaidV+WEgkQ+gHnRG2HDhwQN/8ly3zTp7azaK/vhMW07t/nrNgN2gaVSlJnz7Yw+ycgzYu1B4I0QPC0q/f1tnsnPHruIX0wV9Tzc575MyWhTIaCfFsWTLrdFjK8VQ6dSrwzD2mDn+Mww4V9SoWp1du7kiF8sWZd+x55JFH6IMPPjA7Nl2UjQws0ycadQD+zUBlaAtk8fnnnwc9UCY94L0i9x2L5I3LTu/f092Vwx8qf5dffrmnDn+Mj4ZuhBuHP0L+qKx2A6SeJi/GcEweLWqIPny0Ubs8f87/oGnLzcqboAAPt3jY7gOH9S0eM1nS3gvV4Y+UG4qaP3/oMlcP/yFDhtCHH35odmz2KLvgAIFYcADgBmIkIgsUmb3zDvtf19x9SWMdIoolEO5//55uelSyLZjUd91119kMxHAd5Pq//vprdqfI2azesof+982odFv9uHw5lD/zv06FYmYlRAulC8eblTMg4rNh57nHaccqmKD47eOX0y0XN9CpCrdYvXo13XDDDW50Nv2iLP1ihbOIBQcAoI+CnTT+8ssvueMYNbgB3961kdlFP8jJvXJLR6pZln/rOBukYdBe5xVw+MMpvPHGG807fJBXfeSzYa7n3FGhvGjddrNzRmF1m+HWEAjepHghXvHf3FXeqbXxAhhY9vDlLeiX/12lhY3cZPfu3VpB9ODBg+YdNgh5fB5Ynp9YcQDgCbF1WREF+N///md2PHq3rqHTAbHA/T2bUds65c3ODqhgeUnlDwN/vvjiC90hYgvqQp7+eqQeyBMKRs1hZ76oSTV+J4HgLZATL8J06FZtxoR1AaCT6c8XrqNr29dxpZvpbHDoQ30WEQAXwG0pKBGaWHEAwLfKNgeWzvntt99o7ty5ZuccfGAe7R39Q1d6taxB13dwZyDSr7/+Sk89dc5BVmGnQIECNGzYMLrjDpa+1H9AYZWTXn+nzFjGryCWOfHRQ9H4XOww9fodEv5HGvOj+y/V9UxQ33Sb5ORkffgvWLDAvGPFSWUvB5YXJpYcAEQBXgssnYOczIMPPmiVm2lYpQR1beyOBK4XaVqtFD1xVSuzs2PixIl06623upELc4Xrr79e63FDfMgNhs9aqav+Qwl6mbmphVLMnLHgPWyKcHepz1CsgiLm+y9rRn2fv1Y/20LBvn37qGPHjjRzJrrVXQGj8IMeHBBLDgD4Xhn7WoRf0uDBg82OxyO9W+gxuNEG0huv33axK6GxpUuXUs+ePen48ePmnciAXD+K/FB8+NNPP+kIgBus2LSbXv91otmFFsivckCuU4gOcmTj/y73Hkoxq9gBDhOq+4e+dhPd2KleyMSINm/eTE2bNqXZs2ebd6yB7OzzgWVwxJoDgKfhq4Elj8cee0y3pHFBNwAkOaOJgnly0kf3X0Jx2e0HfEDgp0uXLrrnP1JABhrRh8WLF9OYMWOobVt35IvB3uQUeuyLYVqYJBxA1YxDENoqgk+Iy8abSpmqPjuh7J/3Grjx39GtEQ1+5UZd3Z89hE4whMMwM8SlnH8ayE0mBZbBEWsOAPhJGXtWL5QB0RVgQ+eGlahZ9dJm529wU+xz/6WuVI3v3btX37gjofIHQR+0Gg4cOJD27NlD33zzDdWoUcP8U3fAYfz4l8O10pgghIuczAhArBz+ZRPy05NXt9Y3fjgAUNMMJRju06ZNG9qxY4d5xxUw8W9oYBk8segAIArwSmDJ46WXXqKkJEeO1n946po2vh+JicKiV2/tTBWL24fGEe7v0aMHrVq1yrwTWlDNDw8cRYa45e/atUt/MfHfkD17aFI0b/WdREvWufqlvyDcWwxuf0J0kDEj7zHPjR75AVxcLlYXsa8e6UV/Pn8t9W5VM6Q3foDIMerI0Ofv8hAzpLUfDiydEYsOAIAuwKLA0jm4qT755JNmxwOVuY9f6U7BXKR4sGdzV6rFUeh322230bRp08w77pM1a1Y9Q+Dxxx+n4cOH6+Ib1HS88cYbOuqQJUtonbHvRs4Nu6IappFBL51DuFIUQug5cZInQ54ti/3sDi+BA759vQr09p1daOy7t9Mrt3SiuhXDI3q1YcMGatasWShamlGkcYWyZL1zSCxn+pDYZUvLoUAMxWEI5djw7Hejrfq1I8UlTavS8ze0Nzs7oLHw+utsmYZ0KVu2rL7hY5wmrE6dOiE/5M/FwGnL6PVfJyhHx7wRJjo1qEiv3crTf1++cRfd+OYfZif4mW6Nq9CLNzlXrDx1+gw1uudjs/MnUOzDdMwm1UrpSYORmC6IyOIDDzwQiromeHY4/PvrHYNYL/UZoqx7YOmcSpUq6UIx3C65HD6aSte89httT2I5cBGhjvoiYbofBEZs+e6773TBnQ3I3+OQb9iwITVo0ECvCxUqZP5pZJmwcB099fUIV2V+gyFTxgz0+3PXUJkivHa+acs20kOf4Osh+B1UsqOdjcM1r/6mVSX9AD7zlUoUpFrlEvTsA7zmz53D/NPws337drrzzju1dkiIgEjKW4Elj1h3ACorW6KMnfzBzfXpp582Ox64bd36Tj86aaZXeZliBfLQj09doStmbZk0aZLuq3faVYEcPSIvqM5v3bo11a5dmzJmDL9nfyEmLFxLz347OiL59Ad6NqcbOvIFmQZPX0Gv/DzO7AQ/Y/NZgOM6afF69XlYTnNXb/FMYSDC+eUT8lOF4gWocslC+hW3fa+kLX788UctYb5//37zjutA2O62wJKPNPsQIcZ13pnJ5wOHESbUIeRsA3LEnw12TQwiJOTOkZV+ePJKKlnYfsAPfmbNmzcPWvc6d+7c1LVrV7rsssu0alZcnHvTt0LBb+MX0Yd/TXU8V9wN2tUtT2/e3sWqle/PSUvo7b6TzE7wM49c0ZKuaVvb7PgcSz1JCxK30bKNO/WlZe22vbTngPPZ+cESr27vaDHGbIoShfJqRb60V3QdebFVFZNjcetHnVEIQQ3bzcqsvTFxAIhQwg7dZPaphgNpxIgRZscD36FnvhlJY+cHJeEcdhBe+/iBHtSgUnHzDh+0vyA/DyGMC1G9enW67777dIse+vO9Dh6GH/SbSr9PYNeYWoGQPyI0th0mv41fSO+rv4fgf1BsfGWbWmbnLohuYfzujr2H6MDho8qO6deDR47p4l7UEWBcbxqYEpo1cyBahzW0QyC8g8tF4DWbPvQL5M0ZkXw9lxMnTtBnn31GL774Yqg1TNDGfosyV0Ix4gAEeEyZ1czfr776im6//Xaz44HK69vf608rlHftNZ6+po3W+bfl6NGjOnx/IfUrOFUQXXJThCfUoL//+R/G0LzVkZmghkP/p6eupNJF8pl3+Pw0Zj59NGC62Ql+BoWgKAgVQsPIkSPpkUceCUcL84/KcPi7liuO1TbAf4M0wPrAkgc+ABAJsgEe8bt3do1o4Up6XNOujiuH/6lTp+jKK6887+Ffq1YtXRuAiIpfDn/c+tHid9Urv0bs8Icmwys3d3Tl8Ad+qEcRgqOguk0L7oMDH2lJKJeG4fBH/6Crhz8QByAAROetGvsPHz6sBR5wyNlQKF8cvXt3N88Us7SuXY4e6tXc7Ox44oknaOjQ9MWqIMwDgSVMXGzVyj/6CAvXbqdb3+5Hr/4ynpJTIjO7ALnQZ69rR61q2dWhnI04ANGDOADugrn9Dz30ENWsWdM69RsEOFAeUPagMte/lP5JsoSeFcrQK1NO7xhs2bKFMmfOTC1b2mn9o+ilepkiNG7+Wj0zPlJUK12Y3lfOCARlbEG737m6JfLnz6+HLN18882erOZPj7nqpv/GbxPo88EzafeByEr7PnpFS7rchQjN2cxeuUU7N4L/ua9HU1dadmMdSITjkoJ6pKlTp9Lp0D+b8WBBnz+K/kKC1AD8kwrK0BbInp8JBwAKc/Xq1TPv8JmxbJMeHBOJNrKyRePpq0d7udLuN2HCBOrcubMulPk3mLCH0b8o9vM6yUeO0bgFa+mvKUspccse825kgXY5zG0+GjCNfhrjynxyIYJA137i+3eancABsu/vvvsuffrppzrSGyY2KOulbKHehQhJAfwTlOC/GVjywCEHD9GND0rT6qXozTsu1hX44QR55M8f7unK4Z+YmEi9e/dO9/DPli0bjRo1ytOHPwozx8xLpEc+G0adnvxWK/p55fDHxLJQHP5AUgDRASrqBR4rV67UCn5lypSht956K5yHP3oI6ysL6eEPxAH4L3AArLR5URCCcDbaYGxpWbMsfXivO6N2gwGTsb5Qh78bhYjQ2+/evbt+TY/33nvPlUiJ26CNCYf+89+PoQ6Pf0PPfDOKpixZ75nhKCj4w/QyzCwPFVz9eMFbFMzrbb0Mr4GLyp9//qk7lapWrUoff/xxOA9+PGCQJ4U6bfoPTZeRFED6IIk/UZmVg/Tmm29aDw1KY/PuA/Twp0Np066QKUtR/UrF6Z07u7oyDhNfJLTyYV5CetStW5fmzZtHmKkQaVBnAbnTOSu30OxVm2n+6m0Rrb04HygOff22i10ZwnQ+Xvtlgp5hIPibbk2q0Is3Op8DEEugcBs5/X79+lH//v31ZNAIsEnZjcom612YEAfg3KDt4v7AkgcK2lAl2rFjR/OOHbiZPvHlCFqwZpt5xz3Q5vfYFS1dKxaCJgJm6p+LQYMG0aWXXmp24eXo8RO0ctNuWrJ+hy50w88T73kdKKN9cE93XZwZal76cSwNnbnS7AS/cnPn+nRvj6ZmJ6SBCwoO/b/++osGDBgQqUM/jX7KUKgRutvdORAH4NwgeYaCQKveKlS4o7UNeSQ3gDZ334mL6PMhs1w5tJBaePLqNno2tlu8//779Oijj5rdf8mTJ4+uqEXBZDhIOniEFqmDfvG6HbRy824ttOS3efcNK5egl27qGLaWrue+G00jfTilUvgnT1zViq5oHRoVQL+xfPlyGjdunDZojYQxtH8uUEx0h7JBehcBxAE4P62VTVBm9XPCsJopU6ZQrly5zDv2YHrga79OoNkrLyyney6gGf/YFa1cPVTQ5w+9/vPpIVx++eU63BYKMKwEhzwO+8XrttPSDTtpXzJGZvsTRGTuvbQJXdu+bli1z5/+2ruy1ELwYPZ92zrlzS52wA1/0aJFWnQMhk4kTOfzEGjte0RZREctigNwYT5Q9lBgyaddu3Z6QITN6OD0mLliE30/ap4e0hEMGdQp0qhKSbq9W0OqWbaoedcd5s+fr4tnDh06ZN5Jn6eeeoreeOMNs7MDdZart+ymGcs30Uxly9Tt3ivFeragIPOlmzpQlZLhH2382BfDadIiO2VLIfJ8/+QVVKNMEbMLnlmzZun2N6hx5sjhLWXSfwN5cVTsr1ixQtcVzZkzhxYuXEjHjh0zf8JT4Et1lzJPjNoUB+DCQBMA2rU19c4C3Hz79u0bErGbjTv30+i5q7WAS+LWPXpyVxr5cmWnMkXjqbE6+DvUr0AlCtpP8/s3a9eupWbNmmmVrAvRp08f3V5jw/rte2nYrJU0dt4a2rHv/A6H30ARJtr7rmhdkzJmiEyjDgpOpy5FK7LgZ4a+fjMVjXceeYSD/swzz+hW3fr161OjRo30AK86depQ6dKlwy7YhRv91q1b9QCxDRs26E4rHPgw7MMgymMLwpDvKcPN5yje8ALiAARHVWXzlFk3xt9xxx305Zdfml1oQJ3A4WOplKIMA2IwaSuU7Ny5Ux/+69cHN04BPbWQBeaCav1HPh/6DycnGkB05tJm1XR7H5y2SPLgJ0No+rKNZif4EXyepn98D6uw9/7776dPPvnE7P5JlixZqHz58lShQgUqWbIkFSlShIoVK0aFCxfWY7vTLC3liT+PSZ5oi06blIdbe9oNHW3CsL1792pLW6NOCAf+xo0b9QRRHxzy6YFe8L+U4YHnuS+UOADBc6+y9L8RDvnf//5Hr776qtn5m+TkZGrdurUOuQULDn84ATZs35tMnw2eqfv14fD4GTygOzeoSNd3rKcVGL2AOAD+J145kWPe4U0o7dWrl66OF6zAPG3k+XF59CQiBBQ8nyr7M7C047XXXtPhNTeEgiLJkSNHdCufk8MfLFmC5go7EvLnpldv6UT9XriOLmla1TPDk5yQI2tmPWlx8Cs30gs3dvDM4Q/8/tkUiIowQv9pbNvmfqtxDIHKbPT0Y6qZZw9/IBEAZ+AbNUdZZb2zBNMDv/32Wz0Jz2/s37+funXrRjNmzDDvBE/27Nl1iA+vbnH4aCqNnLOKxsxNpMXrES705gEGFb8GlUpQl0aVqE3tcjpF40Ue+HiwLqwU/As+X+/c1dXsnIHQPoabCY6A14TQJnK8qXjD64gD4Bw0zMMJyK13llxyySW6MNDNwzDUIB+H4T42N/lffvmFrr32WrNzl4NHjunwNWbzQ+wH6omRvNBmzZyJ6lRIoKbVSlGHehXD1sv/+++/09VXX212zrjvo0E0awW/xVSIPNe0q02P9HY+mRQFd3ge2Y42jyHgKaHA7ytlninwCwZxAHhgRGNfZa78/JBDR74tX7585h3vsnr1aurUqRNt2mR3O6xWrZp2IDKEocodDgEcgTVbk7TkL4b5bN1zkE6HyCtAAV+F4gWoWqnC1LBKSapVtqgrI5WDBeH7F198UXdbpBVdOeXePoOsNCaEyPNI7xY6xeQUFN25JVwW5eAhiNkx3ynzxY3/34gDwOdFZS8ElvagteaPP/6ghg0bmne8x7Bhw+jGG28853Afp2C85j333GN24QWCQVuTDtI2ZXAGduxNpgOHj9H+Q0dpb/IROnLshLJUXXkMRyFF7aGamDFjBsqRNQtlzpSB8ufOSYXzxekbfaG8cVSqcD598LsxSIkL6jLwO4Kmed68eXWqhsM9fQbqbgvBv3BFgCZPnqwvJUK64NaAASe47UPBz/sa4udBHAA++Nn9ruxKvXMB1AI8++yz9Nxzz4XlZhwsJ0+e1IWLL7/8squtOBAYgXhQ5cqulFTEPNBiwOhlKKCB+Ph4XWvB4Z4PlQOwShwAP/PTU1dSVcbciJ9//lnXJwn/AF+k75Uhv78Wb0QD0gXAB57gzcogEuQKOGgRuoWULvfB7TYI9bdo0UL/d7ndh5uSkqILCaEjINiBoSYNGjT4+/AHNpMWpQvA/xTJzytTQu+9oEE+f6AyFCsVV/a4sqg5/IE4AHbgA4Iy2xV65xJDhgzRIhvolU9NjUxqCYVAH330EdWoUUPLgoaKdevW6bHBkB0VnIOBJjfddJO++f87328TRZLj39+g5iRfHK+wOMar//FMH6YMbXwIn/RU9psyT+oK2yIOgD24qndW5uq3BrlbaObXrFmTRo4cad4ND5jhjwFGDz744AV1/d0At1ZIjaLAUAgefC6qV69OP/74o3nnn9hFAMxC8CXQAOD++m0LfH0Ipl4hp4/55BDj6K7sJ2XRpTGeDuIAuAMO/07KMN7RVXAodunShbp27apHWIYKhPfRidCyZUtq37691tgOJ5ARbtKkiS5eE84P5i1cc801+nNxvoe1XQRAPAA/YyMCFAMpAPwF4TXjll9CWUVlmMc/RFlU3vTPhTgA7rFSWVtlF56Gw2DEiBF60l7dunW1RrdblfgI933wwQc65QD5z6lToV4ZGRD1wMCkW2+91bW/XzRx/Phxeu+993TRJHr8L4RNBEDOf39TNJ4vUxJlKQCE9Gcqg4w7arYqKCul7CZluOVvVRazWDwhhHNQTdkEZSGd4YqOgebNm+v8OQbxwDEIRkwIhyz67xFNQK0BZHy9WPBVqFAhevPNN+n666/3pVKim+D3069fP3r66aeDHrgEMKAFE9Q43P7uX7RwrafmpwsOwDRJmFPgeOfPn9/sfAd6Xlcpm3+W4WIWXVPDXEQcgNCA6YFjlBXTuzCQOXNmKlGihBbwwFSuuLg43WaHIrGDBw/qIrs1a9awD4RIAX0EHHy33HJLzDkCSMsg8oP2y7lz55p3g6d48eLs29xtygFYJA6Ab8Fsie5Nqphd8KAeByN/PcxhZajER94+zVA8hFepJHaIOACho6QyVO/BGRAsqVSpEj355JN01VVX+Uo2mQPEfCCV/M477+guCS7Qc+cWdN36Tj9avG6H2Ql+4/OHe1KDSuhcc8bgwYOpR48eZhc0g5XhLCmoDJXzkDTFPq+yc4Ge4oPKMCcfYXqsj5g10qjoDYYHuksZNPbxHm4vcAAEl5AagNCBQpMWyqbrnWAFiiERBcDs8TvvvPMf/e7RwsqVK3XnBw7uu+66y+rwB1ZdAOZV8CdF4uPMyhnMAsAHlKGCvqmycspQSZ/mBPzb8H42ZdDGxp+Dl4K8fH1lmJ6HjiqoEGF+/ofKUOwyRRlC+3L4u4w4AKEFlWztlf2gd7FDyHJuycnJ9NVXX+kwJVoVX3nllbB3LLjJhg0b9E0fIj5Vq1bV2g9uFUBaFQEKvgW/9sL5eF0AjJQRvutOckUQqzgeWAqRRhyA0IO2ElSfwkuOhWIUVKk1UPax3oWQxYsX0/PPP68HC6H24fbbb6fvv/9eOwRuqxa6BdQeZ86cqR2X+vXrU9myZemJJ56gefO8NTb8jEfHKQsXBjMqsmTiDZ9ipIxw+EuRnU+RK0J4QUrgF2WoD4hGhipD+A5ePj5b6LW9XlnYyZMnDzVu3FhbvXr19O0aBYUZM4ZvKh9AAeaCBQv0zIMpU6boQSuIYoQDFIVye7pveutPWrZBJJr9SPUyReiHJzGw1DnQ4nCo/DlNGZ5rgg8RByD8IAf2hTLeN9SbIKT3vLJ3lJ19dUTZPsYm99K7CJM1a1bdQw+rUqWKjhoULVqUEhISdG0Bt/0JMw0gzoNwPvL2GMoDQ7slXiPVZom/17ZtqJ9yjjgA/qV9vQr05u0Xm50z0Dq6fbuj7g/I5EIrX/Ah4gBEjuuUva8MlbN+Bv1pSHEs17v/gis3innu0zsPAwcBLZS5c+fWa7RR4jVnzpyUJUsWLYuMED7mM6BSH62VMKy9CJyaHTt4lfy3vN2PlqyXLgA/cn2HuvRgr+ZmFzz4XKPDxmH67C1lTwWWgt8QByCy4MqJWzNUqfz2u8Cp95oy/PcHkwN8RBn+rNSdhImCBQvqyAQHEQLyL49d0YqualvL7IIHIlPlyqGI3xEPK4ODL/gQeRhHFgwSukUZ3HW/tAsinv2zMgzxf0NZsAVAiHZ0U4a+XiEMnDp1yqycYzNHQIgs3BZApmYE+vgFnyLfcm8wQxmcAChwLMMbHmWUMuiLotCPIykIYSRcTcI73jBGsemEyJhBgoN+pWh+3hwAZsEohHsEnyIOgLeAolZNZV2VYZ6AF8Ap8peyespQWeRck/afIAKAv9+9yv45wF5wFZsIQEaJAPgW7iRAcQBiD/mWew+E2Ecoa6cMt2Xk10IyYfACbFT2orIyynorW6DMLfB3/ExZJWUQSYpMmXyUYxMByCARAF+SLUsmypMTQnvOYToAMTU+N9oQB8DbLFGGIhvIZSJ/jkMz+HFwzsGQjfeUQZIT1UAvKeM1kgcHHBt0EDRTNhlvCO4hEYDYw2YMsEQAYg/5lvuDE8qGK0PYHAczbs53KoNDACEOjrIMqvhxq/9K2Y3KyiuDJvdjyqC9HU4pPczrbq2sjTJxBFzCzgGQCIAfKZqfF/4H4gDEHvItjw7weyylDJGCBGWYwpVH2dkO3iFlUHbZowzfdJhXQ++ICEA3oKeyLHhD0GDkKeabX6J3FwCqh9At4PDkVyNo/AIEhAQ/0bNFdXrm2rZm5wyMEGdoWtRVtjCwFPyGOACClymi7HZl0EkoizdikFRlkFiGeuR4ZZcr+1NZUHBVCJ/5ZhSNmZdodoJfuOfSJnTLxRjF4QwIWkE3gkEVZZjUJ/gQSQEIXgYRi1eUIe3RWBkKImNBnQanNlI7dykrqgyH/jhleN9R0RU3DSApAH9SrAACf85hhv+BpAB8jDgAgl+YrQwFkcWUVVcG+VEcirghRwM4qSEG9ZAyDIvCgJUvlf17NrCjUarcCIAIAfmTYgV4RYCYY8EkPJOthJAg33LBj2DuADTIOyiDnHJ7ZWhZHKPMLw8knMxLlSGq0V0Z6jYgBtVH2flEliQCIJyTBGYEwMIBOGxeBR8iDoDgd/AAQm4cLYudlGHaIrokrlL2trKxyrYoizSIsQ5ThqmJnZXBcYHoE6IaeD/YB2mYHAB5NPiN7FkzU7647GbnDKYDgM8iOpQEnyLfciHaQPsiqtf+UPakso7KEFJHf1R9ZRhd+j9lKKqD4BKiCVAn5JXL/z/QRId4EnL3mJXwqrLblDVVhmsZujRw00dNw2hl+5VxcOQAcMWARAjIf0AC+CLmr43pAEj43+fIt1wQ/p94ZYggIByP9sOcyjBZJbOyNHDQIw9/UBmcBgx0SlIWrqEoFZWtDiwvzIEDByhPHudh4bf7TqY/Jy02O8EPtKxZht6/Bz6mcypXrkyrVwf9sUpjnTLohwg+RSIAgvD/oOAOD7X5yiBOhCLDQcr6nWUQZML7mImA/meE9sM5Ec1RESA3BZApo9wN/AZ3CBAKRZldABIB8DniAAiCv3CUAkhN5TVJXMSNJQsRg9sCuGPHDjp6lNXNB3ExwceIAyAI/sKRA3DsmKM//jdSBOg/ItACKA6Az5FvuSD4i7A4AJkyyqPBb3BTABYOAOpgBB8j33JB8BeoAQi6tP/4cUclA3+TNXMmsxL8AjcCsH49e8AoCmAFHyMOgCD4j6BPdW4EIEvmjGYl+IG8cdkpZzbe3CyLCMC/VSoFnyEOgCD4j6BPdX4EQBwAP5HAvP0DcQBiF3EABMF/BO0AcCMAkgLwF8WY+X9g4QBICsDniAMgCP4j6J4tfgpAHAA/wY0AnDhxgrZt22Z2jpEIgM8RB0AQ/IekAIR/wNUA2LRpE1ssSiERAJ8jDoAg+A9JAQj/ICH8LYCAO89C8AjiAAiC/wi5AyApAH9RrGBEHACJAPgccQAEwX+EPgWQSVIAfiHDRRdR4XwYdukcCwcAGtMSAfA54gAIgv8IevgQOwWQRSIAfqFg3jjKwnTYLByA3crOBJaCXxEHQBD8R9Aa7PwUgEQA/AJXARBYOAA7zKvgY8QBEAT/EbQDwE8BSATAL9g4ABYywDvNq+BjxAEQBP8RegdAUgC+IYHZAnj48GFKSkoyO8eIAxAFiAMgCP4j9CkAKQL0DREYAwzEAYgCxAEQBP+RbF4viOgARD8R0gDYZV4FHyMOgCD4j6AjAEePBq0a/A8yZ8qo28sE7yMOgMBFHABB8B9BOwDI83LA2Q8nQPA26NYokDen2TnDogAQbDavgo8RB0AQ/EfQDkByctDZgv+QI1tmsxK8StH43OxIzcaNG82KxSbzKvgYcQAEwX8EfapbOQBZs5iV4FUi1AKI1hIIAQk+RxwAQfAfYYkAxGUXB8DrcKcAAosIAML/ogIYBYgDIAj+I2gH4NChoP/of8gpDoDnKVGI5wDs2bOHXR+ikPx/lCAOgCD4j6Cv9QcPHjQr58Rly2pWglcpXjCvWTnDsgBQ8v9RgjgAguA/gr7Wp6Sk0MmTJ83OGZIC8D4lC/EcgDVr1pgViy3mVfA54gAIgv9AERbGsQYFNw2QM5s4AF4G1f8JzCLAtWvXmhULKwEBwTuIAyAI/iTkhYBSA+BtisTnYks2W0YArP5lwTuIAyAI/iT0DoBEADxNcWYBILCMAIgDECWIAyAI/iToU10cgOiEm/8HFg4Aqkr3BJaC3xEHQBD8ScgdACkC9DbFmRoA+/fvp3379pmdY+T2H0WIAyAI/mSveb0g4gBEJyUL8yIAiYmJZsVCHIAoQhwAQfAnIXcAJAXgbbgaAJb5f6t/WfAW4gAIgj8JOg/LjwCIEJBXQQsgdw6ApQOw2rwKUYA4AILgT5LM6wURHYDoo1C+OMqaOZPZOcPSAVhmXoUoQBwAQfAnQacAuHLAUgPgXSLUAQBJyVWBpRANiAMgCP4k6AhAUlLQf/Qf5M6ZjTJmkEeEFyldJN6snGMhAoTwP1QohShBvt2C4E+CrgHgOgDIM+fLld3sBC9RuggvAoAWwL17gw4e/RsJ/0cZ4gAIgj8J+lTH6Fcu8eIAeJLShXkRgJUrV5oVi6XmVYgSxAEQBH+yy7xeEG4EAMTnzmFWgpcoXTSfWTlj1SqrFL5EAKIMcQAEwZ+gtD+o/j67CIA4AF4jR7YsVDBPnNk5w9IBWGRehShBHABB8C/bzOt5SUlJ0cahQB5xALxG6SL56KKLzMYhFg7AbmWbAkshWhAHQBD8S1AOAOCmASQC4D1KF+aF/4FFDcBc8ypEEeIACIJ/CdoB2LUr6JKBfyA1AN4DEQAOx48fpw0bNpidY8QBiELEARAE/7LVvF6Q7du3m5Uz8osD4Dm4GgDo/z916pTZOUYcgChEHABB8C9BRwC4DkA+SQF4Dm4EwLIAcJ55FaIIcQAEwb+E3AEoIBEAT5EtSyYqxRwDbJH/36gMRYBClCEOgCD4FzyYg4LrAOSNy04ZMjBLzgXXqVi8IFue2SICMM28ClGGOACC4F/WKTsTWJ6fbduCDhb8Axz+cAIEb1CxRAGzcs6yZWwdn0nmVYgyxAEQBP9yRNnOwPL8cCMAoEh8LrMSIk2VkoXMyhlHjx6lFStWmJ1jJptXIcoQB0AQ/E1Qs123bg26YeA/FMuf26yESFOpREGzcsaSJUvo5ElM83UMPEf2/GDB24gDIAj+JqiHM6bAHThwwOycUVQcAE+AAsByCfnNzhnz5883K8fI7T+KEQdAEPxN0LczrghMgjgAnqBmuaKUOVNGs3OGOABCeogDIAj+BoWAQbF+/XqzckZCAXEAvEDtcglm5ZyFCxealWPGmFchChEHQBD8TdC9XdwIALfvXHCXuhWKmZUzUAC4fPlys3MEPlts7WDB+4gDIAj+BuouqYHl+eFGAFADgPyzEDkQ+q9epojZOWPGjBmUmhrUR+TfjDSvQpQiDoAg+Bs82YO63nEdgAwXXcTWnxfcoU6FBLYTNmkSu41/hHkVohRxAATB/yw2r+fFog+cyhYVByCStKxR1qycM3HiRLNyxGFlUwNLIVoRB0AQ/M8i83petmzZwm4F5LafCe7QomZps3JGSkoKzZ3LGuQ3XtnxwFKIVsQBEAT/E5QDAJjFYFS9TGGzEsJNWeV8FSuQx+ycMX36dG7+v795FaIYcQAEwf8gBRDUTIClS5ealTOqlCrMHkIj2NG6Fj/8P27cOLNyBG7+QwJLIZqRb7Qg+B/E9YNqB+RGAHJkzUzlikkaIBJ0aVTZrJwzePBgs3LEaGUHA0shmhEHQBCig6AU2ywU4ahBpeJmJYSLmmWLUuki+czOGXD2Vq9ebXaO+Mu8ClGOOACCEB0E5QDMmzdPF4ZxaFO7nFkJ4aJbkypm5Zz+/VlpfAn/xxDiAAhCdBCUA3DixAl2FABa9Plz5zA7IdQg7dKxfkWzcw4z/D9cmYT/YwRxAAQhOtihLDGwPD+oDOcAQaBLm1UzOyHU9GheneKyZzE7Z2zcuJEWLFhgdo74zrwKMYA4AIIQPUwxr+dl6lS+vkvvVjXZE+mE4MHP+Nr2tc3OOT/99JNZOWKnMhQACjGCOACCED0Epd0+fvx4Sk5ONjtnFMybkzrUq2B2Qqi4uGElKpwvl9k54/Tp0/Tdd6yL/PfKTgaWQiwgDoAgRA+jlF2wwu/48eM0YgRf5v3qdvybqXBhcPu/qXN9s3PO2LFjadOmTWYXNNCRgAMgxBDiAAhC9IDDP6goALNCXFOlZCGqU54/m144P1e1qUUlC/FHMH/99ddm5QgUka4JLIVYQRwAQYguBpjX84IIAHcuALi6XR2zEtwkPld2urVLQ7Nzzq5du2jIEFYX34fmVYghxAEQhOhimLILDnGBFsAPP/xgds6BPC1Xn144N/f2aMqu/Acff/yxbvV0CG7+QwNLIZYQB0AQogtU940NLM/Pp59+SmfOBDVC4D9kyHAR3daVf1MV/kvTaqXokqb8NsuDBw/q3ymDPspOB5ZCLCEOgCBEH/3M63lZu3at7gjg0rVRZSpbNN7sBBsQ+n/hxg500UXmDQYffvghJ62zXxk/FCT4GnEABCH6QBI4qFnun3/+uVk5B1GAuy5pbHYCFxz6L97U0UplEW2dffrgIu+Yz5QdCSyFWEMcAEGIPnANHBNYnh8UjK1bt87snNOmdnmqW6GY2Qkc7uvRTIf/bUDuf/9+XOYdAcnf9wNLIRYRSS9BiE7g3PcMLM8NRGOOHTtG3bt3N+84A7fXaqUL08Bpy+k0s54glunZojrdf1kzs+Oxc+dOuvrqq7W+g0PeVhZU26gQnUgEQBCiE6QBjgaW5+fHH3+krVu3mp1zyibkpyta1zQ7IVgwXfGpq9uYHZ+HHnqIo+yIKNEHgaUQq4gDIAjRySFlmOx2QXBzfO+998yOx92XNKGShfniNbEGpH7fuP1iXUdhw5QpU+jPP/80O0fg8OcLQQhRgd2nTxAEL9NL2V+B5fnJkSMHbdiwgQoVKmTecc6KTbvplrf/pJOnpKPsfFzVthY90rulnq5ow8mTJ6lu3bq0dOlS807QbFdWSdlhvRNiFqkBEIToZYOyB5Rl1bvzAPGYzJkzU7t27cw7zsGgoJOnT9OCNdvMO8LZZMqYgR7u3YLu7NaYLrI8/MFzzz3HlXS+R9m8wFKIZSQCIAjRzc/Krgssz09cXBwlJiZS0aJFzTvOOX36DD3y+VCatnSjeUcAReJz0eu3dqaa5fg/27OZPHmydtZOnTpl3gmaWcqaKpOKTUEiAIIQ5aQquyawPD+pqam6lezSSy817zgHN9vmNcrQpMXr6MDhY+bd2KZ9vQrU575LXKuR2L17N3Xo0IFT+IdDv7cyfsWnEFVIBEAQoptMynAdD6pZP2PGjDR//nyqVauWeYfHlj0H6Na3+9G+Q0E1IkQlxQvmoceuaKUcotLmHXsg3dy1a1caOZLVvfeNstsDS0GQCIAgRDuoyMPVs5XeXQAcMMuWLaObbrrJKk+dJ2c2alq9NE1YsJaOpp4078YGWTNnolu7NKDXbu1MZVyWSn7mmWe4Q5xQ+HeZMgnLCH8jDoAgRD9rlaEYMKi2382bN1ORIkWoQYMG5h0e8blyUIuaZWnCwnWUctzxhDrfkSVTRrq0WTV6586u1LJmGcqY0d0u6y+//JKeeuops3PM9coWBZaCEEBSAIIQG0AToEtgeWHy5MlDy5cvp2LF7GV+N+8+QI99MZzWb99r3okucmTLohX9buhQl+It9PzPx8CBA6l3796coj/wizI4AILwD8QBEITYoL2yoMYEp9GlSxcaNmyYKy1rKcdS6YUfxtLERfy5A16jcslC+uDv3LAS5cia2bzrPhD76dy5Mx09yqqn2KKstrJ9eicIZyEpAEGIDdYrg+B/gt4FwZo1a3QkoEmTJuYdPpkzZaQO9SpSrhxZaNG6Hb4VC8qXKzt1bVyFnr66Dd3ZvTFVKVVI/91CxYgRI3RXBvPwR/HFJcpW650g/AuJAAhC7HCVst8Dy+CAONDUqVOpUaNG5h17dh84TO/+MVnXBviB3Dmy6lqG9vXKU5OqpbSgTzj47bffdDEmRJqYPK7s3cBSEP6LOACCEDugJTBRWRm9C5Ly5cvTnDlzKF++fOYdd5iyZAN9N3IuLduw07zjDSDRW7lkQWqsDvsm1UpRzbJFKGOG8I5NwXhfDPnBtEYmQ5VB0EEEf4RzIg6AIMQWNyn7PrAMntatW9Po0aMpS5Ys5h33mLt6K/04eh7NWbklIiOFUeJQunA81SpflOpXLE6NqpTUof5IgMFMDz/8MH3++efmHRZrlDVWJnl/4byIAyAIsQWusvOVoTDMEQhHf/+9Y98haPYmp9D4BWtp3II1tGjN9pA5AzmzZaHyxfKrm31RqlMhQb/mjYvMgX82GMaESn8IMVmAQx9FG4j0CMJ5EQdAEGKPrsqGBZbOePnll/UQmlCTnHKcVmzcRSs27aJlG3bRmq17KEk5CCdOBtcGh5B9vLrFY0BRiUJ51YFfQB/65RLyU0L+3OZPeYchQ4ZoBwtSzBZA9rmzsol6JwgXQBwAQYhNxitrG1g6480336Qnn3zS7MLLgcNHaZ9yBCAxjMFD/0A9zSA+hIM/n3p1oXsx5Ozbt4+eeOIJ+u6777QKowX4l29UhuFPgiAIgnBO6ihDeTkODsf28ssvq/NKsOHPP/88U6hQoXR/vg4NlYL3KxMEQRCEoHhLWXoHSlD24osvmqNMcMKaNWvOdOrUKd2fKdMiE44RBEEQfEtWZSuVpXeoBGVXXXXVmZSUFHO0Cedjy5YtZx588MEzWbNmTfdnybSnlQmCIAiCY1orQwg5vcMlKKtTp86ZzZs3m2NO+DdJSUlnnnzyyTPZs2dP9+fHNPzOHlYmCIIgCGw+VZbeIRO0FS9e/MzkyZPNkSeAdevWnXnkkUfOxMXFpfszs7Djyq5WJgiCIAhWIBUwR1l6h03QdtFFF5254447zhw6dMgcgbHJtGnTzvTu3ftMxowZ0/05WdohZZ2UCYIgCIIrlFKWpCy9Q8eRlS9f/szUqVPNcRgb7Ny580yfPn3OVKlSJd2fiUu2VllNZYIgCILgKu2UYYJceoePI0M0ALfgxMREc0RGHyh+RCtf9+7dz2TOnDndn4OLNlyZu8MYBEEQBOEs/qcsvQOIZTgY77zzzjNbt241x6a/QUHfb7/9pp0bl4v6zmWQPoT0ooi2CYIgCCEFB803ytI7jNiGwxL1AXPmzDFHqT84ffr0mQULFpx57bXXzjRt2jRUef1z2UZl6NIQBEEQhLCAscGDlaV3KFlbrVq1znzyySdn9u/fb45Z74ADf/ny5We+/PLLM9ddd92ZhISEdP8OYTA4YbmUCULIkLCSIAjpgc6A/sowOCgkZMuWjVq2bEkdOnSgjh07Uo0aNeiiMAv4p6Sk0JIlS2jGjBk0ZcoUmj59OiUloRYyYmxSdp8y1rAmQXCCOACCIJwLOAF/KeumdyGmSJEi1L59e2rSpAnVrFlTW+7c7kzuw5z99evX09q1a2nlypW0aNEibYmJiXTqVHATBkMMevvfVfa6shS8IQihRhwAQRDOB9IBnyu7Te/CTOHChalMmTLaChYsSPnz59eWOXNm7RxkzJhR/7lDhw7RyZMn9Y0eI3X37NlDO3fu1Lf5TZs20datW+n0aYjneRJU+D+iTGb4C4IgCJ7jQWW4KqeXrxbj2SxlbZQJgiAIgqe5UlmysvQOM7Hgba6yS5QJgiAIgm8orWymsvQONrHz2zRl3ZUJgiAIgi9BceCHyqymCMaIHVb2lbLaygRBEAQhKmihbImy9A6+WLdlyh5QlkeZIAiCIEQd6BJAgeBBZekdhLFkEBD4UllzZYIgCIIQExRT9oWyY8rSOxyj1bYp+1QZBikFehIFQRAEIQYprqyPMojZpHdg+t0wLXG2sleUNVWWQZkgCIIgCIbCyl5TtkVZegepnwzyvF8r660sXpkgCIIgCBcAN+T2yn5UdkhZeges12yDsl+U3aOssjJBiEpEClgQhHARpwwCOBgw1FFZAWWR5oSyhcpmGJuubLsyQYh6xAEQBCESIDJQS1kzZcil11dWTlkoc+roVEB73qKzDHsULgpCzCEOgCAIXiGHsqrKKiqD4iAsQRny7vmNwUHAn4MYEYSIcKgDSBRDdGePst3mdaeydWfZXmWCIGiI/g9eruNMlsH/+QAAAABJRU5ErkJggg==;" parent="AwfPjfsMhh4GiaTj0pVG-6" vertex="1">
          <mxGeometry width="32" height="32" as="geometry" />
        </mxCell>
        <mxCell id="YRjWSkQDkggCGz_fs0FT-8" value="" style="group" vertex="1" connectable="0" parent="1">
          <mxGeometry x="300" y="30" width="63.10000000000002" height="58.46574557349979" as="geometry" />
        </mxCell>
        <mxCell id="YRjWSkQDkggCGz_fs0FT-3" value="redis" style="image;aspect=fixed;perimeter=ellipsePerimeter;html=1;align=center;shadow=0;dashed=0;spacingTop=3;image=img/lib/active_directory/databases.svg;" vertex="1" parent="YRjWSkQDkggCGz_fs0FT-8">
          <mxGeometry width="44.83634733223735" height="43.939620385592605" as="geometry" />
        </mxCell>
        <mxCell id="YRjWSkQDkggCGz_fs0FT-5" value="" style="shape=image;verticalLabelPosition=bottom;labelBackgroundColor=default;verticalAlign=top;aspect=fixed;imageAspect=0;image=data:image/png,iVBORw0KGgoAAAANSUhEUgAAAJYAAACBCAYAAAAi0kPBAAAAAXNSR0IArs4c6QAAAARnQU1BAACxjwv8YQUAAAAJcEhZcwAADsMAAA7DAcdvqGQAACTFSURBVHhe7Z15lF3Fde73vT2rW2OrNSKhqRuhAQTGMbOxg5ksgxkMBgzYSew84vVM/J6Tt16Ws5L3R97LclYwOAbsGA9Msg0YQxyDwYMMBpkkxhYSmtGE0Dx0t1qtnu993+/cW82R6OEOZ7gt8a2117ld9/apql1f7dq1q+qchL2HIbFiycIqXeZKFkpOk0yXjJakJc2SbZJ1klXnr1yzU9f3ILxHrAEgMk3U5WLJlZILJRCrQjIUWiWrJT+T/LtI9jqJJyveI1YWItM4Xf5YcqPkQ5IGSaHok/xO8kPJj0UyrNpJhZOaWCuWLCiXCi7Qx1skSyXTSA8YRyS/kDwieV4kayfxRMdJSSxZpyZdbpB8UrKYtIiwVfKEZNmJPlSeNMTKDnVXSG6XMNRVS+JCr+QlycMS/LGDJJ5IOKGJ9cqZpyUSifIP6OOnJB+XMKMrNeyR/FjyaLov9dsLVq9jtjnicUISS9YJAl0nuU3yftKGRsJSK9+wxPTxlpg4VX8WqZZ0SvdIZv/IC/8leUjyI1kxCDdiccIQS464hrbEh/URMjHkMfQNi3Rnh1WeebZNuvlWO7R8ubXf9zVvoEqcPscSVTXZX+WAVJ+lD+6x1M4WKzt9rlltne7DiFcQDkl+InnI0umXzn99LbPMEYURTyxZp/m64IQjBDDzQzptqTfXWtOLv7OGs8+25g3rbf+LL1rzj56wnp//yhKTR1ly8qlmyQEsUJ/IdGCnpXa3WXLONBt19Q1Wf+llVl5Xa9vu+otMCHWg/8sPOPmPSR6XFdvupYwAjEhiiUxjdLlKcocER5zoeMFIH9pn1ZcutTPvu9/KqjM+fVdzsx1cudL2P/estT98v6X2HrXkabMsUVlt6X1v9f9du/Q6G3/JJTb+jDOtdto0S5aX2/YfP2U7rrveypYQrA8MbZLnJN9TiZefv3Jtp5daohhRxBKh8JdulVwrmUlaUOhbucZmP/+8Tb/ssmxKBmlZpbZt22z/yy/bwaeesL5N6632apHpYsh0htVOnWqJsrLsr816jrTZys/cYT2vv2aJWlZ+QsEGyfclhC02eSklhpInlsg0WZdrJIQJzpeEUub0kcNWsegsO/N7D1vl2LHZ1GPR1dJivUeP2qjJk48hkx97XnnZ3rzwoqCt1WDokBB8/a7kBZGsZIKvJUmsFWcuKNPMjDU6yHS1hLW70NErqzX90Udtzq0YxfyBdVv95b+xtm/fa8np87KpkWGL5HHJYyLYG15KjCgpYsk6zdKFtbqbJUtICxvpjnZLb8gs5VXfcZs1XHu9zVi6dFCLNBSa162zNQsWWNlizSHKyrOpkaNH8msJYQuCryyOR47YiSUy4S1fKsERJ0ygeXrI6Om21MZNllYTVF2z1MYtvdomnn++jZkzt995LwQHV62yt77xgB19/EFLH+y1ZOPMMP2sXPC25EnJIyLY772UiBAbsUSo03UhRHCTJP8wQb7QMJXas8XS+7ut/MJzbcw119pEOeDj5s+3yjFMMoNBqrfXc/YP/HaFHfrJM9b1xFOWqDBLNjWaVVRmfxU5UpKXJfhi/yaSEScLFZESS2Si+7LHCevEFpWiwgQ5I9VnycnTrO6SD1v9xRfb+IWLrGr8+OyX4aHnyBFrWb/e9i//lR3WjLL31d9Z8pR6S0yckv1FLCCi/7TkkXR3328vWLs+lCWkSIglQp2lC+t17CgINEwwLNLSm4a+0TfdavUf/JBVT5pk5TU1VlZV5Q17XJMVFV78qeilnCHg4mIHnv+Ztb/wnEf2MPPLEf8pwRdjz9huLyUghFYzkYmZHGEClliY4eXvDQeGhKWPtFr6zR2ZPyckZTmaLDlpqpU1iGgTJ1p5fb2VT6i3ClmyinHjvJBDed1oq9TnMbOZU+SmKmaGqZ4e6+3stN6ODuuV1eppOyzR9XCrtW/caK0/ftLS+mwFTBBCgltC+p464m+CWEIKlFgrFs9PSFnn6SNkIohJDKr0gBXDYsgfSsuaWddRS7dLt4fS3iqMHyhowZo1Nl6zvYHQsmG9HV6/wbpbmq3nwAHr2bfPevbusb49u61v19uW2rJe987+WEhMLLfk9CZ9yE/17tfeKhF/UAUvJXCslCyTPCErVvDO10CIJevEzsvrJTnuJsgBNL4jQCqlj+80eYJGSaq3sw5X/FrckEi9vdFqb73TFn/lK1ZWeaxL2Cer9Ic//Yx1LPuBeaWQk56o16R21Fh5j9WWYHilnEUMee4/u1X9w6m07ejqsXKxalZVhY0uk+XVD5T8rg4RAFhCel7CUPkLkSyvJaSCa7xiyQLUeIk+4oizble4N9wny3HksKV37LZ0dkMABUvMbJDTPd0SdZq1qZGILaXZMaChJnW4xdJ7tlt6d1u/UhOaGiQmz7DEKDVugIRjuWeWfKNTLrs8m5LBgd+/Zuvfd07gUXav7hLGo3axpqUv7ZEKC7W3u8feONppY8sSNqeywhqrK62hosyqxDCvH+o3IWCjhP37PxDB1nopwyBvYsk6zdaFEAH7xAve1pvu7rL0pje9WFLZotOs6gMXWI2Gm5pZs6xmyhT5NuOtvLbWc7Bxrj0rhUh76XTKUlKw82G6Dh2yzt277OiWLdbxxmrrfvmXltpxQNZDw860uUUHKwmils2YbWcs+6HVNLxzxmLN//0Ha/mHL1uyKRhiucbo8qxTyiNUR9Ya8R0eGcTa2NEpS5WwHumC9CnlZdYkgs2UFRsTrhWT3+AFX9m//+xQYQtXlyEhMrEx6SMSrBOrtIUFMaWMdGuz/I6dVvGhi2zMRz9m4//oXBs9d65Vy3lmhlYsWMvrkJ/TumGDNb/ysh15+gnrW73BkqfPtUS1quEbUnOGyt33hzds0v33WdOdf+ElHdmxw1Z95GJvt0MxTjgNgGConXVq05W/3XcO2GBHrDI6WRb6F/0+baPEqNmeFauwyRXlYVsxZpE4/MuUCQ7/Mdn4y/0uiFAEMbFMWKhG0gqGhjsauPrWT9qU2+6wiee83yNTqJBW23ftsn2/ecn2/esD1rv8N5YsdNiSBUltXWcLXs048luWPWa7bv1UwcOgU3yXytgqZrSITJ1ZKzPYIO4RS27ARg2FfmI58L9YMTDZs2IVdmpVpYbNUK0YIKr/TcmjsmJHSXhX6USmUbrgM/2phB2ZxYWLsVJHNS3qOGLT/vk+m37FlVZRF/6qzfHAim3//jI7+JdftOQZ6i8F+GCpXZut7vbPW9OX/srWfOHz1r3ydxl/LkegbMRZp+asdcKXct8NBUq8T8TaMAix/OCevSJZjX43q7Lc88Wm6FodrhVbL/mfItez/aUTodDQZyV3SoqzTn4wnZePNO/Bh6xBjm7c2P7M0/b2dddacvECj/R5Q75h9Yc+Yp0vLc95CHS5dB5nnUA+9M6HWA5kA8G4NmDF5Icxoxyrz/L/w7Jin/Y0I1Kx+MtJEYa9QMen1Or1dupDj9qUiy7KpsQL1gY7NAS3P/KwJSZNyqbmgWSZ9az+gyxVbTZhYNDsCJYBq7SnNyNtakWsCSTJjRrvgN+3a0g+2NPrOe+5gF9BQuSoCLatu9c2dPbYoV6VQmWpluUuL6SDDY2zkiIVm4/Y8sohzkCR7jxqFUuvsoZzz82mlAamXK5+hH1mTMgXaoTEuOH7Xofuvas3ZZu6+2xbT8paRS5yK4RQQQErAomwnJu7em1TV4+19fUFWh7u1ZVKT6Ce/+SlhAGZ7bJx46ysMrZV/QFRLh8vOXWOzElInobAECMD5c3YQFxkAhShW2RCJsqR/2Bdtd1cP9ouH1vrzR6zRSwa1BFrvL2nry+pWcTUsCqdqK2zrhW/tiNvsy2odHB4wwZLrdtSVJhgONTKSZ5ZkbSmyjI7pTxptbIUNCBUDqohhwOkZtZZrgZeKOf9mnG1ds34OltSW23jRDBXniCAhSKvTZ293qSk7LL6+r8fr0xCIVdChT+0x472JKz+ggtKwnK179xpb/7t32gU7LZEBPujcJAh2Th9GK0r035mhQjIR+/8djgfC7IQcoAwhBzeN6razqursdNqKm2c/qalgyQ3hOJe+zXsv6lhv11/KK2z7MLxE/4ek826E/03qAwdEmMmWNdTz1grW1cWLbbK0aOz30SP5nVrbcP/+mvrffXXlphQgONeIJxOK0WGMZBMDnO1PtPAPfrSWY3hSDYUsbBOPcoJZ3y+Zn3ni0xnyzJN0+eqrLUMsm3JHTmsjLeJULtFLOoB0YTOsqtksViH4gcUgDjHcBXMF4mpk63r50/bgZdftZRmZNWTp1h5EVuA80X77t22/fEf2vbP3W6pXTss0TBNWg5SzfkBK0aU3Fkx/majOlaMUg2mf9L9xOK3WCcWdqZWlNk5tVUeoRplncZq+KUlg7ROwFmoI+LMWyLUDk1MCJ2Q7it3Z+LepiYvXwrAFxNUSwpZlyWY601FA0V0dsi32WyVV11uE278pE089zyrmzHDykcRkw0W3Ydb7fDmLXbgpRet+ZHvWuq1VZZcPD9Uv6oQuMZg1CAs0SwheOraw9dYXuMRx1pzNLPRYLSs09yqcpsn/2lieblVqs3YBRJYm2XhyoFjfrgvZXtlnVh6gjhZC3U8WvqJ5UCh+PF4EYwxerSujqXH/LAIEIZIr9/qPUio6rqbrI71woULrfaUGVYli1bB4nNVVU4nZdhjzvYVDop27t9vR7Ztt7bVq6x9xSvW81OiKKrPoiZNBYd70mMA0NSdxXVrO+Rt5EvOEZHZNpMDXOOhf8IBNBwhChakgft+v4h1WDJfZJqhYa6OFQR9gQEOqn0cXJ4M1y1ZQkF+MAihHN5NLAfXY/AJJsmsst5UQQWUFlgFMOPtbd7OTu6J21D2gXOsfM48q5g23SoaGqx8zBgrk0VLVGSJoR+m1Hh97e3W29JiPfv3WY9mnb2bNdNbuTZznzrJKbMtUR28JfRasFfeDMfGDu2SCjP6QFcsdJc3nW6V8xqtSp2k9bmfaujVjJh9WXmAewGGxiMiGFYMsjFsjtaXTAYqRagU+sv8NFCQP8Is76BM6T4RirgcGIZQDoMTy8GZVdacGjRvrRfJ8MVA4JXyGq3X0l0dciZaLd1yOHPWl68yFw9O8Ty7ODF2ghyW0ZaoYpdBgGf5POujIaetxdK7JNnkxDhls/g8q5gr8syeY9Wnnmo106fLb5xs1WxtVkdggnLgtdds441XZ/aS5Wi1BgINSRuIX17YgLpTFr8+goIbmY6KyMzyDspKYTFJ79d5bhieWA78iAoyQZ8gck2U4Ie5wuR0k1KDR+ShrM8Cq5wz16rYIyZfsHrqVKuWFa0aN07DdV1mm0+2k/nR1XzIVv3JZ6xn1WuaFef0NKVh4QgVNLgvgv/UJvbu6+3z4lCFLjtl0ZwzsRz4MQQj01CHySAxmPUZL+uzSNZnXpOsz2yrnpmxPjWatVZNmOBZn4qamswW4zyw/p6v2sEv/g9LnrVICilJjfQTii3PzbJMWKgc/adckD+x/PAPkxNlpyeIYDUiGwV230UONWRqtyYG+zo8AlGW5IJ5Gd8H63Oqsz7TZH0myvqMz0wWAgp/9D8U5MwCd0+EDFeiDpGIoe6A5z9l9ZT5KggURywHbgCRcK9ZKmiQFWM26QKuRWeQK1J9nk8z+qqP2ai586xqUoPIM8mzPpx25jxhvtYnH7Dna9Vtt1jf1k1xH60/BpAGoY0Y7rBOh0QqJgdFDHdDoTkQklIwSETBD6jA67p6bV1nr+1RBVj4DKnwA0C5dHdb+dixNuH959i0D/+xTVi82Go1vFXIoQ6TVOlUyrZ+59vW+8IvMw57CQCdo3tiZJCJNqFt9quN6Oy0WUjtkgjEYg0ESMaNq1TyelkxnH2izVQ01GGSoXD9Wk9rdf/tizbp6qutfslZgz7zKijsWv4r2yIiR/RcrCHhyEKI4qAIdUDMYi+WI1oE+M/QiOXAzSESvWOMhkec/THJCJx9KTK9b4f3fNDKj33U6m+8ySZdfLGNnjGT/pT9UTBgX/3qm6631P69lqgJIXaWA6gRgq5ZbvGGOwlLRdGNGB5YFrii7Mr6+s/rw9DbIYsAFXK9BCfxIAE/CadKWIKoUCOHUmnuWzfWklMmWWrvTmv71ndt/78/aa2tR+T/1HoPBeFYWbEg8r/pq3dbx2OPWXLGKdnU6OD0y3CH38T63ds9KW9ZiE4bMak4ufOJuzZuXA6xuvQHT4AJHVQQwWlk3zdmukNdjG2zkAyrFgbYHgPBEmUV1vnsk3bg69+yg2+/Zb2ynJU8q4FHZxeInS+8YHs++znNAqMdAp0uGe5YatnenbJ9IpY/oIlECJ4meINI5b3Kxctbw+EXdfmKJDzvdgDQoxAKQbAVP4w1yjC2eRwP73zj1l1Wfu45Nu6W22zypZfa2HmNeVmxtre22xvXfszSHUczkf8IAGlKYLjr95OVL285+zsR6tlMSgb9ZRG52Jj+zxIeIBs5KChEcs4+S0esiaGwUEnG0/148LDyrb3rC3L2r7H6s872outDIaXZ5xt/+2Vru/+fLNkYbiCURkI8Sy8iQSgWqNFZXIQiOF6TTNx9y9ptX8JuZpP7cUyZ7m1sTMo3+ZR+9SWJd3yegkcJSkjhPWdfhScmFklkH2d//05L7Wr1tvXU33SznP0P2uhTT5WW3t10bz3zjL318Y9rFihShVQql6tbDCaYyewORN0utAnlYQ/ZZCZgahO1UZvSsVg8OOSp81eu4UEiHt6tMeGJBfPr9M39Mre3cQ6OqvDDAX8cIlzvILJfzwK4KhNFZJ+hLbVhqyVnTbYxn/5zm3TlR23CokX9+8ZaN2+2NUs/Ip9NnkMI25shDfXDAXfDHQ9NiNo60e6UA/+IVZVJFe+sDw+gf16Zd7fkGyJY7zHlXLFkIeeaeAT2HfrnhfrncsbyfZplsJ4Ux1gO/BXEB8MXy/YY77tMHw4BqT5LbV8vf0zk/tQt1nDDjTZ+yRLb8rV77chD/6JZIG9bCSZ3dIow3LGZjq0qdOoiF4MLgtM3bgmnehg16NDuu2HA6/Ju9n6dfdPoF/RR46VNJc3BVSjktaWc4XoKPYcKR+bsH27xHmaSnDdD43RZ5mh9AH4VekQY7g5ll1uwVCBq/Trd4tuiW3YTF6jbZxOyUpwq4NlHPOtqUDgFsBrObkIUwGo4GbrvogT5ul6FmcaKReLs98mGBLC92emLDosuWQorcO9TUXB6JN+x0h/DHT4to0OhetT9DkMsHkXD+5BzgiMRJprdjSilFIbJyJ39AoGOKG9m71NGdyEuBg8KpzeCK8zA0ZvrmKQXCv5/b2+qNfHKkoUpVaigOrl/8q9J5bmFNVA4hbhtPCiMY1YgToJRAsSFCyAUJ6MoU9R6QkfkO0p6YUcwmzaD0JGrI4ZmS3dfS+Kni09PM9sqhqXupmy6b01lhkmOk8XheAIU5Hojh3HpjXXyF0J39o+D0wvuA8stezUJijtc4Kw625uCsurUhbbf1ZM5Xyi0JO47rSndWFXuZVgMuRzIhPvggGLF3L5pKhW1Mp3SyJuDCE6hlQEpdDCQH4IlZ7JDR2PCE3Uno37+DuYPFwRRf9fWDOdvd2vSofpmvc+WxD1NTWn+mFlZ5ine/bhYOOUy22HRGeUSugBREwxQJ3KvUaFw9F1MDBSrYAd/nRnukDgc8rDr6jiCn7irt887qubqnkXmMAWZIcwKpleUedtb+FGQBGNYdLsX43JYAfWkXvRiZpMNQwf9coKrI4TCQrEoPMDp4NBB+ckvLOtMfWjHHA6tHntKxxWM2BBP4nWHVYMgGOBeZMYUG58jTmefXBHqyzKFt09MDeGm2cBdBwL/h6Abjkt5k5fssE9d+C4KUEbK4KLjQfuTrp5u4gGhmHiAIdps4ONfjmD4XZMDiGscD1dYz9lXY3jOvgobl7PvOg4zpfGaKdHTmVmqffrL6kD9KWenyosFxvoSz4u67JSZsoQ13Ll6e4FbGQCG9TwmHkOfK/QrnB49QUoPMsrtCk8+9HqGkbidfcpCvgwhkIt9YnQqAHnYw9+pH6Fw/o66nJSPPBm+aZMwhjvu49qjQCuc24FVfkCFwty/TqER5+xTKZx98nbfRQnydYpxV1eGqMvj9A/BcVN4SG2Qp6BcfcgjE7jNHFotwg/OjVgOroJUiFduMJ6HNUxiDUohsh8n0DU6rValWQymQwe5u8Pp2j30g+HOLdOh6yJQ+LlCV7FMBPedYRIEQTCQuVsmHsTWkf0xR/ajgtOtG+6IQQU53Pn1GtIpnuIPrPLPKCLMZzpQYQTT7Jz9uLaUhAWnR0aDzHAX/NYgdEUeEWxrDuYkNHCVp4BhLBs4OOW4KT7OPjEj8uW7kQb0Qn38/iuLwdSH9GLBfRAvXECn9D0a3H0XAvLzsXIFCuGmTIVZCMY/CNI3AE4pzNL8kX3yHQkEc3pwrgQ7ZIOecQMXLkA/Ea5T7gqFWA7cGAXi3BOERIE8RPdkdvbRB2XCqnvhAkmQ+nAWPeZtzf8IsZyrEipcD/V2J4pcBCLDdPZLYRuPAyVwHQz/aVLAqxrUG3E+qLctJz4flNf+3gGxOA8WyYFV4JTMLMft/AzL2fdH9uM4LtVfVwkuARaK+B8Iqp4gpuHueHDw+f/ctXHj/+MPiDVD159KCn5baiFwSkcBztknJhb0tBohnyiHBlc3HHLIROcJcsMhZXd1cqsV7PmKstMAysBFeb4g+d8iFS8q9+CVQ+Tifc73SDihEzkoIAr3nH2Ri95Nz6Zw2cIXDa+iAr2bYTKMmJifUFOyhArKIaf8CMNd3Kd4XJuwG0ZD+j2fWLOek/TH4JjyiGBXSgF/J/kj/ZkISuG5wjUMvoiL7Pt3HBTbOMA1kD/anMNq/ZBw5SZCTpmxUkETqn+4U5njPMVDWdyhVUYYlaFb6Viqb1o6vez819d6D6Hnd8fg54tPr5OiH5Tc5A6rRl0B4HpFWJF912D0eL8FwCKQPlydKQNl5HfvHJcKbijnvtzDP9zFsWnQ1ZPOTf2GObS6RsIbVp/vL+OKJQt5lBGv671T/9Skf0oGtCBZFFzFcIDHq/GYUdaqx4QRkWafGFaMDWwEYKnz8fen/uRNXA7fkDJBrCDKw70RP9kpSxzDHfVAJy5wS8fJY+Jxu/dLkYo31H9NwtHeflAZbuLOvrkod1wEQ8g3rB2S3BtBoW57DFeNQF66+Kz8ZDmlAK5Bkdvl655gDKHi2sZN3UGRgdvtnCu8WR+IPQwKf8XZ+QnJSmH/ulv1D8vZRwZCnkoeFO7+dFz2PTHkxdVx0Rt5Fhu45R6dqXQbxNqpz9O81GHAPyHOVEMwTHXcwySWw0X2g3b2wwC6otx0Tp6LEfITjAeF05//mFwxgVvHjc1dvS2JF89ckMas59sIZM7/+Pd7x7kY7BSBv4MVC2MbTzGgJAgE8qLjvsXgqPWFrsjXbWtGX7xOEBSqK+rAisfWLvnkqXRL4vsL5qdnVdLnC7upU1ipPdMhzMh+PvDrB8uE/xRnuADgo3rDnfRTrI9KHbgvxmVHT5+bubYkvtrUlCaYN0PkYghxmecLp0D+3+33aZbE8VwngKIoC3k7vyHKZzo4fZTKoVXaNshtza4OGJGdItRxZwsz22YYF2HxzOyZQlCM4l2mJbKG1d9ZOBwR5PMKBoJTLlF9hjsCmnEst1Av6s0Ex39OgTI4fRQC6sH/Yzz2ilA8BZu8jmvXd/Zj8WMypRBTKzKxGVCM4rkDgl/hd/bjiMsAp+ygn7ACXF2xUNRzj0gVx9YdV4+gtzVTD9qtTe3IG0doR+53HKEc3r3Rj4LxYx66FeT2Du5BRv5jXnE5+5SD+jAcsHTke6ZmXg3gyMTv43zOlasPw51/dhzEcIdgGPI4rAoG30FKQblp0BvSXGFLxdl3HYYeToNANGaTTnHH19WVj3TWG9t4+bfqEEfYhTJQ/qCHO/4fca4ME448XZnhtya7Aga9ZucKj3ll5yc9PU5nn3pSH4ZJjqjjc9JIhGJcefiNi8hDKPwMrBPIUeGBwLWJ6wyMLi5kVEybUAf+v8jDqmB4YjnwIyrkpvFB+yfA9RAqxSNxQJQNBsjVCeXyK9XpwH3nJAq4vBne/M+aCGq4y/hPmbXhAKxv/qd0XAXJlP04meEjmGm8q6Rz9iFYHENMKcHpO+hTPE7XDOf+9UnyC6AzF3f8y1UsjEczUjnu4T/mFefTmqOG0y0kYkdHUM/NyLSOt57Xvz4Zgl6DOVfIDVCEf80pqEfpUGEEZ9//ZBryO9GsmNMjemMS4Ya7YidNTofc261PhnySKbgDq8BVnoI6xzKoOMrxyqGnsUQSR/AxaKAX6uVOkwflvzqduUMlDHd0SvJz34WE3J33fIFCuLGbCrutLcUqCziF4Ow3x7xdtxg4HWVm3BlXIqgZN4jxGFy0b1gN+gk1KBDBuSci7CL7pe7su47VHyOUPoKY/LhOi0VHFyE+m2EoEDG6AmLt04cGLylkOIXSQ3H2g1yzQ3nco1S28RwPyuY6mP/QalDhghiGu4GwV3L7XRs3vsAbViH1FV5yyOhXgsT/htVykavYN6y6hiFQiAWoV8Mx9MqAeUE+p+ioQb4QCgvN0hFblKZUlBX9WEenS9wBllq2dadsr4jlD2hGXN8fSa4Xqf7AH17eslp/pcs/SiLt3CjVNbhz9gn+BTWtRlxkn6Ehymc6UHYI5Y6EEX8iLFNsvSg798WndMNdXKsVWUAk3rDKq3P60V8WkesCXXjD6ge8hIiBslC4PxAYtLPv9kaFFLvx4AjF7szJsppBPEWGciL4jv7dp+QTI6FWSe7mLOFdmzbRX4/BMWW6t7GxzBKJ2/TxryWne4kRwzUMwyJ7wwgOBh3Z90ebWQAHxRLMlRsLxaPM6RjFhlkoKyiVfW1ZvCK5V4R6eiBCObiyHwNZL96cfYPkv0s4FR0LnKXqj+yLYOzNptDuu0LA/yMMkywd4aMUclzdTxomJMzwCBkEtd3Xf1g15ngdxvI5ydc05P3CSxkGQ5bznnnzEolk8jJ9vFNylYTgeuSggVA0meOY47MEMaMC/kZkMoElYzbJPVHO8Qpy+ZGOFWW9FDIVGyF3edGC7rBqCTwOs1XCuywf8D/wIxfkXF5ZMd6q/VkJ5xAjCU8cD3+jvRPZD3YNTSOOSJYZIgldYCmYWQJl6VkjLChLVpSBWSj/W6gF5X8RtuPwhlUIVQLB3i2S70geFqF2eCl5gjrlBRGMN7JCrj+RnEFaHKAhUX/Qzr5TCFfu7/IBpPmtB+nuu3zh7uEdVhWZXNwtRusEXpU8IHlKhDripRSIgusgR79cjv7l+vjnEq7Bv849B7jGd86+t3CbjO40Tr5wxHeLwXEdVvWBp8P8m+QbItNyLyUABFIXWbGFunxagiWbTloccJYqitM4+YASIC5cwAsxXXQcQsWE3ZJHJN8RoTZ4KQEi0E4igo3T5TrJn0nOIy0OOCvm38bjDoVEacUcofDTmBQw+ywB/4mA5r9KnhChDnopISBQYvkhkl2kCwT7uGQMaVHDkYhK+k//hj1MOkIRf8J/wiGP47CqD8SbeNbsA+l0+hd/uWkTk81QEXo9RbCZutwq4TGUxzwmKUo4J9zFxHD2gx4m/YSCTEjUR8GOAxsMfiD5lqzTG15KRIisviIYQVec/M9JeB5X7DExfDCsWLGb6vyEwkIx5MU8w3td8m3JD0So/V5KxIil3iIZT2jG2f+kJKdHKAUNCIbQ+O7Qqv/lBsBdB4IjE2T0hwxitFAMd89L7rd0+ud3bdrEXCE2xNShMhDBeFqzc/bPJS0OOEtVq6GRFxuwNsmQKb71E8gBsuGgdIlMBFE5C8kML8YIORbp+5IHZZ1WeyklgFiJ5UfW2Sfoeq1kLGlRA9JAMghC4JV1SaL6WDHgEUrDXZxvWPUBn+lbEoY7fKmSQskQy0EE44UGxMPukCwgLQ5AMjcUuitAYU5iAFx+QfINyc9EKLZilSRKjlgO9zY2VloiwQI465M4/VWkn6Qg3vS4hNmdt0Oz1FGyxPJDVoy9YTj7t0hOIe0kwTrJg5JlItQeL2WEYEQQy0EEw/ci4IqzfyFpJyh+KWG4+4kIxcuPRhxGFLH8EMlYMoJgOPvMLkc62iQcSGAx+D+8lBGMEUssBxGMRW/iYZ+RsBg+0sB+p+8iItQ2L+UEwIgnloMIxrYdnH0i+xxniyWynwd+L/mm5IciFDs1TyicMMTyQyRjtysWLLbI/iAgTEZ0/OuWTj9/VwSLwXHhhCSWgwiG78WhEHyx2A6FCB2SJyX/Iuv0X17KCY4TmlgOd8+enSirqLhEH9nterWkhvQI0CJ5WHK/CBX4ZrpSxklBLD9kxRp1ISbGNp6wYmL4TPhPXxehCjqMMNJx0hHLITtM3iThaFtQh0KaJQ9J7hGhtnspJylOWmI53NvYWGGJxDX6+HnJByWF6GSjBEI9JELxNrWTHic9sfyQFXufLp+QXCk5TTLY+iR7nbZKfi0hqPmiCOW9C/k9ZPAesQZA9hkWc/WRNcpZkgkSNjngjDPEYaE2v0emwWD2/wFN6t5vxcA+fQAAAABJRU5ErkJggg==;" vertex="1" parent="YRjWSkQDkggCGz_fs0FT-8">
          <mxGeometry x="30.001808399342394" y="30.003632286995526" width="33.098191600657614" height="28.46211328650427" as="geometry" />
        </mxCell>
      </root>
    </mxGraphModel>
  </diagram>
</mxfile>
